<?xml version="1.0" encoding="utf-8"?>
<!-- Generator: Adobe Illustrator 26.5.1, SVG Export Plug-In . SVG Version: 6.00 Build 0)  -->
<svg version="1.1" xmlns="http://www.w3.org/2000/svg" xmlns:xlink="http://www.w3.org/1999/xlink" x="0px" y="0px"
	 viewBox="0 0 609 409" style="enable-background:new 0 0 609 409;" xml:space="preserve">
<style type="text/css">
	.st0{fill-rule:evenodd;clip-rule:evenodd;fill:#9CB5C1;}
	.st1{opacity:0.6;fill-rule:evenodd;clip-rule:evenodd;fill:#9CB5C1;enable-background:new    ;}
	.st2{fill-rule:evenodd;clip-rule:evenodd;fill:#234E6F;}
	.st3{fill-rule:evenodd;clip-rule:evenodd;fill:#2E6486;}
	.st4{fill-rule:evenodd;clip-rule:evenodd;fill:#77A4C0;}
	.st5{opacity:0.439;fill-rule:evenodd;clip-rule:evenodd;fill:#9CB5C1;enable-background:new    ;}
	.st6{fill-rule:evenodd;clip-rule:evenodd;fill:#355367;}
	.st7{fill-rule:evenodd;clip-rule:evenodd;fill:#244D6D;}
	.st8{fill-rule:evenodd;clip-rule:evenodd;fill:#355567;}
	.st9{fill-rule:evenodd;clip-rule:evenodd;fill:#234A6C;}
	.st10{fill-rule:evenodd;clip-rule:evenodd;fill:#7195AB;}
	.st11{fill-rule:evenodd;clip-rule:evenodd;fill:#2F668A;}
	.st12{fill-rule:evenodd;clip-rule:evenodd;fill:#BED3E2;}
	.st13{fill-rule:evenodd;clip-rule:evenodd;fill:#2E6588;}
	.st14{fill-rule:evenodd;clip-rule:evenodd;fill:#1E3C56;}
	.st15{fill-rule:evenodd;clip-rule:evenodd;fill:#6F93A7;}
	.st16{fill-rule:evenodd;clip-rule:evenodd;fill:#316589;}
	.st17{fill-rule:evenodd;clip-rule:evenodd;fill:#9FBCD2;}
	.st18{fill-rule:evenodd;clip-rule:evenodd;fill:#1F3D58;}
	.st19{fill-rule:evenodd;clip-rule:evenodd;fill:#4C6D84;}
	.st20{fill-rule:evenodd;clip-rule:evenodd;fill:#7093AA;}
	.st21{fill-rule:evenodd;clip-rule:evenodd;fill:#1F2F47;}
	.st22{fill-rule:evenodd;clip-rule:evenodd;fill:#1E3C59;}
	.st23{fill-rule:evenodd;clip-rule:evenodd;fill:#1E3A57;}
	.st24{fill-rule:evenodd;clip-rule:evenodd;fill:#1E3B58;}
	.st25{fill-rule:evenodd;clip-rule:evenodd;fill:#1D2B44;}
	.st26{fill-rule:evenodd;clip-rule:evenodd;fill:#1E3F57;}
	.st27{fill-rule:evenodd;clip-rule:evenodd;fill:#1F3D59;}
	.st28{fill-rule:evenodd;clip-rule:evenodd;fill:#204058;}
	.st29{fill-rule:evenodd;clip-rule:evenodd;fill:#1E3D57;}
	.st30{fill-rule:evenodd;clip-rule:evenodd;fill:#1E3C58;}
	.st31{fill-rule:evenodd;clip-rule:evenodd;fill:#2B4B66;}
</style>
<g id="Layer_1">
	<g>
		<path class="st0" d="M295.5,95.5c1.2,1.6,2.9,2.8,5,3.5c4.9,0.9,9.6,0.4,14-1.5c6.9,2.1,13.9,3.6,21,4.5c4.2,0.8,7.3,3,9.5,6.5
			c1.3,3.6,0.1,5.1-3.5,4.5c-1.8-5-3.8-5.3-6-1c1.5,3,0.5,4.9-3,5.5c-0.9-2.4-2.5-3.8-5-4c1.5,7,5.2,8.5,11,4.5
			c7.9-2.7,12.7-0.2,14.5,7.5c3.3,1.6,6,4,8,7c-0.4,8.5-2.1,8.8-5,1c-6.4-3-10.7-1-13,6c-0.4,3.7-0.9,7.4-1.5,11
			c7.3-0.3,11.6,3.2,13,10.5c-3,6.1-4.8,5.6-5.5-1.5c-1.8-1.3-3.6-1.3-5.5,0c0.2,3.8-1.8,6.2-6,7c0.4-2.5,0.4-5.2,0-8
			c-1.7,1-3,2.4-4,4c-1.1,1.8-1.3,3.8-0.5,6c3,0.8,5.8,2,8.5,3.5c-3.1-0.8-6.3-0.6-9.5,0.5c-2.3-2.4-5.1-3.4-8.5-3
			c2.7-7.1,0.4-11.2-7-12.5c1.3-2.5,1.3-5,0-7.5c-2.8-1.5-5.3-1.2-7.5,1c-1.2-7-4.7-8.8-10.5-5.5c-2,1.8-2,3,0,3.5
			c1.5,3.6,2.3,7.2,2.5,11c-1,3.2-3.2,4.5-6.5,4c0-2.1,0.6-3.9,2-5.5c-3.7-3.5-7-3.2-10,1c-1.9,0.8-3.9,1.3-6,1.5
			c-0.1-1.1,0-2.1,0.5-3c4-1.3,5.3-4,4-8c-2.8-0.6-5.6-1.3-8.5-2c-0.7-1.2-1.1-2.6-1-4c2.2,0.4,3.8-0.3,5-2c-2.5-1.6-5.1-3-8-4
			c-2,1.5-3.7,3.3-5,5.5c-1.9,0.8-3.7,1.7-5.5,2.5c-1.8-1.8-1.6-3.4,0.5-5c0.3,0,0.7,0,1,0c2.8-2.1,2.5-3.7-1-5
			c-2.5,1.5-5.2,2-8,1.5c-1.6-1-2.3-2.5-2-4.5c2.4-0.1,3.1,0.7,2,2.5c1.6,0.5,3.3,0.7,5,0.5c0.2-2.3,1.3-4,3.5-5
			c0.5-1.3,0.7-2.6,0.5-4c-2.3-0.3-4.5,0.1-6.5,1c1.3-2.7,1.6-5.7,1-9c-1.6-1.2-2.9-0.9-4,1c-0.5-1.5-0.3-3,0.5-4.5
			c-0.3-1.3-0.9-2.3-2-3c-4.9,1.1-9.9,1.4-15,1c2.3-0.8,4.6-1.5,7-2c1.2-1.1,1.2-2.3,0-3.5c3.5-3,3.2-5.8-1-8.5
			c-2.8-0.4-5.5,0.1-8,1.5c-4.1-1.7-3.7-2.9,1-3.5c2-1.4,2.4-3.1,1-5c-1.8-0.2-3.4-0.7-5-1.5c2.7-3.1,2.1-5.1-2-6c0-1.7,0-3.3,0-5
			c-3-0.4-6-0.5-9-0.5c-0.1,3.4-0.2,6.9-0.5,10.5c-0.4,0.5-0.9,0.8-1.5,1c-1.6-7.6-5.4-9-11.5-4c0.4,2.6,1.9,4.6,4.5,6
			c0.9,2.2,2.1,4.2,3.5,6c0.9,2.5,0.4,4.5-1.5,6c-0.6-2.9-1.8-5.6-3.5-8c-1.9-2.2-4-2.5-6.5-1c-1.3,3-3.3,5.3-6,7
			c-0.3-0.3-0.7-0.7-1-1c4-4.3,3.7-8.5-1-12.5c-1.3-0.7-2.7-0.7-4,0c-2.2,7.5-3.3,7.3-3.5-0.5c-0.8-0.8-1.7-1.7-2.5-2.5
			c-4-0.6-8-0.4-12,0.5c-0.2,1.4,0,2.7,0.5,4c4.7,1.4,8.2,4.2,10.5,8.5c-0.3,0.5-0.7,1-1,1.5c-2.2-2.9-5.2-4.2-9-4
			c1.2,3.5,2.7,6.8,4.5,10c0.8,1.8,0.6,3.4-0.5,5c-0.6-2.8-1.9-5.1-4-7c-1.6-1.2-3.3-1.2-5,0c-6.9-3.9-9.2-2-7,5.5
			c-0.2,1.5-0.3,3-0.5,4.5c-0.4,0.5-0.9,0.8-1.5,1c-0.3-1.8-0.4-3.8-0.5-6c-2.4-4.2-5.4-4.9-9-2c-0.4,4.5-2.3,8.1-5.5,11
			c-0.3-0.3-0.7-0.7-1-1c3.3-4.9,2-7.9-4-9c-1.5,0-2.7,0.7-3.5,2c-1.4,9.2,0.8,17.6,6.5,25c4,1.6,8.2,2.9,12.5,4
			c4.8-2.4,9.6-2.6,14.5-0.5c-1.6,0.5-3.3,0.7-5,0.5c0,1,0,2,0,3c4-0.5,8-1.1,12-2c5.4,0.2,7.4,2.9,6,8c-0.8-4.6-3.4-6.1-8-4.5
			c-0.5,0.6-0.9,1.2-1,2c1.1,1.8,2.6,3.3,4.5,4.5c0.6,2.4,0.9,4.7,1,7c-0.4,0.5-0.9,0.8-1.5,1c-0.1-5.9-2.5-7.2-7-4c0-1,0-2,0-3
			c1.7-2.8,1.3-5.3-1-7.5c-3.2-0.2-6.4,0.3-9.5,1.5c-4.4-1.4-8.9-2.2-13.5-2.5c-3.3-3.3-6.6-6.7-10-10c2.7-0.7,2.7-1.3,0-2
			c0.5-0.4,0.8-0.9,1-1.5c-2.2-3-4.5-5.8-7-8.5c1.2-0.4,2.2-1.1,3-2c-1.3-0.8-2-2-2-3.5c1.4-2.1,2.1-4.4,2-7c2.8-0.2,4.9-1.6,6.5-4
			c0.9,0.6,1.9,0.9,3,1c2.2-0.9,4.4-1.9,6.5-3c-0.8-0.4-1.8-0.6-3-0.5c-0.8-1.5-1.8-2.8-3-4c1.7-2.4,2.1-4.9,1-7.5
			c0.5-1,1.1-1.8,2-2.5c-1-0.3-2-0.7-3-1c1.2-1.1,1.2-2.3,0-3.5c-1.6-2-3.6-3.3-6-4c-1.2-1.9-0.9-3.6,1-5c-3-1.1-5.1-0.1-6.5,3
			c-0.8-2.1-2-3.9-3.5-5.5c2.5-1.5,4.8-3.2,7-5c1.7-0.3,3.4-0.8,5-1.5c0.7,0.5,1.2,1.2,1.5,2c0.3-1.3,0.7-2.7,1-4
			c2.1-1.9,3.9-3.9,5.5-6c5-2.2,9.7-5,14-8.5c7.6-2.1,14.9-4.8,22-8c6.3-0.3,12.7-0.7,19-1c7.7-1.5,15.3-3,23-4.5
			c7.2,0.9,14.2,2.7,21,5.5c0.8,1.8,2,3.3,3.5,4.5c12.3,0.8,22.1,6,29.5,15.5c3.5,1,7,1.9,10.5,2.5c2,2.4,1.3,4.1-2,5
			c-2.5,3.8-1.7,6.5,2.5,8c0.5,2,1.2,4,2,6c1.4-1.4,2.4-1.2,3,0.5C296.1,86.8,295.1,91,295.5,95.5z M337.5,166.5c-3,0.3-4.3-1-4-4
			c1-1.6,2.3-3,4-4C337.9,161.3,337.9,164,337.5,166.5z"/>
	</g>
	<g>
		<path class="st1" d="M295.5,95.5c-0.4-4.5,0.6-8.7,3-12.5c-0.6-1.7-1.6-1.9-3-0.5c-0.8-2-1.5-4-2-6c-4.2-1.5-5-4.2-2.5-8
			c3.3-0.9,4-2.6,2-5c-3.5-0.6-7-1.5-10.5-2.5c-7.4-9.5-17.2-14.7-29.5-15.5c-1.5-1.2-2.7-2.7-3.5-4.5c-6.8-2.8-13.8-4.6-21-5.5
			c-7.7,1.5-15.3,3-23,4.5c-6.3,0.3-12.7,0.7-19,1c-7.1,3.2-14.4,5.9-22,8c-4.3,3.5-9,6.3-14,8.5c4.2-3.3,8.5-6.5,13-9.5
			c7.5-2.3,14.8-4.9,22-8c14.1-0.9,27.9-3.1,41.5-6.5c7.7,1,15.2,2.8,22.5,5.5c3.8,4.8,8.8,7.1,15,7c3.5,1.9,7.2,3.6,11,5
			c2.7,2.7,5.3,5.3,8,8c3.1,1.6,6.5,2.6,10,3c2.4,2,4.9,3.8,7.5,5.5c0.3,1.3,0.8,2.4,1.5,3.5c-0.6,1.2-1.2,2.4-2,3.5
			c-1.7-1.3-3.3-2.7-5-4c-0.6,1.6-0.9,3.1-1,4.5c4.3,4.1,8.9,7.8,14,11c-1.4,2-2.6,4.2-3.5,6.5c-1.7-1.3-2.8-3-3.5-5
			c-0.9-1.1-1.9-1.2-3-0.5c-1.3,2-1.3,4,0,6C297.6,94,296.6,94.9,295.5,95.5z"/>
	</g>
	<g>
		<path class="st2" d="M263.5,140.5c-0.3-1.3-0.7-1.3-1,0c-8,3.3-13.7,9-17,17c-2.1,1-3.3,2.6-3.5,5c-0.1,5.8-0.8,11.4-2,17
			c-0.3-1.9-1.1-3.6-2.5-5c0.3-0.7,0.7-1.3,1-2c-3.3-1.4-3.7-3.3-1-5.5c-0.8-1-1.2-2.2-1-3.5c-1.7,0-3.3,0-5,0c0.3-1.5-0.1-2.8-1-4
			c-0.3,0.3-0.7,0.7-1,1c-0.1,2.1,0.2,4.2,1,6.5c-0.5,1.8-1.3,2-2.5,0.5c-0.9,0.8-1.6,1.8-2,3c-0.8-1.3-2-2-3.5-2
			c-2.1,0.8-4.1,1.2-6,1c-0.5-1.3-1.4-3-2.5-5c-0.3,0.3-0.7,0.7-1,1c-2-3.9-5.2-5.9-9.5-6c0-1.3,0-2.7,0-4c-1.3-0.2-2.5,0.2-3.5,1
			c-1.1-1.9-2.4-2.2-4-1c-0.3-0.8-0.8-1.5-1.5-2c-1.3,0.6-2.6,1.1-4,1.5c0.6,0.4,0.9,0.9,1,1.5c-3.7,3.4-8.1,6-13,8
			c-6-1.3-8-4.6-6-10c4.5-3.2,6.9-1.9,7,4c0.6-0.2,1.1-0.5,1.5-1c-0.1-2.3-0.4-4.6-1-7c-1.9-1.2-3.4-2.7-4.5-4.5
			c0.1-0.8,0.5-1.4,1-2c4.6-1.6,7.2-0.1,8,4.5c1.4-5.1-0.6-7.8-6-8c-4,0.9-8,1.5-12,2c0-1,0-2,0-3c1.7,0.2,3.4,0,5-0.5
			c-4.9-2.1-9.7-1.9-14.5,0.5c-4.3-1.1-8.5-2.4-12.5-4c-5.7-7.4-7.9-15.8-6.5-25c0.8-1.3,2-2,3.5-2c6,1.1,7.3,4.1,4,9
			c0.3,0.3,0.7,0.7,1,1c3.2-2.9,5.1-6.5,5.5-11c3.6-2.9,6.6-2.2,9,2c0.1,2.2,0.2,4.2,0.5,6c0.6-0.2,1.1-0.5,1.5-1
			c0.2-1.5,0.3-3,0.5-4.5c-2.2-7.5,0.1-9.4,7-5.5c1.7-1.2,3.4-1.2,5,0c2.1,1.9,3.4,4.2,4,7c1.1-1.6,1.3-3.2,0.5-5
			c-1.8-3.2-3.3-6.5-4.5-10c3.8-0.2,6.8,1.1,9,4c0.3-0.5,0.7-1,1-1.5c-2.3-4.3-5.8-7.1-10.5-8.5c-0.5-1.3-0.7-2.6-0.5-4
			c4-0.9,8-1.1,12-0.5c0.8,0.8,1.7,1.7,2.5,2.5c0.2,7.8,1.3,8,3.5,0.5c1.3-0.7,2.7-0.7,4,0c4.7,4,5,8.2,1,12.5c0.3,0.3,0.7,0.7,1,1
			c2.7-1.7,4.7-4,6-7c2.5-1.5,4.6-1.2,6.5,1c1.7,2.4,2.9,5.1,3.5,8c1.9-1.5,2.4-3.5,1.5-6c-1.4-1.8-2.6-3.8-3.5-6
			c-2.6-1.4-4.1-3.4-4.5-6c6.1-5,9.9-3.6,11.5,4c0.6-0.2,1.1-0.5,1.5-1c0.2-3.6,0.4-7.1,0.5-10.5c3,0,6,0.1,9,0.5c0,1.7,0,3.3,0,5
			c4.1,0.9,4.7,2.9,2,6c1.6,0.8,3.2,1.3,5,1.5c1.4,1.9,1,3.6-1,5c-4.7,0.6-5.1,1.8-1,3.5c2.5-1.4,5.2-1.9,8-1.5
			c4.2,2.7,4.5,5.5,1,8.5c1.2,1.2,1.2,2.4,0,3.5c-2.4,0.5-4.7,1.2-7,2c5.1,0.4,10.1,0.1,15-1c1.1,0.7,1.7,1.7,2,3
			c-0.8,1.5-1,3-0.5,4.5c1.1-1.9,2.4-2.2,4-1c0.6,3.3,0.3,6.3-1,9c2-0.9,4.2-1.3,6.5-1c0.2,1.4,0,2.7-0.5,4c-2.2,1-3.3,2.7-3.5,5
			c-1.7,0.2-3.4,0-5-0.5c1.1-1.8,0.4-2.6-2-2.5c-0.3,2,0.4,3.5,2,4.5c2.8,0.5,5.5,0,8-1.5C266,136.8,266.3,138.4,263.5,140.5z"/>
	</g>
	<g>
		<path class="st0" d="M150.5,57.5c-1.6,2.1-3.4,4.1-5.5,6c-0.3,1.3-0.7,2.7-1,4c-0.3-0.8-0.8-1.5-1.5-2c-1.6,0.7-3.3,1.2-5,1.5
			c-2.2,1.8-4.5,3.5-7,5c1.5,1.6,2.7,3.4,3.5,5.5c1.4-3.1,3.5-4.1,6.5-3c-1.9,1.4-2.2,3.1-1,5c2.4,0.7,4.4,2,6,4
			c1.2,1.2,1.2,2.4,0,3.5c1,0.3,2,0.7,3,1c-0.9,0.7-1.5,1.5-2,2.5c1.1,2.6,0.7,5.1-1,7.5c1.2,1.2,2.2,2.5,3,4c1.2-0.1,2.2,0.1,3,0.5
			c-2.1,1.1-4.3,2.1-6.5,3c-1.1-0.1-2.1-0.4-3-1c-1.6,2.4-3.7,3.8-6.5,4c0.1,2.6-0.6,4.9-2,7c0,1.5,0.7,2.7,2,3.5
			c-0.8,0.9-1.8,1.6-3,2c2.5,2.7,4.8,5.5,7,8.5c-0.2,0.6-0.5,1.1-1,1.5c2.7,0.7,2.7,1.3,0,2c3.4,3.3,6.7,6.7,10,10
			c4.6,0.3,9.1,1.1,13.5,2.5c3.1-1.2,6.3-1.7,9.5-1.5c2.3,2.2,2.7,4.7,1,7.5c-1,1.3-2,1.3-3,0c-0.3,0.7-0.7,1.3-1,2
			c-1-2.6-2.3-5-4-7c-1.1,1.3-2.5,2.3-4,3c-1.2-0.4-2.2-1.1-3-2c-1.2,1-2.3,2-3.5,3c-0.5-0.3-1-0.7-1.5-1c1.3-0.8,1.8-1.8,1.5-3
			c-2,0.9-4.2,1.3-6.5,1c-0.2,1.3,0.2,2.5,1,3.5c-1,0.2-2,0.3-3,0.5c-2.5-1.5-5.7-3.1-9.5-5c-1.7,0.9-3.5,1.2-5.5,1
			c-0.1,2.6-1.1,4.8-3,6.5c0.7,1.2,0.9,2.3,0.5,3.5c-1.8,2-4,3.3-6.5,4c0.3,1.9-0.2,3.6-1.5,5c-1.6-1.4-3.4-2-5.5-2c0-1.3,0-2.7,0-4
			c1.1,0.1,2.1,0,3-0.5c-3.5-1.4-7.2-2.3-11-2.5c-0.2,2,0.1,3.8,1,5.5c1.3,0.7,2.5,0.5,3.5-0.5c0.8,4,3.3,5.8,7.5,5.5
			c-2.5,1-4.2,2.9-5,5.5c-0.8-0.9-1.3-1.9-1.5-3c-0.3,1.8-1.1,3.3-2.5,4.5c3.7,0.7,7.3,0.7,11,0c-1.3-2.1-1.3-4.3,0-6.5
			c1.2,0.5,2.4,1.2,3.5,2c-0.6-5.3,1.9-7.2,7.5-5.5c1.1,1,2.5,1.7,4,2c-3.9,1.7-3.9,3.5,0,5.5c-1.2,0.8-2.6,1.3-4,1.5
			c-1.3,0.7-1.3,1.3,0,2c-2.2,2.2-4.2,2.4-6,0.5c-1.1,0.9-1.1,1.9,0,3c-0.5,0.3-1,0.7-1.5,1c-1.7-1.5-3.5-2.8-5.5-4
			c-2,0.7-4,1.3-6,2c-2.8-1.5-5.3-1.2-7.5,1c-0.7-2.5-1.8-4.7-3.5-6.5c1.5-0.4,2-1.3,1.5-2.5c-2.3-2.7-4.9-3.7-8-3
			c-0.4-1.2-1.1-2.2-2-3c0.2-1.6,1-2.9,2.5-4c-1.5-0.1-3-0.5-4.5-1c-1.3,0.3-2.3,0.9-3,2c-0.5-0.9-0.6-1.9-0.5-3
			c-4.9,0.8-4.9,2.5,0,5c-1.3,0.9-2.4,1.9-3.5,3c-0.3-0.3-0.7-0.7-1-1c-1,1.3-1.3,2.6-1,4c3.1-1.7,6.2-2.1,9.5-1c-1.5,1-3.2,1.3-5,1
			c0,1.3,0,2.7,0,4c1.6,0.1,2.8-0.5,3.5-2c0.7,2.8,1.8,5.3,3.5,7.5c-1.5,0.5-3,0.3-4.5-0.5c-2.1,1.6-3.6,3.6-4.5,6
			c-1.5,4.4-4.5,6.6-9,6.5c-1.9-0.8-2.2-2-1-3.5c0.7,0.8,1.5,1.5,2.5,2c1.8-0.9,2.4-2.2,2-4c-4.9-1.8-9.4-4.1-13.5-7
			c-3.1,1.1-5.8,2.9-8,5.5c2.4,1.8,4.9,1.9,7.5,0.5c1,2.4,1.2,4.7,0.5,7c-1.2-2.6-3.2-3.9-6-4c-0.2,3.2,1.3,5.2,4.5,6
			c0.6,3.8,2.6,6.5,6,8c0.9-0.2,1.7-0.6,2.5-1c2.2,1.4,4.5,2.6,7,3.5c0.8,1.8,2,3.3,3.5,4.5c0.5,2.3-0.2,4.3-2,6
			c0-2.9-0.9-5.4-2.5-7.5c-4.8-1.3-7.2,0.5-7,5.5c-2.7,0.1-3.4-0.9-2-3c-1.2-0.9-2.5-1.3-4-1c0.5,4,1.1,8,2,12c0.3,3.5-1.1,6.2-4,8
			c-0.3-0.3-0.7-0.7-1-1c2.6-4.1,2.6-8.3,0-12.5c-2.6-0.8-5-0.3-7,1.5c0.1-1.7-0.2-3.5-1-5.5c-5.8-1.9-7.8-0.1-6,5.5
			c0,1.5-0.6,2.5-2,3c0.4-2.2-0.1-4.5-1.5-7c-1.5-1.2-3-1.2-4.5,0c-0.8-5.3-3.7-7-8.5-5c-1.9,5.2-4.5,9.8-8,14
			c1.4-3.5,0.3-5.9-3.5-7c-2.5,3.1-2.5,6.2,0,9.5c-2,4.5-3,4-3-1.5c-3.5,0.5-5.9,2.5-7,6c-4.1-0.3-7.8-1.6-11-4c0-18.7,0-37.3,0-56
			c3.1,0,6.1-0.5,9-1.5c8.1-4,16.5-7.7,25-11c5-3.2,9.7-6.9,14-11c-3,0.4-6,1.1-9,2c-1.2,0.5-2,1.3-2.5,2.5c-0.6-0.5-1.2-0.9-2-1
			c-11.4,1.8-22.9,2.4-34.5,2c0-3.7,0-7.3,0-11c17.5,9.1,35.2,9.3,53,0.5c5.8-4.8,11.3-10,16.5-15.5c6.3-7.7,12.5-15.6,18.5-23.5
			c14.7-8.1,27.7-18.4,39-31C134.4,65.6,142.4,61.4,150.5,57.5z"/>
	</g>
	<g>
		<path class="st3" d="M-0.5,168.5c0-2,0-4,0-6c26.5-2.3,26.5-3.3,0-3c0-3,0-6,0-9c11.6,0.4,23.1-0.2,34.5-2c0.8,0.1,1.4,0.5,2,1
			c0.5-1.2,1.3-2,2.5-2.5c3-0.9,6-1.6,9-2c-4.3,4.1-9,7.8-14,11c-8.5,3.3-16.9,7-25,11C5.6,168,2.6,168.5-0.5,168.5z"/>
	</g>
	<g>
		<path class="st4" d="M-0.5,159.5c26.5-0.3,26.5,0.7,0,3C-0.5,161.5-0.5,160.5-0.5,159.5z"/>
	</g>
	<g>
		<path class="st5" d="M333.5,162c-0.3,3,1,4.3,4,4c6.4,2.8,7.9,7.1,4.5,13c-1.3-1.5-2.3-3.2-3-5c-0.7-0.6-1.6-0.9-2.5-1
			c-2.5,2.3-5,4.6-7.5,7c-1.5-0.7-2.7-1.7-3.5-3c0.8-1.6,1.1-3.2,1-5c-3,0.5-6,0.8-9,1c-0.3-1.5,0.1-2.8,1-4c3.6-1.6,4.7-4.2,3.5-8
			c-2.8-0.8-5.6-0.8-8.5,0c0.2-2.3,0.9-4.4,2-6.5c0.1-1.7-0.6-3-2-4c-1.8,1.6-4,3.1-6.5,4.5c-1.1-0.1-1.9-0.6-2.5-1.5
			c4-2.7,4-5.3,0-8c-0.3-0.1-1.9-0.9-3.7-0.1c-1.6,0.8-2.6,2.6-2.5,4.6c-0.1-0.1-1.5-1.2-1.3-3c0.1-1.6,1.3-2.4,1.4-2.6
			c5.8-3.3,9.3-1.5,10.5,5.5c2.2-2.2,4.7-2.5,7.5-1c0.4,1,0.8,2.3,1,4c0.1,1.3,0.1,2.4,0,3.3c0.4,0.1,4.3,0.6,6.3,4.3
			c1.4,2.6,1.3,5.9-0.3,8.5c3.4-0.4,6.2,0.6,8.5,3c0.6-0.4,3.1-1.7,6.1-1c1.3,0.3,2.3,0.9,2.9,1.4c-0.7-0.6-1.8-1.4-3.3-2.1
			c-2.1-0.9-3.9-1-5-1c-0.3-1.1-0.7-3.1,0-5.3C332.9,163.3,333.2,162.6,333.5,162z"/>
	</g>
	<g>
		<path class="st0" d="M172.5,151.5c0,1,0,2,0,3c-2,5.4,0,8.7,6,10c4.9-2,9.3-4.6,13-8c6.9,1.1,7.2,2.4,1,4c3.3,0.5,6.6,0.7,10,0.5
			c3,0.5,5.4,2,7,4.5c-0.3,0.3-0.7,0.7-1,1c-4-4.9-8-5-12-0.5c1.6,2.9,1.3,5.4-1,7.5c2.5,1.1,5.1,1.3,8,0.5c3.8-3.4,7.4-3.2,11,0.5
			c5.4-2.9,10.5-2.5,15.5,1c0.7,4.5,0.2,4.8-1.5,1c-2.6-1.2-5.3-1.3-8-0.5c-1.6,2.8-0.9,5,2,6.5c1.2,2.7,1.2,5.3,0,8
			c-1-1.9-1.3-3.9-1-6c-7.4-2-12,0.7-14,8c-0.9-0.8-1.2-1.8-1-3c-1.3,0-2.7,0-4,0c-0.2,1.4,0,2.7,0.5,4c7.9,2.2,10.1,6.8,6.5,14
			c-0.3-0.3-0.7-0.7-1-1c1.3-2.2,1.3-4.4,0-6.5c-2.9-1.1-5.9-1.6-9-1.5c0.9,4.4-0.6,7.7-4.5,10c0.6-1.8,1.1-3.8,1.5-6
			c0.3-3.8-1.4-5.3-5-4.5c-1.9,2.6-4.2,3.5-7,2.5c1.9-2.4,2.4-5,1.5-8c-0.8-1.3-2-2-3.5-2c-2.3,1.3-4.6,2.6-7,4
			c-0.3-0.3-0.7-0.7-1-1c3.1-2.4,3.7-5.4,2-9c-2.3-0.7-4.5-1.7-6.5-3c-0.9,0.2-1.7,0.6-2.5,1c-0.6,3-1.6,5.8-3,8.5
			c-0.8,0.7-1.5,0.5-2-0.5c1.2-4.9-0.6-6.6-5.5-5c-0.2,5.2-2.7,8-7.5,8.5c-0.5-0.4-0.8-0.9-1-1.5c1.2-0.9,2.5-1.3,4-1
			c0.9-5.4-1.1-7.1-6-5c-0.9-0.8-1.2-1.8-1-3c-2.3-0.3-4.5,0.1-6.5,1c-1,4.6-0.5,8.9,1.5,13c3.9,0.5,7.4,1.9,10.5,4
			c3.6-1.2,6.9-2.9,10-5c5.6,1.4,6.8,4.4,3.5,9c0.8,1.6,1.1,3.2,1,5c5.3-0.9,9.8,0.4,13.5,4c0.8,2.1,0.6,4.1-0.5,6
			c-0.7-2.6-1.7-5.1-3-7.5c-2.1-0.7-4.1-0.5-6,0.5c-0.5,3.6-1.5,6.9-3,10c1.5,3.5,1.3,6.8-0.5,10c0.4-5.5-1.9-9.2-7-11
			c-0.8,0.1-1.4,0.5-2,1c-1.3,5-0.3,9.3,3,13c1.1,3.9,0.3,7.3-2.5,10c-0.1-2.8-0.2-5.8-0.5-9c-1.9-2.4-4.4-3.7-7.5-4
			c-2.8,2-5.2,4.5-7,7.5c-0.8,0.7-1.5,0.5-2-0.5c3.7-3.5,4.4-7.3,2-11.5c-2.8-0.2-5.5,0.1-8,1c5.8-4.9,5.1-7.3-2-7
			c2.7-2.3,2.7-4.7,0-7c-2.6,0.1-5.3,0.4-8,1c-1.8,3.6-3.1,7.4-4,11.5c-1,0.5-1.8,1.1-2.5,2c0.3-2.9,0.5-5.9,0.5-9
			c-3.7-0.2-7.3-0.6-11-1c0.8,2.6,0.9,5.3,0.5,8c-0.3,0.3-0.7,0.7-1,1c-0.1-2.9-1.6-4.3-4.5-4c-0.2,2.5,0.5,4.6,2,6.5
			c-0.8,2.1-1.1,4.3-1,6.5c-2.2-0.2-3.8,0.6-5,2.5c-2.3,0.7-4.7,0.7-7,0c-1.2-0.9-1.2-1.7,0-2.5c5.3,2.2,8.1,0.5,8.5-5
			c-1.2-1.4-2.7-2.2-4.5-2.5c-3.3-0.5-6.7-0.7-10-0.5c-0.2-1.2,0.1-2.2,1-3c8.6,2.9,10.9,0.4,7-7.5c-2-0.3-4-0.7-6-1
			c-1.8-1.1-2.7-2.6-2.5-4.5c1.9,2.7,4.4,3.5,7.5,2.5c2.4-2.5,4-5.3,5-8.5c-2,0.2-4,0-6-0.5c2.5-0.9,4.5-2.4,6-4.5
			c-0.5-1.2-1.2-2.4-2-3.5c-2.4-0.2-4.7-0.7-7-1.5c1.5-0.7,3-1.4,4.5-2c0.7-3.3,0.7-6.7,0-10c-1,3.4-3.2,4.5-6.5,3.5
			c0.9-0.5,1.9-0.6,3-0.5c-0.5-2.8-2.2-4.4-5-5c0.9-2.4,2.4-4.4,4.5-6c1.5,0.8,3,1,4.5,0.5c-1.7-2.2-2.8-4.7-3.5-7.5
			c-0.7,1.5-1.9,2.1-3.5,2c0-1.3,0-2.7,0-4c1.8,0.3,3.5,0,5-1c-3.3-1.1-6.4-0.7-9.5,1c-0.3-1.4,0-2.7,1-4c0.3,0.3,0.7,0.7,1,1
			c1.1-1.1,2.2-2.1,3.5-3c-4.9-2.5-4.9-4.2,0-5c-0.1,1.1,0,2.1,0.5,3c0.7-1.1,1.7-1.7,3-2c1.5,0.5,3,0.9,4.5,1
			c-1.5,1.1-2.3,2.4-2.5,4c0.9,0.8,1.6,1.8,2,3c3.1-0.7,5.7,0.3,8,3c0.5,1.2,0,2.1-1.5,2.5c1.7,1.8,2.8,4,3.5,6.5
			c2.2-2.2,4.7-2.5,7.5-1c2-0.7,4-1.3,6-2c2,1.2,3.8,2.5,5.5,4c0.5-0.3,1-0.7,1.5-1c-1.1-1.1-1.1-2.1,0-3c1.8,1.9,3.8,1.7,6-0.5
			c-1.3-0.7-1.3-1.3,0-2c1.4-0.2,2.8-0.7,4-1.5c-3.9-2-3.9-3.8,0-5.5c-1.5-0.3-2.9-1-4-2c-5.6-1.7-8.1,0.2-7.5,5.5
			c-1.1-0.8-2.3-1.5-3.5-2c-1.3,2.2-1.3,4.4,0,6.5c-3.7,0.7-7.3,0.7-11,0c1.4-1.2,2.2-2.7,2.5-4.5c0.2,1.1,0.7,2.1,1.5,3
			c0.8-2.6,2.5-4.5,5-5.5c-4.2,0.3-6.7-1.5-7.5-5.5c-1,1-2.2,1.2-3.5,0.5c-0.9-1.7-1.2-3.5-1-5.5c3.8,0.2,7.5,1.1,11,2.5
			c-0.9,0.5-1.9,0.6-3,0.5c0,1.3,0,2.7,0,4c2.1,0,3.9,0.6,5.5,2c1.3-1.4,1.8-3.1,1.5-5c2.5-0.7,4.7-2,6.5-4c0.4-1.2,0.2-2.3-0.5-3.5
			c1.9-1.7,2.9-3.9,3-6.5c2,0.2,3.8-0.1,5.5-1c3.8,1.9,7,3.5,9.5,5c1-0.2,2-0.3,3-0.5c-0.8-1-1.2-2.2-1-3.5c2.3,0.3,4.5-0.1,6.5-1
			c0.3,1.2-0.2,2.2-1.5,3c0.5,0.3,1,0.7,1.5,1c1.2-1,2.3-2,3.5-3c0.8,0.9,1.8,1.6,3,2c1.5-0.7,2.9-1.7,4-3c1.7,2,3,4.4,4,7
			c0.3-0.7,0.7-1.3,1-2C170.5,152.8,171.5,152.8,172.5,151.5z"/>
	</g>
	<g>
		<path class="st6" d="M195.5,173.5c-3.5-0.9-4.8-3.3-4-7c1.3-0.2,2.5,0.2,3.5,1C195.5,169.5,195.7,171.5,195.5,173.5z"/>
	</g>
	<g>
		<path class="st7" d="M245.5,157.5c-1.4,11.5-3.1,23-5,34.5c1.8,8.9,3.9,17.7,6.5,26.5c7.3,12.8,14.3,25.8,21,39
			c6.7,5.2,12.6,11.2,17.5,18c-1.2,0.3-1.2,0.8,0,1.5c-2.3,0.7-4.7,0.7-7,0c-9-4.7-17.2-10.5-24.5-17.5
			c-5.6-6.6-10.7-13.4-15.5-20.5c-10.7-0.4-20-4-28-11c-2.7-0.7-5.3-0.7-8,0c-5.4,4.9-9.4,10.7-12,17.5c-10.1,7.2-19.1,15.7-27,25.5
			c-5.9,3.4-12.3,5.4-19,6c-5.3,5.1-10.9,9.6-17,13.5c-0.7-1.9-0.4-3.9,1-6c3.3,1.3,3.7,0.8,1-1.5c2.3,0.8,4.2-0.1,5.5-2.5
			c1,1.2,1.5,0.9,1.5-1c-1.1-1.7-1.2-3.3-0.5-5c-0.6,0.5-1.2,0.9-2,1c-1.9-1.5-4-2.2-6.5-2c0.1-3.6,0.1-6.9,0-10c-1.3,1-2.7,2-4,3
			c0.9,0.8,1.6,1.8,2,3c-3.6,6.8-8.3,7.6-14,2.5c1.3-3,1.3-6,0-9c2.7-3,2.2-5.5-1.5-7.5c-3,0-6.1,0.2-9.5,0.5c0.3,0.3,0.7,0.7,1,1
			c-1.6,0.7-3.1,1.5-4.5,2.5c-0.4,2.5-1.2,4.8-2.5,7c-0.9,1.1-1.8,1.1-2.5,0c-0.3,0.7-0.7,1.3-1,2c-4.7-4-4.7-8,0-12
			c-0.9-3.9-3.6-6.2-8-7c-0.5,0.3-1,0.7-1.5,1c1.3,1.3,2.7,2.7,4,4c-2.1,1.3-4.1,1.2-6-0.5c0.1-1.9,0.4-3.9,1-6
			c-2.5-3.6-1.8-6.7,2-9.5c-2.7-2.1-5.7-3.4-9-4c-1.8-1.8-3-3.5-3.5-5c-2.3,0.5-4.1,1.7-5.5,3.5c0.2,0.5,0.3,1,0.5,1.5
			c0.7-1.3,1.3-1.3,2,0c0.5,0.9,0.6,1.9,0.5,3c1.3,0.2,2.5-0.2,3.5-1c0.4,2,1.3,3.8,2.5,5.5c-0.8,1.2-1.8,2.2-3,3c1,0.3,2,0.7,3,1
			c-0.9,0.3-1.6,0.8-2,1.5c-6.5-4.7-13.5-5.3-21-2c-4.8-0.6-6.6-3.2-5.5-8c2.5-3.9,4.9-3.9,7,0c0.7-1.3,0.7-2.7,0-4
			c-4.3-1.7-8.5-3.9-12.5-6.5c-3-0.7-6-0.7-9,0c-2.9,2.6-6.3,4.5-10,5.5c-2.4-0.3-4.7-0.8-7-1.5c-1.4-0.4-2.4-1.2-3-2.5
			c1.1-3.5,3.5-5.5,7-6c0,5.5,1,6,3,1.5c-2.5-3.3-2.5-6.4,0-9.5c3.8,1.1,4.9,3.5,3.5,7c3.5-4.2,6.1-8.8,8-14c4.8-2,7.7-0.3,8.5,5
			c1.5-1.2,3-1.2,4.5,0c1.4,2.5,1.9,4.8,1.5,7c1.4-0.5,2-1.5,2-3c-1.8-5.6,0.2-7.4,6-5.5c0.8,2,1.1,3.8,1,5.5c2-1.8,4.4-2.3,7-1.5
			c2.6,4.2,2.6,8.4,0,12.5c0.3,0.3,0.7,0.7,1,1c2.9-1.8,4.3-4.5,4-8c-0.9-4-1.5-8-2-12c1.5-0.3,2.8,0.1,4,1c-1.4,2.1-0.7,3.1,2,3
			c-0.2-5,2.2-6.8,7-5.5c1.6,2.1,2.5,4.6,2.5,7.5c1.8-1.7,2.5-3.7,2-6c-1.5-1.2-2.7-2.7-3.5-4.5c-2.5-0.9-4.8-2.1-7-3.5
			c-0.8,0.4-1.6,0.8-2.5,1c-3.4-1.5-5.4-4.2-6-8c-3.2-0.8-4.7-2.8-4.5-6c2.8,0.1,4.8,1.4,6,4c0.7-2.3,0.5-4.6-0.5-7
			c-2.6,1.4-5.1,1.3-7.5-0.5c2.2-2.6,4.9-4.4,8-5.5c4.1,2.9,8.6,5.2,13.5,7c0.4,1.8-0.2,3.1-2,4c-1-0.5-1.8-1.2-2.5-2
			c-1.2,1.5-0.9,2.7,1,3.5c4.5,0.1,7.5-2.1,9-6.5c2.8,0.6,4.5,2.2,5,5c-1.1-0.1-2.1,0-3,0.5c3.3,1,5.5-0.1,6.5-3.5
			c0.7,3.3,0.7,6.7,0,10c-1.5,0.6-3,1.3-4.5,2c2.3,0.8,4.6,1.3,7,1.5c0.8,1.1,1.5,2.3,2,3.5c-1.5,2.1-3.5,3.6-6,4.5
			c2,0.5,4,0.7,6,0.5c-1,3.2-2.6,6-5,8.5c-3.1,1-5.6,0.2-7.5-2.5c-0.2,1.9,0.7,3.4,2.5,4.5c2,0.3,4,0.7,6,1c3.9,7.9,1.6,10.4-7,7.5
			c-0.9,0.8-1.2,1.8-1,3c3.3-0.2,6.7,0,10,0.5c1.8,0.3,3.3,1.1,4.5,2.5c-0.4,5.5-3.2,7.2-8.5,5c-1.2,0.8-1.2,1.6,0,2.5
			c2.3,0.7,4.7,0.7,7,0c1.2-1.9,2.8-2.7,5-2.5c-0.1-2.2,0.2-4.4,1-6.5c-1.5-1.9-2.2-4-2-6.5c2.9-0.3,4.4,1.1,4.5,4
			c0.3-0.3,0.7-0.7,1-1c0.4-2.7,0.3-5.4-0.5-8c3.7,0.4,7.3,0.8,11,1c0,3.1-0.2,6.1-0.5,9c0.7-0.9,1.5-1.5,2.5-2
			c0.9-4.1,2.2-7.9,4-11.5c2.7-0.6,5.4-0.9,8-1c2.7,2.3,2.7,4.7,0,7c7.1-0.3,7.8,2.1,2,7c2.5-0.9,5.2-1.2,8-1c2.4,4.2,1.7,8-2,11.5
			c0.5,1,1.2,1.2,2,0.5c1.8-3,4.2-5.5,7-7.5c3.1,0.3,5.6,1.6,7.5,4c0.3,3.2,0.4,6.2,0.5,9c2.8-2.7,3.6-6.1,2.5-10
			c-3.3-3.7-4.3-8-3-13c0.6-0.5,1.2-0.9,2-1c5.1,1.8,7.4,5.5,7,11c1.8-3.2,2-6.5,0.5-10c1.5-3.1,2.5-6.4,3-10c1.9-1,3.9-1.2,6-0.5
			c1.3,2.4,2.3,4.9,3,7.5c1.1-1.9,1.3-3.9,0.5-6c-3.7-3.6-8.2-4.9-13.5-4c0.1-1.8-0.2-3.4-1-5c3.3-4.6,2.1-7.6-3.5-9
			c-3.1,2.1-6.4,3.8-10,5c-3.1-2.1-6.6-3.5-10.5-4c-2-4.1-2.5-8.4-1.5-13c2-0.9,4.2-1.3,6.5-1c-0.2,1.2,0.1,2.2,1,3
			c4.9-2.1,6.9-0.4,6,5c-1.5-0.3-2.8,0.1-4,1c0.2,0.6,0.5,1.1,1,1.5c4.8-0.5,7.3-3.3,7.5-8.5c4.9-1.6,6.7,0.1,5.5,5
			c0.5,1,1.2,1.2,2,0.5c1.4-2.7,2.4-5.5,3-8.5c0.8-0.4,1.6-0.8,2.5-1c2,1.3,4.2,2.3,6.5,3c1.7,3.6,1.1,6.6-2,9c0.3,0.3,0.7,0.7,1,1
			c2.4-1.4,4.7-2.7,7-4c1.5,0,2.7,0.7,3.5,2c0.9,3,0.4,5.6-1.5,8c2.8,1,5.1,0.1,7-2.5c3.6-0.8,5.3,0.7,5,4.5c-0.4,2.2-0.9,4.2-1.5,6
			c3.9-2.3,5.4-5.6,4.5-10c3.1-0.1,6.1,0.4,9,1.5c1.3,2.1,1.3,4.3,0,6.5c0.3,0.3,0.7,0.7,1,1c3.6-7.2,1.4-11.8-6.5-14
			c-0.5-1.3-0.7-2.6-0.5-4c1.3,0,2.7,0,4,0c-0.2,1.2,0.1,2.2,1,3c2-7.3,6.6-10,14-8c-0.3,2.1,0,4.1,1,6c1.2-2.7,1.2-5.3,0-8
			c-2.9-1.5-3.6-3.7-2-6.5c2.7-0.8,5.4-0.7,8,0.5c1.7,3.8,2.2,3.5,1.5-1c-5-3.5-10.1-3.9-15.5-1c-3.6-3.7-7.2-3.9-11-0.5
			c-2.9,0.8-5.5,0.6-8-0.5c2.3-2.1,2.6-4.6,1-7.5c4-4.5,8-4.4,12,0.5c0.3-0.3,0.7-0.7,1-1c-1.6-2.5-4-4-7-4.5c-3.4,0.2-6.7,0-10-0.5
			c6.2-1.6,5.9-2.9-1-4c-0.1-0.6-0.4-1.1-1-1.5c1.4-0.4,2.7-0.9,4-1.5c0.7,0.5,1.2,1.2,1.5,2c1.6-1.2,2.9-0.9,4,1
			c1-0.8,2.2-1.2,3.5-1c0,1.3,0,2.7,0,4c4.3,0.1,7.5,2.1,9.5,6c0.3-0.3,0.7-0.7,1-1c1.1,2,2,3.7,2.5,5c1.9,0.2,3.9-0.2,6-1
			c1.5,0,2.7,0.7,3.5,2c0.4-1.2,1.1-2.2,2-3c1.2,1.5,2,1.3,2.5-0.5c-0.8-2.3-1.1-4.4-1-6.5c0.3-0.3,0.7-0.7,1-1c0.9,1.2,1.3,2.5,1,4
			c1.7,0,3.3,0,5,0c-0.2,1.3,0.2,2.5,1,3.5c-2.7,2.2-2.3,4.1,1,5.5c-0.3,0.7-0.7,1.3-1,2c1.4,1.4,2.2,3.1,2.5,5
			c1.2-5.6,1.9-11.2,2-17C242.2,160.1,243.4,158.5,245.5,157.5z"/>
	</g>
	<g>
		<path class="st8" d="M163.5,215.5c1,0,2,0,3,0c0.3,2.2-0.2,4.2-1.5,6C162.4,220,161.9,218,163.5,215.5z"/>
	</g>
	<g>
		<path class="st9" d="M127.5,290.5c-6.3,3.6-12.9,6.1-20,7.5c-3.1,0.6-6.1,0.5-9-0.5c-12-1-23.6,0.8-35,5.5c-10,1.3-20,1.6-30,1
			c-5.3-2.5-10.1-5.7-14.5-9.5c-2.3-4-4.7-8-7-12c-0.7-2.7-0.7-5.3,0-8c3-4.1,6.8-5.8,11.5-5c2.2,3.6,1.9,7.1-1,10.5
			c0.3,0.2,0.7,0.3,1,0.5c2.5-2.7,4.8-5.5,7-8.5c3-0.5,6-0.7,9-0.5c0.1,1.8-0.2,3.4-1,5c0.3,0.3,0.7,0.7,1,1c1.9-2.6,2.9-2.1,3,1.5
			c0.1,2.1-0.6,4-2,5.5c0.3,0.3,0.7,0.7,1,1c1.4-1.1,2.6-2.4,3.5-4c0-4,0-8,0-12c1.1-1.2,2.3-1.2,3.5,0c1.2-1.9,0.8-3.5-1-5
			c3.1-0.9,5.1,0.4,6,4c-0.7,1-1.3,2-2,3c0.3,0.3,0.7,0.7,1,1c4-2.3,4.7-5.3,2-9c1.7-2.4,3.7-2.6,6-0.5c1.1,1.1,2.1,2.2,3,3.5
			c2.1-3.4,1.1-5.9-3-7.5c-4,0.2-7-1.3-9-4.5c2.7-2.8,4.4-2.1,5,2c1.6-1.7,2.3-3.7,2-6c1,0,2,0,3,0c0.5,3.8,1.5,3.8,3,0
			c-0.3-0.7-0.7-1.3-1-2c3-1.6,5.3-0.9,7,2c0.9-0.8,1.2-1.8,1-3c0.4-0.7,1.1-1.2,2-1.5c-1-0.3-2-0.7-3-1c1.2-0.8,2.2-1.8,3-3
			c-1.2-1.7-2.1-3.5-2.5-5.5c-1,0.8-2.2,1.2-3.5,1c0.1-1.1,0-2.1-0.5-3c-0.7-1.3-1.3-1.3-2,0c-0.2-0.5-0.3-1-0.5-1.5
			c1.4-1.8,3.2-3,5.5-3.5c0.5,1.5,1.7,3.2,3.5,5c3.3,0.6,6.3,1.9,9,4c-3.8,2.8-4.5,5.9-2,9.5c-0.6,2.1-0.9,4.1-1,6
			c1.9,1.7,3.9,1.8,6,0.5c-1.3-1.3-2.7-2.7-4-4c0.5-0.3,1-0.7,1.5-1c4.4,0.8,7.1,3.1,8,7c-4.7,4-4.7,8,0,12c0.3-0.7,0.7-1.3,1-2
			c0.7,1.1,1.6,1.1,2.5,0c1.3-2.2,2.1-4.5,2.5-7c1.4-1,2.9-1.8,4.5-2.5c-0.3-0.3-0.7-0.7-1-1c3.4-0.3,6.5-0.5,9.5-0.5
			c3.7,2,4.2,4.5,1.5,7.5c1.3,3,1.3,6,0,9c5.7,5.1,10.4,4.3,14-2.5c-0.4-1.2-1.1-2.2-2-3c1.3-1,2.7-2,4-3c0.1,3.1,0.1,6.4,0,10
			c2.5-0.2,4.6,0.5,6.5,2c0.8-0.1,1.4-0.5,2-1c-0.7,1.7-0.6,3.3,0.5,5c0,1.9-0.5,2.2-1.5,1c-1.3,2.4-3.2,3.3-5.5,2.5
			c2.7,2.3,2.3,2.8-1,1.5C127.1,286.6,126.8,288.6,127.5,290.5z"/>
	</g>
	<g>
		<path class="st10" d="M285.5,275.5c8,4.5,15,10.3,21,17.5c2.7,2.3,5.7,4.2,9,5.5c-0.1,0.6-0.4,1.1-1,1.5c1.5,1.3,3.2,2.3,5,3
			c5.6,1.3,11.3,2.3,17,3c4,2.7,8.4,4.2,13,4.5c-0.7-0.1-1.4,0-2,0.5c6,3.6,12.5,5.8,19.5,6.5c4.6-2.7,8.7-2.4,12.5,1
			c-2-0.2-4,0-6,0.5c1.5,0.6,2.8,1.4,4,2.5c1.1,1.1,1.1,2.1,0,3c-1.3-1.3-2.7-1.3-4,0c-5.7-5.4-8-4.1-7,4c-1.8,0.7-3.7,1.4-5.5,2
			c-4.9-4-10.4-7-16.5-9c-3.6-2.7-7.3-5.3-11-8c-0.9,2.6-0.7,5.3,0.5,8c8.9,13.2,20,24,33.5,32.5c-1.3,0.2-2.7,0-4-0.5
			c-4.9-3.1-9.9-6.3-15-9.5c-13-11.7-25.4-24-37-37c-3,0-4.1,1.5-3.5,4.5c2.2,1.9,4,4.1,5.5,6.5c6.4,1.2,11.4,4.7,15,10.5
			c-0.2,0.3-0.3,0.7-0.5,1c-3.6-4.4-8.1-7-13.5-8c-0.4,4.6,1,8.6,4,12c-0.3,0.3-0.7,0.7-1,1c-7-9.1-14.3-17.9-22-26.5
			c-1.3-0.5-2.6-0.7-4-0.5c1,4.7,2.5,9,4.5,13c-2.5-3.4-5.7-5.7-9.5-7c-0.1,1.1,0,2.1,0.5,3c6.4,6.3,12.9,12.4,19.5,18.5
			c6.2,4.2,12.9,7.5,20,10c5.5,3.9,11.2,7.6,17,11c-7.4-2-14.7-4.5-22-7.5c-0.3,0.3-0.7,0.7-1,1c1,1.5,2.1,2.8,3.5,4
			c1,1.3,1.3,2.6,1,4c-4.6-6.2-10.8-9.8-18.5-11c-0.2-3.2-1-3.6-2.5-1c-3.3-3.6-7-7-11-10c1.6,4.6,3.6,8.9,6,13
			c-3.7-4.2-7.2-8.5-10.5-13c-2.6-5.3-5.6-10.3-9-15c-1.2,2.6-1.3,5.3-0.5,8c2,2.7,4,5.3,6,8c1,1.3,1.3,2.6,1,4
			c-5.2-5.8-10.3-11.5-15.5-17c-1.8,4.8-0.1,7.6,5,8.5c2.6,1.6,3.8,3.7,3.5,6.5c-1-2-2.3-3.6-4-5c-1.3,2.1-3.1,3.1-5.5,3
			c-0.2,3.6-1.2,6.9-3,10c-0.9-4.4-3.2-7.9-7-10.5c-1.9-0.7-3.4-0.2-4.5,1.5c-0.9-2.8-0.4-5.3,1.5-7.5c2.6-0.8,5.3-1.3,8-1.5
			c-0.6-10.4-5.4-18.1-14.5-23c-0.9,0.4-1.6,1.1-2,2c-0.2,1.7-0.3,3.3-0.5,5c1.8,6.9,2.9,13.9,3.5,21c-2.6-4.2-6.1-7.4-10.5-9.5
			c2.3,0.2,4.6,0.2,7,0c-2.7-2.4-5-5-7-8c-0.9-0.6-1.8-0.5-2.5,0.5c-1.7,6.3-1.7,12.6,0,19c3.2,6,5.9,12.4,8,19
			c3.9,3.2,6.9,7.2,9,12c4,5,8.8,8.8,14.5,11.5c6.7,7.1,14.7,12.1,24,15c17.2,6,34.8,9.8,53,11.5c2.8,0.8,5.8,1.3,9,1.5
			c-2.2,0.6-4.2,1.4-6,2.5c-23,0-46,0-69,0c-2.7-2.7-5.7-5-9-7c-0.9,1.2-1.3,2.5-1,4c-1.1,0.1-2.1,0-3-0.5c-3.5-4.3-7.2-8.5-11-12.5
			c-0.6,0.2-1.1,0.5-1.5,1c-0.3,2.3-0.7,4.7-1,7c-1.7-11.9-7.5-21.3-17.5-28c-0.3,1-0.7,2-1,3c0.6,2.4,1.4,4.7,2.5,7
			c0.7,2.3,0.7,4.7,0,7c-1.5-5.9-4.5-10.9-9-15c-0.9,1.2-1.7,1.2-2.5,0c1.4-6.1-1-9.6-7-10.5c-0.6,0.8-1.1,1.6-1.5,2.5
			c0.2,3,0.7,6,1.5,9c-0.3,1-0.7,2-1,3c-0.9-6.4-4.5-9.9-11-10.5c8.1,1.6,10.6-1.2,7.5-8.5c-1.6-2.8-3.8-3.4-6.5-2
			c-1.2,3.2-2.5,6.4-4,9.5c-1.1,0.7-2.1,0.6-3-0.5c2.4-6.1,0.4-8.3-6-6.5c-3.3,2.7-3.8,5.8-1.5,9.5c2.3,2.4,4.5,4.9,6.5,7.5
			c3,0.3,6,0.7,9,1c3.3,3.4,7.2,5.9,11.5,7.5c1.6,3.2,3.4,6.2,5.5,9c-0.5,1-1.2,1.2-2,0.5c-1.7-3.5-4.4-4.3-8-2.5c1.4,1.4,2.1,3,2,5
			c3.1,0.4,6.1,1,9,2c2.3-0.7,4.7-0.8,7-0.5c3.7,6,9,9.2,16,9.5c-25.7,0-51.3,0-77,0c0.1-7.2-3.2-10.5-10-10c-1,3.3-1.3,6.6-1,10
			c-0.7,0-1.3,0-2,0c0.4-6.3-2.3-8.3-8-6c0,2,0,4,0,6c-1,0-2,0-3,0c-0.6-1.9-1-3.9-1-6c-5.1,0.5-10.1,0.5-15,0c-0.2-1.2,0.1-2.2,1-3
			c3.1,1.6,5.9,1.2,8.5-1c0.2-3,1.4-5.5,3.5-7.5c-2.4-0.2-4.7-0.7-7-1.5c1.6-0.8,3.3-1.5,5-2c2.7-6.4,0.9-10.4-5.5-12
			c-2.1,2.4-4.6,3.9-7.5,4.5c-0.3-0.3-0.7-0.7-1-1c4.1-1.5,5.4-4.3,4-8.5c-2.1-2.5-4.1-2.5-6,0c-2.2-5.4-6.1-7-11.5-5
			c-0.3,3.7-0.7,7.3-1,11c-0.7,2.7-2.2,3.4-4.5,2c3.3-4.9,2-7.9-4-9c-1.8,0.9-3.1,2.2-4,4c-0.4-1.1-0.4-2.4,0-4
			c-3.2,0.4-6.4,1.1-9.5,2c-0.7,1-0.7,2,0,3c4.1,3.4,4.4,7,1,11c-0.3-2.4-0.8-4.7-1.5-7c-1.6-1.1-3.2-1.3-5-0.5
			c-2.4,1.8-5,2.9-8,3.5c-1.3-0.7-1.3-1.3,0-2c1.2-0.7,2.6-1.1,4-1c0-2.7,0-5.3,0-8c-3,0.2-6,0-9-0.5c-1.2-0.9-1.2-1.7,0-2.5
			c1.6,0.8,3.2,1.1,5,1c-0.2-1.6,0.1-3.1,1-4.5c13.8,2.9,20.4-2.9,20-17.5c0.8-3.7-0.5-5.8-4-6.5c2.5-5.6,0.8-7.9-5-7
			c-2.2,2-3.2,4.5-3,7.5c1.8-0.3,3.2,0.4,4,2c-0.7,2.3-1.2,4.6-1.5,7c-1.1,1.5-2.6,2.2-4.5,2c0-2,0-4,0-6c-1.7,0-3.3,0-5,0
			c0.1,4.2-0.7,8.2-2.5,12c-1.9,2.1-4.1,2.4-6.5,1c0.8-0.9,1.8-1.2,3-1c0-2.3,0-4.7,0-7c-3.6-0.5-7,0.2-10,2c-0.7-2.5-1.3-4.8-2-7
			c-2.1-0.8-2.3-1.8-0.5-3c1,1.2,2.2,2.2,3.5,3c2.6-0.7,5.3-0.7,8,0c1.8-0.1,3.3-0.8,4.5-2c0.3,0.3,0.7,0.7,1,1c0.5-1.7,1.1-3.4,2-5
			c1.7,0.2,3.2-0.6,4.5-2.5c-3.8-4.5-3.8-9.2,0-14c-0.8-1.2-1.7-2.3-2.5-3.5c-1.1,2.5-1.8,5.2-2,8c-1-1-2-2-3-3
			c-0.6,2.5-1.5,2.5-2.5,0c-1.1,1.1-2.1,1.1-3,0c1.6-2.1,2.8-4.4,3.5-7c0.7,0.7,1.3,1.3,2,2c3-6.6,5.5-6.6,7.5,0
			c5.1-1.3,5.8-3.7,2-7c-1.9-0.8-3.9-1.3-6-1.5c4.2-1.8,8.5-1.9,13-0.5c-0.2,0.6-0.5,1.1-1,1.5c2.6,2.3,5.4,4.1,8.5,5.5
			c0.9-1.8,2.1-3.5,3.5-5c-1.9-0.8-3.9-1.3-6-1.5c1.3-1.8,1-3.3-1-4.5c1.8-4.4,4.5-4.6,8-0.5c-2.8,2.2-2.6,2.7,0.5,1.5
			c0.3,0.8,0.8,1.5,1.5,2c0.5-2.8,1.5-5.3,3-7.5c-8.9-2.7-17.9-3.9-27-3.5c3.9-1,7.9-1.3,12-1c2.9,1,5.9,1.1,9,0.5
			c7.1-1.4,13.7-3.9,20-7.5c6.1-3.9,11.7-8.4,17-13.5c6.7-0.6,13.1-2.6,19-6c7.9-9.8,16.9-18.3,27-25.5c2.6-6.8,6.6-12.6,12-17.5
			c2.7-0.7,5.3-0.7,8,0c8,7,17.3,10.6,28,11c4.8,7.1,9.9,13.9,15.5,20.5c7.3,7,15.5,12.8,24.5,17.5c2.3,0.7,4.7,0.7,7,0
			C284.3,276.3,284.3,275.8,285.5,275.5z"/>
	</g>
	<g>
		<path class="st11" d="M608.5,212.5c0,16.7,0,33.3,0,50c-15,7.1-30,14.2-45,21.5c-3,0.5-6,1.2-9,2c-4.8,5.6-10.1,6.4-16,2.5
			c-3.9-1.3-7.9-2.2-12-2.5c-1.7-2-3.3-4-5-6c0.5-0.7,1.2-1.2,2-1.5c2.1,2.3,4.6,4,7.5,5c0.7-1,0.7-2,0-3c-2.3-1.2-2.7-2.5-1-4
			c4,2.7,7.6,5.7,11,9c0.7-1,0.7-2,0-3c-2.3-1.3-2.8-2.9-1.5-5c5.5,2.3,11.1,3.2,17,2.5c-6.7-0.9-12-4-16-9.5c2.1-4.7,5.1-5.2,9-1.5
			c7.9,8.9,8.7,8.4,2.5-1.5c-0.5-0.9-0.6-1.9-0.5-3c3.4,0.5,6.4,1.8,9,4c0.3-0.3,0.7-0.7,1-1c-3.2-2.7-4.3-6-3.5-10
			c1.7-1.1,3.6-1.2,5.5-0.5c5.3,4.9,6.3,4.1,3-2.5c5,0.8,9.1,3.1,12.5,7c-0.8-3.9-3-7-6.5-9.5c1.5,0.3,2.8,0.1,4-0.5
			c-1.8-1.2-2.8-2.9-3-5c2.8-0.2,4.5,1.2,5,4c7-1.6,12.8,0.4,17.5,6c0-1.8-0.7-3.4-2-5c-3.3-2.1-6.1-4.8-8.5-8c0.5-0.3,1-0.7,1.5-1
			c2.5,0.9,5,1.4,7.5,1.5c-4.6-2.4-6.2-6.3-5-11.5c2.4,0.6,4.7,1.1,7,1.5c-2.2-2.7-4.2-5.5-6-8.5c0.5-1.4,1.5-2,3-2
			c3.3,2.1,6.4,4.4,9.5,7c-0.9-3.4-2-6.7-3.5-10c3-0.2,5.5,0.8,7.5,3c-1-3.6-1.8-7.2-2.5-11C605.8,212.5,607.2,212.5,608.5,212.5z"
			/>
	</g>
	<g>
		<path class="st12" d="M431.6,295.2c-2.9,1.7-6.3,2.8-10,3.5c-3,0.5-6,0.7-9,0.5v-3h-7c0.1,1.1,0,2.1-0.5,3l-5-5
			c-0.3,0.7-0.7,1.3-1,2c-0.6-4.1-1.8-4.6-3.5-1.5c0.3,1.4,1,2.5,2,3.5c-0.5,0.6-0.4,0.4-0.9,1.1c-1.3-0.8-2.3-1.8-3.1-3.1
			c-0.9,1.2-1.3,2.5-1,4c-1.8,0.3-3.5,0-5-1c-1.3-2.9-2.3-5.9-3-9c-1.3,2-2.7,4-4,6c0.4-2.4-0.3-4.7-2-7c-3.2,0.9-5.9,2.6-8,5
			c1.1,1.1,1.1,2.1,0,3c-1.6-0.8-2.3-2.2-2-4c-3,0.8-6,1-9,0.5c-0.8-0.7-1.1-1.5-1-2.5c4.9-5,10.2-9.5,16-13.5c3.7-3.4,7-7,10-11
			c2.9-1.5,5.9-1.8,9-1c8.5,12.1,19.1,21.8,32,29C427.6,295.2,429.6,295.3,431.6,295.2z"/>
	</g>
	<g>
		<path class="st13" d="M553.5,212.5c1.5,3.2,1,6.2-1.5,9c-7,7.4-13.6,15-19.8,23c-31.7,34.4-70.4,56.6-116.3,66.5
			c-6.9,1-13.8,1.5-20.8,1.5c-2.3,0.2-4.6,0-6.9-0.5c-2.2,0.5-6.7,1.3-11.9-0.3c-9.1-2.8-13.1-10.7-13.8-12.2
			c1.6,6.7,2.3,10.1,2,10.2c-0.3,0.1-1.4-3-3.5-9.2c-2.5,6.8-4.5,7.2-5.2,7.2c-4,0-6.8-13.4-7.1-15.2c-2.6,5-5.9,7.4-7.9,8.5
			c-9.6,5.4-24.3,1.6-36-10c5.7-3.2,20.1-10.1,37.8-7.2c6,1,14.5,4.8,18.4,6.7c-0.1,1-3.2-0.2-2.4,0.5c3,0.5,6,0.3,8.9-0.5
			c-0.3,1.8,0.4,3.2,2,4c1.1-0.9,1.1-1.9,0-3c2.1-2.4,4.7-4.1,7.9-5c1.7,2.3,2.3,4.6,2,7c1.3-2,2.6-4,4-6c0.7,3.1,1.7,6.1,3,9
			c1.5,1,3.2,1.3,4.9,1c-0.3-1.5,0.1-2.8,1-4c0.8,1.2,1.8,2.2,3,3c0.3-0.3,0.7-0.7,1-1c-1-1-1.6-2.1-2-3.5c1.7-3.1,2.8-2.6,3.5,1.5
			c0.3-0.7,0.7-1.3,1-2c1.6,1.7,3.3,3.3,4.9,5c0.5-0.9,0.6-1.9,0.5-3c2.3,0,4.6,0,6.9,0c0,1,0,2,0,3c3,0.2,6,0,8.9-0.5
			c3.7-0.7,7-1.8,9.9-3.5c3.4,0.2,6.7-0.3,9.9-1.5c0.6-2.9,2.2-4.9,4.9-6c4.6-1.5,9.3-2.1,13.9-2c1.2-3.3,2.5-6.5,4-9.5
			c0.5,4,2.7,6.7,6.4,8c4.5-2,9-4.2,13.4-6.5c1.3-4.5,2.8-9,4.5-13.5c1.9-2.3,4.4-3.6,7.4-4c1.1-1.3,1.1-2.6,0-4
			c0.5-1.2,1.2-2.4,2-3.5c3-0.8,5.3-2.4,6.9-5c3.2-0.1,5.5-1.6,6.9-4.5c4.3-2.8,8.9-5.2,13.9-7c1.4-2.7,3.1-5.5,5.1-8.4
			c2.3-3.4,4.6-6.4,6.8-9.1c5.8-2.9,11.6-2.7,14.6,0.4c1.2,1.2,2.6,3.7,1.8,5.1c-1.4,2.3-8.6,0.4-14.3-1.5c1.5-0.8,3.2-0.5,4.1,0.7
			c1.1,1.3,0.9,3.6-0.7,4.8C545.7,221.6,549.8,217.2,553.5,212.5z M533.7,223.5c2.2,0.8,3.8,2.3,4.9,4.5c-2.2,1.2-4.5,1.7-6.9,1.5
			C531.9,227.3,532.6,225.3,533.7,223.5z"/>
	</g>
	<g>
		<path class="st14" d="M583.5,282.5c0.4-0.1,0.8,0.1,1,0.5c-6.8,6.6-13.8,12.9-21,19c-3.5,1.3-7.2,1.8-11,1.5c-1.4,0.1-2.8-0.3-4-1
			c-1.3-0.7-1.3-1.3,0-2c5.7-2,11.3-4,17-6c-3.8-1.4-3.8-2.9,0-4.5C571.2,286.7,577.2,284.2,583.5,282.5z"/>
	</g>
	<g>
		<path class="st15" d="M-0.5,224.5c3.2,2.4,6.9,3.7,11,4c0.6,1.3,1.6,2.1,3,2.5c2.3,0.7,4.6,1.2,7,1.5c3.7-1,7.1-2.9,10-5.5
			c3-0.7,6-0.7,9,0c4,2.6,8.2,4.8,12.5,6.5c0.7,1.3,0.7,2.7,0,4c-2.1-3.9-4.5-3.9-7,0c-1.1,4.8,0.7,7.4,5.5,8c7.5-3.3,14.5-2.7,21,2
			c0.2,1.2-0.1,2.2-1,3c-1.7-2.9-4-3.6-7-2c0.3,0.7,0.7,1.3,1,2c-1.5,3.8-2.5,3.8-3,0c-1,0-2,0-3,0c0.3,2.3-0.4,4.3-2,6
			c-0.6-4.1-2.3-4.8-5-2c2,3.2,5,4.7,9,4.5c4.1,1.6,5.1,4.1,3,7.5c-0.9-1.3-1.9-2.4-3-3.5c-2.3-2.1-4.3-1.9-6,0.5c2.7,3.7,2,6.7-2,9
			c-0.3-0.3-0.7-0.7-1-1c0.7-1,1.3-2,2-3c-0.9-3.6-2.9-4.9-6-4c1.8,1.5,2.2,3.1,1,5c-1.2-1.2-2.4-1.2-3.5,0c0,4,0,8,0,12
			c-0.9,1.6-2.1,2.9-3.5,4c-0.3-0.3-0.7-0.7-1-1c1.4-1.5,2.1-3.4,2-5.5c-0.1-3.6-1.1-4.1-3-1.5c-0.3-0.3-0.7-0.7-1-1
			c0.8-1.6,1.1-3.2,1-5c-3-0.2-6,0-9,0.5c-2.2,3-4.5,5.8-7,8.5c-0.3-0.2-0.7-0.3-1-0.5c2.9-3.4,3.2-6.9,1-10.5
			c-4.7-0.8-8.5,0.9-11.5,5c-0.7,2.7-0.7,5.3,0,8c2.3,4,4.7,8,7,12c4.4,3.8,9.2,7,14.5,9.5c10,0.6,20,0.3,30-1
			c11.4-4.7,23-6.5,35-5.5c-4.1-0.3-8.1,0-12,1c9.1-0.4,18.1,0.8,27,3.5c-1.5,2.2-2.5,4.7-3,7.5c-0.7-0.5-1.2-1.2-1.5-2
			c-3.1,1.2-3.3,0.7-0.5-1.5c-3.5-4.1-6.2-3.9-8,0.5c2,1.2,2.3,2.7,1,4.5c2.1,0.2,4.1,0.7,6,1.5c-1.4,1.5-2.6,3.2-3.5,5
			c-3.1-1.4-5.9-3.2-8.5-5.5c0.5-0.4,0.8-0.9,1-1.5c-4.5-1.4-8.8-1.3-13,0.5c2.1,0.2,4.1,0.7,6,1.5c3.8,3.3,3.1,5.7-2,7
			c-2-6.6-4.5-6.6-7.5,0c-0.7-0.7-1.3-1.3-2-2c-0.7,2.6-1.9,4.9-3.5,7c0.9,1.1,1.9,1.1,3,0c1,2.5,1.9,2.5,2.5,0c1,1,2,2,3,3
			c0.2-2.8,0.9-5.5,2-8c0.8,1.2,1.7,2.3,2.5,3.5c-3.8,4.8-3.8,9.5,0,14c-1.3,1.9-2.8,2.7-4.5,2.5c-0.9,1.6-1.5,3.3-2,5
			c-0.3-0.3-0.7-0.7-1-1c-1.2,1.2-2.7,1.9-4.5,2c-2.7-0.7-5.4-0.7-8,0c-1.3-0.8-2.5-1.8-3.5-3c-1.8,1.2-1.6,2.2,0.5,3
			c-4.3,1-8.5,1.6-12.5,2c-0.7,1.3-0.7,2.7,0,4c5,2.2,6.1,5.6,3.5,10c-1.3-5.8-4.6-7.4-10-5c-0.8,2-1.7,4-2.5,6
			c-1.2,1.2-2.3,1.2-3.5,0c1-1.9,1.2-3.9,0.5-6c-1.5-1.5-3-3-4.5-4.5c-3.9,0.6-7.9,1.3-12,2C10.2,366.6,4.4,382.1,6,400.5
			c-1.6,2.9-3.4,5.5-5.5,8c-0.3,0-0.7,0-1,0C-0.5,347.2-0.5,285.8-0.5,224.5z"/>
	</g>
	<g>
		<path class="st12" d="M346.5,292.5c5,1.3,9.2,3.9,12.5,8c0.4-0.5,0.9-0.8,1.5-1c8.5,4.4,17.2,8.6,26,12.5c2.3,0.5,4.6,0.7,7,0.5
			c-14.6,1.7-29.3,1-44-2c-4.6-0.3-9-1.8-13-4.5c-5.7-0.7-11.4-1.7-17-3c-1.8-0.7-3.5-1.7-5-3c0.6-0.4,0.9-0.9,1-1.5
			c7.2-0.8,14.4-2.2,21.5-4C340.7,296,343.8,295.3,346.5,292.5z"/>
	</g>
	<g>
		<path class="st16" d="M523.5,298.5c-0.9,0.8-1.9,1.6-3,2.5c-11.4,3.8-22.9,7.3-34.5,10.5c-1.1-0.5-2.3-0.8-3.5-1c-1-2-2-4-3-6
			c0.6-1.8,1.8-3.1,3.5-4c3,0.5,5.5,1.8,7.5,4c0-1.5,0.3-3.2,1-5c1.9,0.8,3.9,1.2,6,1c0-1,0-2,0-3c3.4,0,6.1,1.3,8,4
			c0.9-1.2,1.3-2.5,1-4c2.1,0.2,3.8,1.2,5,3c1-1.6,0.5-3-1.5-4c-2.4-4.9-1.4-5.9,3-3c1.5-0.8,3-1,4.5-0.5
			C519.4,295,521.4,296.9,523.5,298.5z"/>
	</g>
	<g>
		<path class="st17" d="M608.5,159.5c0,17.7,0,35.3,0,53c-1.3,0-2.7,0-4,0c0.7,3.8,1.5,7.4,2.5,11c-2-2.2-4.5-3.2-7.5-3
			c1.5,3.3,2.6,6.6,3.5,10c-3.1-2.6-6.2-4.9-9.5-7c-1.5,0-2.5,0.6-3,2c1.8,3,3.8,5.8,6,8.5c-2.3-0.4-4.6-0.9-7-1.5
			c-1.2,5.2,0.4,9.1,5,11.5c-2.5-0.1-5-0.6-7.5-1.5c-0.5,0.3-1,0.7-1.5,1c2.4,3.2,5.2,5.9,8.5,8c1.3,1.6,2,3.2,2,5
			c-4.7-5.6-10.5-7.6-17.5-6c-0.5-2.8-2.2-4.2-5-4c0.2,2.1,1.2,3.8,3,5c-1.2,0.6-2.5,0.8-4,0.5c3.5,2.5,5.7,5.6,6.5,9.5
			c-3.4-3.9-7.5-6.2-12.5-7c3.3,6.6,2.3,7.4-3,2.5c-1.9-0.7-3.8-0.6-5.5,0.5c-0.8,4,0.3,7.3,3.5,10c-0.3,0.3-0.7,0.7-1,1
			c-2.6-2.2-5.6-3.5-9-4c-0.1,1.1,0,2.1,0.5,3c6.2,9.9,5.4,10.4-2.5,1.5c-3.9-3.7-6.9-3.2-9,1.5c4,5.5,9.3,8.6,16,9.5
			c-5.9,0.7-11.5-0.2-17-2.5c-1.3,2.1-0.8,3.7,1.5,5c0.7,1,0.7,2,0,3c-3.4-3.3-7-6.3-11-9c-1.7,1.5-1.3,2.8,1,4c0.7,1,0.7,2,0,3
			c-2.9-1-5.4-2.7-7.5-5c-0.8,0.3-1.5,0.8-2,1.5c1.7,2,3.3,4,5,6c4.1,0.3,8.1,1.2,12,2.5c0.3,1.8,0,3.5-1,5c-2.1-2.4-4.8-3.7-8-4
			c0.6,2.4,1.1,4.7,1.5,7c-2.3-3-5.1-3.6-8.5-2c0.7,1,1.3,2,2,3c-0.1,0.6-0.5,0.9-1,1c-2.1-1.6-4.1-3.5-6-5.5
			c-1.5-0.5-3-0.3-4.5,0.5c-4.4-2.9-5.4-1.9-3,3c2,1,2.5,2.4,1.5,4c-1.2-1.8-2.9-2.8-5-3c0.3,1.5-0.1,2.8-1,4c-1.9-2.7-4.6-4-8-4
			c0,1,0,2,0,3c-2.1,0.2-4.1-0.2-6-1c-0.7,1.8-1,3.5-1,5c-2-2.2-4.5-3.5-7.5-4c-1.7,0.9-2.9,2.2-3.5,4c1,2,2,4,3,6
			c-1.8-0.7-3.5-1.7-5-3c-1.4,2.1-2.1,4.4-2,7c-2,0.2-4,0-6-0.5c-3.6-3.8-6.1-3.3-7.5,1.5c-1.9-3.3-4.7-4.7-8.5-4c0.2,2,0,4-0.5,6
			c-2.9-2.9-6.4-4.2-10.5-4c0.5,2,0.7,4,0.5,6c-3,0.3-6-0.3-9-2c-8.2,2.7-16.7,4-25.5,4c-8.7-0.5-17.3-1-26-1.5c-1-0.5-2-1-3-1.5
			c-3.8-3.4-7.9-3.7-12.5-1c-7-0.7-13.5-2.9-19.5-6.5c0.6-0.5,1.3-0.6,2-0.5c14.7,3,29.4,3.7,44,2c7,0,14-0.5,21-1.5
			c46.3-9.9,85.5-32.1,117.5-66.5c6.3-8,13-15.6,20-23c2.5-2.8,3-5.8,1.5-9c2.5-1,4.7-2.7,6.5-5C572.9,188.1,589,172.1,608.5,159.5z
			"/>
	</g>
	<g>
		<path class="st18" d="M549.5,307.5c2.4-0.2,4.7,0,7,0.5c-7,5.7-14,11.3-21,17c-2.8,0.9-5.4,1.8-8,2.5c-10.3,1.1-20.6,1.3-31,0.5
			c-4.6-0.9-8.6-2.9-12-6c6-0.3,12-0.7,18-1c-2.7-2-2.2-2.8,1.5-2.5c5.8,1,11.6,1.2,17.5,0.5c-1.3-1-2.7-2-4-3c2.9-1,5.9-1.7,9-2
			c-2.1-1.2-2.2-2.4-0.5-3.5C533.7,308.8,541.6,307.8,549.5,307.5z"/>
	</g>
	<g>
		<path class="st19" d="M608.5,266.5c0,12.7,0,25.3,0,38c-7.5,2.4-14.5,5.9-21,10.5c3.5,2,7.1,3.7,11,5c-8-0.4-16-0.4-24,0
			c-1.4,0.2-2.8,0.7-4,1.5c1.2,2,2.9,3.5,5,4.5c-3.1,0-6.3-0.2-9.5-0.5c-4.6,0.2-9.1,0.9-13.5,2c-0.1,1.1,0,2.1,0.5,3
			c4.5,4.2,9.8,6.2,16,6c7.1-1.9,14.3-2.5,21.5-2c5.8-1.8,11.8-2.5,18-2c0,1.7,0,3.3,0,5c-20.9,0.3-40.9,4.6-60,13
			c1.8,2.2,4.1,3.4,7,3.5c-4.5,0.2-9,0.1-13.5-0.5c-18.6,2.6-18.8,4.7-0.5,6.5c12,0.6,24,0.6,36,0c-5.7,2.6-11.7,3.9-18,4
			c-17,0.7-34,1.7-51,3c-2.9,1.9-5.6,4.1-8,6.5c4.2,4.9,9.5,8.1,16,9.5c-7.8-0.9-15.6-1.7-23.5-2.5c-14.2,2.3-28.4,5-42.5,8
			c-1.2,3.6,0.1,6.1,4,7.5c20.5,2.6,40.9,1.6,61-3c14.9-6.9,30.6-11.1,47-12.5c-0.9,1.2-1.1,2.6-0.5,4c3.5,5,6.4,10.3,8.5,16
			c0.4,1.6,1.4,2.8,3,3.5c8.1,0.9,16.1,0.6,24-1c1.9-1.3,3.2-2.9,4-5c0.9-4.8,1.2-9.6,1-14.5c2,0.3,4,0.7,6,1c0,8,0,16,0,24
			c-86.3,0-172.7,0-259,0c1.8-1.1,3.8-1.9,6-2.5c-3.2-0.2-6.2-0.7-9-1.5c9.3,0.7,18.3-0.5,27-3.5c0.7-1.1,1.2-2.2,1.5-3.5
			c2.4,2,4.9,2.3,7.5,1c33.6-7,66-17.8,97-32.5c11-7.8,22.3-15.2,34-22c4-3.6,8-7.3,12-11c-5.5-0.2-10.8-0.7-16-1.5
			c6.3,0.2,12.7,0,19-0.5c4.3-2.7,3.9-3.9-1-3.5c2.6-0.7,5.2-1.6,8-2.5c7-5.7,14-11.3,21-17c-2.3-0.5-4.6-0.7-7-0.5
			c3.3-0.6,6.7-1.4,10-2.5c-2.5-0.2-4.9-0.7-7-1.5c3.8,0.3,7.5-0.2,11-1.5c7.2-6.1,14.2-12.4,21-19c-0.2-0.4-0.6-0.6-1-0.5
			c5.4-3.6,10.7-7.4,16-11.5C602.4,269.2,605.4,267.7,608.5,266.5z"/>
	</g>
	<g>
		<path class="st20" d="M608.5,262.5c0,1.3,0,2.7,0,4c-3.1,1.2-6.1,2.7-9,4.5c-5.3,4.1-10.6,7.9-16,11.5c-6.3,1.7-12.3,4.2-18,7.5
			c-3.8,1.6-3.8,3.1,0,4.5c-5.7,2-11.3,4-17,6c-1.3,0.7-1.3,1.3,0,2c1.2,0.7,2.6,1.1,4,1c2.1,0.8,4.5,1.3,7,1.5
			c-3.3,1.1-6.7,1.9-10,2.5c-7.9,0.3-15.8,1.3-23.5,3c-1.7,1.1-1.6,2.3,0.5,3.5c-3.1,0.3-6.1,1-9,2c1.3,1,2.7,2,4,3
			c-5.9,0.7-11.7,0.5-17.5-0.5c-3.7-0.3-4.2,0.5-1.5,2.5c-6,0.3-12,0.7-18,1c3.4,3.1,7.4,5.1,12,6c10.4,0.8,20.7,0.6,31-0.5
			c4.9-0.4,5.3,0.8,1,3.5c-6.3,0.5-12.7,0.7-19,0.5c-9.6-1-19.3-1.2-29-0.5c1.8,0.7,3.5,1.7,5,3c-0.7,0.2-1.3,0.3-2,0.5
			c-6.3-1-12.7-1.5-19-1.5c1.3,1.3,2.7,2.7,4,4c7,1.7,14,3.3,21,5c-1.5,0.2-3,0.3-4.5,0.5c-18.3-2.7-36.4-5.5-54.5-8.5
			c9.4,6.7,19.8,11.7,31,15c-8-0.7-16-1.8-24-3.5c-5.1-0.3-6.1,1.6-3,5.5c8.9,4.3,17.9,8.3,27,12c-0.5,0.2-1,0.3-1.5,0.5
			c-18.3-6.8-36.5-13.9-54.5-21.5c-3.4-0.8-6.7-0.7-10,0.5c6.1,5,12.1,10.1,18,15.5c7.1,4.1,14.4,7.7,22,11
			c-35.1-6.9-65.5-22.7-91-47.5c6.1,2,11.6,5,16.5,9c1.8-0.6,3.7-1.3,5.5-2c-1-8.1,1.3-9.4,7-4c1.3-1.3,2.7-1.3,4,0
			c1.1-0.9,1.1-1.9,0-3c-1.2-1.1-2.5-1.9-4-2.5c2-0.5,4-0.7,6-0.5c1,0.5,2,1,3,1.5c8.7,0.5,17.3,1,26,1.5c8.8,0,17.3-1.3,25.5-4
			c3,1.7,6,2.3,9,2c0.2-2,0-4-0.5-6c4.1-0.2,7.6,1.1,10.5,4c0.5-2,0.7-4,0.5-6c3.8-0.7,6.6,0.7,8.5,4c1.4-4.8,3.9-5.3,7.5-1.5
			c2,0.5,4,0.7,6,0.5c-0.1-2.6,0.6-4.9,2-7c1.5,1.3,3.2,2.3,5,3c1.2,0.2,2.4,0.5,3.5,1c11.6-3.2,23.1-6.7,34.5-10.5
			c1.1-0.9,2.1-1.7,3-2.5c0.5-0.1,0.9-0.4,1-1c-0.7-1-1.3-2-2-3c3.4-1.6,6.2-1,8.5,2c-0.4-2.3-0.9-4.6-1.5-7c3.2,0.3,5.9,1.6,8,4
			c1-1.5,1.3-3.2,1-5c5.9,3.9,11.2,3.1,16-2.5c3-0.8,6-1.5,9-2C578.5,276.7,593.5,269.6,608.5,262.5z"/>
	</g>
	<g>
		<path class="st21" d="M608.5,304.5c0,9.3,0,18.7,0,28c-6.2-0.5-12.2,0.2-18,2c-7.2-0.5-14.4,0.1-21.5,2c-6.2,0.2-11.5-1.8-16-6
			c-0.5-0.9-0.6-1.9-0.5-3c4.4-1.1,8.9-1.8,13.5-2c3.2,0.3,6.4,0.5,9.5,0.5c-2.1-1-3.8-2.5-5-4.5c1.2-0.8,2.6-1.3,4-1.5
			c8-0.4,16-0.4,24,0c-3.9-1.3-7.5-3-11-5C594,310.4,601,306.9,608.5,304.5z"/>
	</g>
	<g>
		<path class="st22" d="M363.5,353.5c0.1,0.7,0.1,1.5,0,2.5c0.7,0.3,1.3,0.7,2,1c-1.6,1.6-3.2,2-5,1c1.4,1.7,1.1,3-1,4
			c1.8,0.4,3.1,1.4,4,3c-2.2,0.1-4.2,0.2-6,0.5c0.6,1.3,1.1,2.6,1.5,4c0.4-0.5,0.9-0.8,1.5-1c6.7,2,6.7,4,0,6
			c-2.7-1.1-3.9-0.1-3.5,3c1.7,1.1,2.7,0.4,3-2c0.3,2.1,1.3,3.8,3,5c1.7-2,3.3-4,5-6c0.7,0.5,1.2,1.2,1.5,2c-0.9,2.8-1.7,5.5-2.5,8
			c1.7-1.1,3.2-0.8,4.5,1c1.5-1.2,2.5-2.7,3-4.5c2.6-1.2,5.2-1.6,8-1c-0.9,1.7-1.2,3.5-1,5.5c-1.3,0-2.7,0-4,0c0,1,0,2,0,3
			c1.4-0.2,2.7,0,4,0.5c-1.5,0.3-2.9,1-4,2c2.7,0.7,2.7,1.3,0,2c0.8,1.7,2.1,2.5,4,2.5c-0.2,1.3,0.1,2.3,1,3c-1,0.3-2.1,0.6-3.3,0.8
			c-0.9,0.2-1.8,0.3-2.6,0.4c-0.9,0.2-0.9,0.2-2.6,0.5c1.8-0.3,1.8-0.3,2.6-0.5c-3.7,1.6-9.2,3.5-15.9,4.4
			c-2.5,0.4-6.8,1.1-14.2,0.4c-18.2-1.7-35.8-5.5-53-11.5c-9.3-2.9-17.3-7.9-24-15c-5.7-2.7-10.5-6.5-14.5-11.5
			c-2.1-4.8-5.1-8.8-9-12c-2.1-6.6-4.8-13-8-19c-1.7-6.4-1.7-12.7,0-19c0.7-1,1.6-1.1,2.5-0.5c2,3,4.3,5.6,7,8c-2.4,0.2-4.7,0.2-7,0
			c4.4,2.1,7.9,5.3,10.5,9.5c-0.6-7.1-1.7-14.1-3.5-21c0.2-1.7,0.3-3.3,0.5-5c0.4-0.9,1.1-1.6,2-2c9.1,4.9,13.9,12.6,14.5,23
			c-2.7,0.2-5.4,0.7-8,1.5c-1.9,2.2-2.4,4.7-1.5,7.5c1.1-1.7,2.6-2.2,4.5-1.5c3.8,2.6,6.1,6.1,7,10.5c1.8-3.1,2.8-6.4,3-10
			c2.4,0.1,4.2-0.9,5.5-3c1.7,1.4,3,3,4,5c0.3-2.8-0.9-4.9-3.5-6.5c-5.1-0.9-6.8-3.7-5-8.5c5.2,5.5,10.3,11.2,15.5,17
			c0.3-1.4,0-2.7-1-4c-2-2.7-4-5.3-6-8c-0.8-2.7-0.7-5.4,0.5-8c3.4,4.7,6.4,9.7,9,15c3.3,4.5,6.8,8.8,10.5,13c-2.4-4.1-4.4-8.4-6-13
			c4,3,7.7,6.4,11,10c1.5-2.6,2.3-2.2,2.5,1c7.7,1.2,13.9,4.8,18.5,11c0.3-1.4,0-2.7-1-4c-1.4-1.2-2.5-2.5-3.5-4
			c0.3-0.3,0.7-0.7,1-1c7.3,3,14.6,5.5,22,7.5c-5.8-3.4-11.5-7.1-17-11c-7.1-2.5-13.8-5.8-20-10c-6.6-6.1-13.1-12.2-19.5-18.5
			c-0.5-0.9-0.6-1.9-0.5-3c3.8,1.3,7,3.6,9.5,7c-2-4-3.5-8.3-4.5-13c1.4-0.2,2.7,0,4,0.5c7.7,8.6,15,17.4,22,26.5
			c0.3-0.3,0.7-0.7,1-1c-3-3.4-4.4-7.4-4-12c5.4,1,9.9,3.6,13.5,8c0.2-0.3,0.3-0.7,0.5-1c-3.6-5.8-8.6-9.3-15-10.5
			c-1.5-2.4-3.3-4.6-5.5-6.5c-0.6-3,0.5-4.5,3.5-4.5c11.6,13,24,25.3,37,37C353.6,347.2,358.6,350.4,363.5,353.5z"/>
	</g>
	<g>
		<path class="st23" d="M149.5,408.5c-49.7,0-99.3,0-149,0c2.1-2.5,3.9-5.1,5.5-8c-1.6-18.4,4.2-33.9,17.5-46.5
			c4.1-0.7,8.1-1.4,12-2c1.5,1.5,3,3,4.5,4.5c0.7,2.1,0.5,4.1-0.5,6c1.2,1.2,2.3,1.2,3.5,0c0.8-2,1.7-4,2.5-6c5.4-2.4,8.7-0.8,10,5
			c2.6-4.4,1.5-7.8-3.5-10c-0.7-1.3-0.7-2.7,0-4c4-0.4,8.2-1,12.5-2c0.7,2.2,1.3,4.5,2,7c3-1.8,6.4-2.5,10-2c0,2.3,0,4.7,0,7
			c-1.2-0.2-2.2,0.1-3,1c2.4,1.4,4.6,1.1,6.5-1c1.8-3.8,2.6-7.8,2.5-12c1.7,0,3.3,0,5,0c0,2,0,4,0,6c1.9,0.2,3.4-0.5,4.5-2
			c0.3-2.4,0.8-4.7,1.5-7c-0.8-1.6-2.2-2.3-4-2c-0.2-3,0.8-5.5,3-7.5c5.8-0.9,7.5,1.4,5,7c3.5,0.7,4.8,2.8,4,6.5
			c0.4,14.6-6.2,20.4-20,17.5c-0.9,1.4-1.2,2.9-1,4.5c-1.8,0.1-3.4-0.2-5-1c-1.2,0.8-1.2,1.6,0,2.5c3,0.5,6,0.7,9,0.5
			c0,2.7,0,5.3,0,8c-1.4-0.1-2.8,0.3-4,1c-1.3,0.7-1.3,1.3,0,2c3-0.6,5.6-1.7,8-3.5c1.8-0.8,3.4-0.6,5,0.5c0.7,2.3,1.2,4.6,1.5,7
			c3.4-4,3.1-7.6-1-11c-0.7-1-0.7-2,0-3c3.1-0.9,6.3-1.6,9.5-2c-0.4,1.6-0.4,2.9,0,4c0.9-1.8,2.2-3.1,4-4c6,1.1,7.3,4.1,4,9
			c2.3,1.4,3.8,0.7,4.5-2c0.3-3.7,0.7-7.3,1-11c5.4-2,9.3-0.4,11.5,5c1.9-2.5,3.9-2.5,6,0c1.4,4.2,0.1,7-4,8.5c0.3,0.3,0.7,0.7,1,1
			c2.9-0.6,5.4-2.1,7.5-4.5c6.4,1.6,8.2,5.6,5.5,12c-1.7,0.5-3.4,1.2-5,2c2.3,0.8,4.6,1.3,7,1.5c-2.1,2-3.3,4.5-3.5,7.5
			c-2.6,2.2-5.4,2.6-8.5,1c-0.9,0.8-1.2,1.8-1,3c4.9,0.5,9.9,0.5,15,0C148.5,404.6,148.9,406.6,149.5,408.5z"/>
	</g>
	<g>
		<path class="st24" d="M344.5,321.5c25.5,24.8,55.9,40.6,91,47.5c-7.6-3.3-14.9-6.9-22-11c-5.9-5.4-11.9-10.5-18-15.5
			c3.3-1.2,6.6-1.3,10-0.5c18,7.6,36.2,14.7,54.5,21.5c0.5-0.2,1-0.3,1.5-0.5c-9.1-3.7-18.1-7.7-27-12c-3.1-3.9-2.1-5.8,3-5.5
			c8,1.7,16,2.8,24,3.5c-11.2-3.3-21.6-8.3-31-15c18.1,3,36.2,5.8,54.5,8.5c1.5-0.2,3-0.3,4.5-0.5c-7-1.7-14-3.3-21-5
			c-1.3-1.3-2.7-2.7-4-4c6.3,0,12.7,0.5,19,1.5c0.7-0.2,1.3-0.3,2-0.5c-1.5-1.3-3.2-2.3-5-3c9.7-0.7,19.4-0.5,29,0.5
			c5.2,0.8,10.5,1.3,16,1.5c-4,3.7-8,7.4-12,11c-11.7,6.8-23,14.2-34,22c-31,14.7-63.4,25.5-97,32.5c-0.9-0.7-1.2-1.7-1-3
			c-1.9,0-3.2-0.8-4-2.5c2.7-0.7,2.7-1.3,0-2c1.1-1,2.5-1.7,4-2c-1.3-0.5-2.6-0.7-4-0.5c0-1,0-2,0-3c1.3,0,2.7,0,4,0
			c-0.2-2,0.1-3.8,1-5.5c-2.8-0.6-5.4-0.2-8,1c-0.5,1.8-1.5,3.3-3,4.5c-1.3-1.8-2.8-2.1-4.5-1c0.8-2.5,1.6-5.2,2.5-8
			c-0.3-0.8-0.8-1.5-1.5-2c-1.7,2-3.3,4-5,6c-1.7-1.2-2.7-2.9-3-5c-0.3,2.4-1.3,3.1-3,2c-0.4-3.1,0.8-4.1,3.5-3c6.7-2,6.7-4,0-6
			c-0.6,0.2-1.1,0.5-1.5,1c-0.4-1.4-0.9-2.7-1.5-4c1.8-0.3,3.8-0.4,6-0.5c-0.9-1.6-2.2-2.6-4-3c2.1-1,2.4-2.3,1-4c1.8,1,3.4,0.6,5-1
			c-0.7-0.3-1.3-0.7-2-1c0.1-1,0.1-1.8,0-2.5c1.3,0.5,2.7,0.7,4,0.5c-13.5-8.5-24.6-19.3-33.5-32.5c-1.2-2.7-1.4-5.4-0.5-8
			C337.2,316.2,340.9,318.8,344.5,321.5z"/>
	</g>
	<g>
		<path class="st25" d="M608.5,337.5c0,15.7,0,31.3,0,47c-2-0.3-4-0.7-6-1c-1.7-0.5-3.1-1.5-4-3c-4-5.8-6.8-6.8-8.7-6.6
			c-2.8,0.3-5.5,3.6-10.5,3.1c-0.1,0-0.1,0-0.1,0c-9.6-1-16.7,3.6-16.7,3.5c0,0,5.3-2.6,29.1-14.1c0.3-0.1,0.6-0.3,0.9-0.4
			c-6.3-0.5-12.7-0.7-19-0.5c-0.2,17.3-0.7,17.3-1.5,0c21.1,9.4,31.3,15.4,30.5,18c-0.9,2.8-14.2,1.8-40-3
			c-16.4,1.4-32.1,5.6-47,12.5c-20.1,4.6-40.5,5.6-61,3c-3.9-1.4-5.2-3.9-4-7.5c14.1-3,28.3-5.7,42.5-8c7.9,0.8,15.7,1.6,23.5,2.5
			c-6.5-1.4-11.8-4.6-16-9.5c2.4-2.4,5.1-4.6,8-6.5c17-1.3,34-2.3,51-3c6.3-0.1,12.3-1.4,18-4c-12,0.6-24,0.6-36,0
			c-18.3-1.8-18.1-3.9,0.5-6.5c4.5,0.6,9,0.7,13.5,0.5c-2.9-0.1-5.2-1.3-7-3.5C567.6,342.1,587.6,337.8,608.5,337.5z"/>
	</g>
	<g>
		<path class="st26" d="M197.5,383.5c10.2,0,12.8,4.3,8,13c-1.3,0.9-2.4,1.9-3.5,3c-0.2-4.2-1.3-8-3.5-11.5c2.5-3.5,2-4-1.5-1.5
			C196.5,385.4,196.7,384.4,197.5,383.5z"/>
	</g>
	<g>
		<path class="st27" d="M280.5,408.5c-10,0-20,0-30,0c-7-0.3-12.3-3.5-16-9.5c-2.3-0.3-4.7-0.2-7,0.5c-2.9-1-5.9-1.6-9-2
			c0.1-2-0.6-3.6-2-5c3.6-1.8,6.3-1,8,2.5c0.8,0.7,1.5,0.5,2-0.5c-2.1-2.8-3.9-5.8-5.5-9c-4.3-1.6-8.2-4.1-11.5-7.5
			c-3-0.3-6-0.7-9-1c-2-2.6-4.2-5.1-6.5-7.5c-2.3-3.7-1.8-6.8,1.5-9.5c6.4-1.8,8.4,0.4,6,6.5c0.9,1.1,1.9,1.2,3,0.5
			c1.5-3.1,2.8-6.3,4-9.5c2.7-1.4,4.9-0.8,6.5,2c3.1,7.3,0.6,10.1-7.5,8.5c6.5,0.6,10.1,4.1,11,10.5c0.3-1,0.7-2,1-3
			c-0.8-3-1.3-6-1.5-9c0.4-0.9,0.9-1.8,1.5-2.5c6,0.9,8.4,4.4,7,10.5c0.8,1.2,1.6,1.2,2.5,0c4.5,4.1,7.5,9.1,9,15
			c0.7-2.3,0.7-4.7,0-7c-1.1-2.3-1.9-4.6-2.5-7c0.3-1,0.7-2,1-3c10,6.7,15.8,16.1,17.5,28c0.3-2.3,0.7-4.7,1-7
			c0.4-0.5,0.9-0.8,1.5-1c3.8,4,7.5,8.2,11,12.5c0.9,0.5,1.9,0.6,3,0.5c-0.3-1.5,0.1-2.8,1-4C274.8,403.5,277.8,405.8,280.5,408.5z"
			/>
	</g>
	<g>
		<path class="st28" d="M192.5,392.5c3.1-0.1,5.2,1.3,6.5,4c-0.1,2.4-0.6,4.7-1.5,7c-2.4,0.2-4.7,0.5-7,1
			C190.3,400.3,191,396.3,192.5,392.5z"/>
	</g>
	<g>
		<path class="st29" d="M171.5,383.5c2-0.2,4,0,6,0.5c0.9,2.4,2.5,3.9,5,4.5c3.7,5.6,2.4,8.9-4,10c-3.6-0.4-6.6-1.9-9-4.5
			C171.1,390.7,171.8,387.2,171.5,383.5z"/>
	</g>
	<g>
		<path class="st30" d="M173.5,408.5c-3.7,0-7.3,0-11,0c-0.3-3.4,0-6.7,1-10C170.3,398,173.6,401.3,173.5,408.5z"/>
	</g>
	<g>
		<path class="st31" d="M160.5,408.5c-2.7,0-5.3,0-8,0c0-2,0-4,0-6C158.2,400.2,160.9,402.2,160.5,408.5z"/>
	</g>
	<path class="st19" d="M608.4,395.7c0.3-3.2,0.7-6.4,1.2-9.6c0-1.4,0.2-2.7,0.4-3.9c-3.5-0.5-7.3-1-11.6-1.6
		c-17.5-2.4-26.7-3.6-38,0.7c-12.8,4.8-20.3,13.6-24,17.9c-2,2.4-4.1,5.2-6,8.2c3.5,0.2,6.9,0.5,10.4,0.9c2.4-0.8,4.9-1.3,7.5-1.4
		c6.7-0.3,13.4-0.5,20-0.3c3,0.1,5.8,0.6,8.4,1.6c10.6,0,21.2,0.2,31.8,0.5C608.1,404.3,608.1,399.9,608.4,395.7z"/>
	<path class="st25" d="M568.9,377.9c-0.4-1.8-1.4-7.1,1.6-11.5c4.8-6.8,16.8-7.2,23.2-1.6c3.4,3,4.4,6.9,4.7,9"/>
	<path class="st25" d="M577.4,373"/>
	<path class="st25" d="M623.8,375.9"/>
	<rect x="561.8" y="369.4" class="st25" width="42.7" height="10.5"/>
	<path class="st25" d="M602.1,367.4c-2.3,12.4-11.6,11.1-11.6,11.1l14,2.8l2.9-13.9H602.1z"/>
	<path class="st22" d="M395.4,393.6"/>
	<path class="st22" d="M396.2,392.3"/>
	<path class="st22" d="M395.1,387.8"/>
	<path class="st0" d="M343.9,130.5c0,0,2.9-1.1,3.6-4.9c0.1-0.6,0-0.9-0.1-1.1c0-0.1-0.4-1-1.1-1c-0.5,0-1,0.6-0.9,1
		c0.1,0.5,1.2,0.8,1.3,0.7c0.1-0.2-8-5.4-10.4-3.4c-1.3,1.1-0.7,4.3,0.8,6.3C338.6,129.9,341.3,131.5,343.9,130.5z"/>
	<path class="st13" d="M393.4,299c-1.5,1.6-2.9,3.2-4.4,4.7"/>
	<path class="st13" d="M556,213.6c-6.9,1-13.9,1.9-20.8,2.9c-2.3,6-4.6,12.1-6.9,18.1c7.3-3.7,14.6-7.4,22-11
		C552.2,220.2,554.1,216.9,556,213.6z"/>
</g>
<g id="Layer_2">
	<path class="st19" d="M558.6,378.5"/>
</g>
</svg>
