<?xml version="1.0" encoding="UTF-8"?>
<!DOCTYPE svg PUBLIC "-//W3C//DTD SVG 1.1//EN" "http://www.w3.org/Graphics/SVG/1.1/DTD/svg11.dtd">
<svg xmlns="http://www.w3.org/2000/svg" version="1.1" width="4042px" height="4167px" style="shape-rendering:geometricPrecision; text-rendering:geometricPrecision; image-rendering:optimizeQuality; fill-rule:evenodd; clip-rule:evenodd" xmlns:xlink="http://www.w3.org/1999/xlink">
<g><path style="opacity:1" fill="#c6a864" d="M 2516.5,-0.5 C 2519.17,-0.5 2521.83,-0.5 2524.5,-0.5C 2531.98,4.91983 2537.98,11.7532 2542.5,20C 2598.41,56.5758 2645.91,102.076 2685,156.5C 2811.58,336.466 2861.91,536.132 2836,755.5C 2815.11,903.272 2759.45,1035.94 2669,1153.5C 2615.45,1222.21 2553.62,1282.21 2483.5,1333.5C 2481.75,1423.16 2480.75,1512.82 2480.5,1602.5C 2481.23,1793.17 2481.73,1983.83 2482,2174.5C 2483.85,2229.5 2483.85,2284.5 2482,2339.5C 2480.95,2355.54 2479.45,2371.54 2477.5,2387.5C 2482.34,2404.2 2487.51,2420.87 2493,2437.5C 2501.27,2455.76 2511.94,2472.42 2525,2487.5C 2543.77,2508.02 2562.77,2528.36 2582,2548.5C 2600.45,2568.29 2615.78,2590.29 2628,2614.5C 2632.22,2624.48 2635.22,2634.81 2637,2645.5C 2642.83,2715.37 2645.33,2785.37 2644.5,2855.5C 2644.33,2882.5 2644.17,2909.5 2644,2936.5C 2639.95,3064.65 2636.78,3192.81 2634.5,3321C 2634.87,3373.53 2636.37,3426.03 2639,3478.5C 2639.4,3489.56 2640.4,3500.56 2642,3511.5C 2645.84,3523.01 2653.01,3531.85 2663.5,3538C 2684.55,3550.18 2706.55,3552.51 2729.5,3545C 2933,3438.54 3105.5,3294.38 3247,3112.5C 3410.56,2895.91 3512.9,2652.58 3554,2382.5C 3569.16,2282.05 3575.5,2181.05 3573,2079.5C 3568.17,2071.13 3568.33,2062.96 3573.5,2055C 3568.33,2032.8 3565.49,2010.3 3565,1987.5C 3564.33,1986.83 3563.67,1986.17 3563,1985.5C 3562.83,1979.8 3562.33,1974.14 3561.5,1968.5C 3560.52,1968.02 3559.69,1967.36 3559,1966.5C 3556.31,1912.71 3548.31,1859.71 3535,1807.5C 3495.37,1636.95 3429.37,1477.62 3337,1329.5C 3302.68,1274.52 3266.01,1221.18 3227,1169.5C 3226.33,1168.17 3226.33,1166.83 3227,1165.5C 3256.03,1085.4 3281.03,1004.06 3302,921.5C 3302.8,920.196 3303.97,919.529 3305.5,919.5C 3324.8,925.101 3343.8,931.601 3362.5,939C 3427.44,959.155 3493.1,962.155 3559.5,948C 3582.2,940.32 3604.54,931.654 3626.5,922C 3631.5,920.333 3636.5,918.667 3641.5,917C 3643.58,916.192 3645.58,916.359 3647.5,917.5C 3691.23,985.809 3734.57,1054.31 3777.5,1123C 3776.58,1127.26 3774.75,1131.09 3772,1134.5C 3727.02,1170.47 3693.68,1215.13 3672,1268.5C 3640.19,1353.48 3647.53,1434.82 3694,1512.5C 3728.45,1563 3774.62,1598.5 3832.5,1619C 3854.01,1626.17 3876.01,1631.17 3898.5,1634C 3925.5,1634.33 3952.5,1634.67 3979.5,1635C 3983.83,1635.23 3987.99,1636.06 3992,1637.5C 3997.73,1652.07 4002.06,1667.07 4005,1682.5C 4011.66,1715.44 4017.99,1748.44 4024,1781.5C 4026.72,1790.6 4029.72,1799.6 4033,1808.5C 4036.49,1830.71 4037.82,1853.05 4037,1875.5C 4004.49,1889.34 3972.99,1905.17 3942.5,1923C 3839,1986.18 3794.5,2078.35 3809,2199.5C 3817.08,2251.82 3839.58,2296.65 3876.5,2334C 3901.38,2357.23 3927.72,2378.56 3955.5,2398C 3962.51,2402.51 3969.85,2406.51 3977.5,2410C 3995.89,2416.02 4013.89,2423.02 4031.5,2431C 4034.75,2433.34 4036.59,2436.51 4037,2440.5C 4037.67,2445.17 4037.67,2449.83 4037,2454.5C 4033.43,2476.57 4029.43,2498.57 4025,2520.5C 4013.84,2570.13 4002.84,2619.8 3992,2669.5C 3952.25,2670.23 3912.75,2674.07 3873.5,2681C 3824.27,2690.12 3779.94,2709.79 3740.5,2740C 3680.53,2792.49 3650.2,2858.83 3649.5,2939C 3651.19,3012.74 3675.35,3077.91 3722,3134.5C 3739,3150.83 3756,3167.17 3773,3183.5C 3774.7,3185.7 3776.2,3188.03 3777.5,3190.5C 3770.42,3200.33 3763.59,3210.33 3757,3220.5C 3744.84,3242.83 3732.17,3264.83 3719,3286.5C 3702.05,3309.78 3684.72,3332.78 3667,3355.5C 3661.73,3367.1 3655.23,3377.93 3647.5,3388C 3643.65,3391.03 3639.32,3392.03 3634.5,3391C 3595.19,3367.01 3552.52,3353.01 3506.5,3349C 3425.04,3340.27 3353.37,3362.27 3291.5,3415C 3215.84,3486.74 3190.34,3573.57 3215,3675.5C 3222.45,3702.3 3229.12,3729.3 3235,3756.5C 3237.73,3768.8 3238.06,3781.14 3236,3793.5C 3231.13,3798.7 3225.97,3803.53 3220.5,3808C 3167.07,3848.23 3111.4,3885.23 3053.5,3919C 3051.71,3919.52 3050.04,3919.19 3048.5,3918C 3032.81,3901.31 3016.81,3884.97 3000.5,3869C 2965.59,3839.49 2926.25,3817.49 2882.5,3803C 2786.27,3775.56 2700.27,3794.23 2624.5,3859C 2584.33,3897.92 2557.5,3944.75 2544,3999.5C 2533.29,4043.53 2528.79,4088.19 2530.5,4133.5C 2483.27,4143.1 2436.1,4153.1 2389,4163.5C 2386.85,4163.36 2385.18,4162.36 2384,4160.5C 2370.41,4133.65 2357.08,4106.65 2344,4079.5C 2316.09,4035.23 2283.26,3994.73 2245.5,3958C 2236.32,3951.58 2227.32,3944.91 2218.5,3938C 2215.3,3935.13 2212.46,3931.96 2210,3928.5C 2208.84,3882.39 2208.34,3836.22 2208.5,3790C 2208.67,3721.17 2209.01,3652.33 2209.5,3583.5C 2206.84,3210.17 2205.34,2836.84 2205,2463.5C 2204.09,2054.17 2204.43,1644.83 2206,1235.5C 2210.56,1231.13 2215.73,1227.63 2221.5,1225C 2350.17,1174.99 2452.67,1092.49 2529,977.5C 2626.04,819.824 2649.04,651.824 2598,473.5C 2562.12,358.702 2499.79,261.035 2411,180.5C 2403.94,173.274 2397.44,165.607 2391.5,157.5C 2393.81,152.207 2396.65,147.207 2400,142.5C 2437.41,93.7015 2476.24,46.0349 2516.5,-0.5 Z"/></g>
<g><path style="opacity:1" fill="#c6a864" d="M 1650.5,4166.5 C 1648.17,4166.5 1645.83,4166.5 1643.5,4166.5C 1597.68,4156.55 1551.68,4146.88 1505.5,4137.5C 1507.06,4088.43 1501.89,4040.1 1490,3992.5C 1467.61,3906.13 1415.78,3844.97 1334.5,3809C 1277.11,3787.55 1219.11,3785.88 1160.5,3804C 1120.54,3816.48 1084.21,3835.48 1051.5,3861C 1032.53,3877.63 1013.87,3894.63 995.5,3912C 992.833,3914 990.167,3916 987.5,3918C 985.956,3919.19 984.289,3919.52 982.5,3919C 921.167,3876.67 859.833,3834.33 798.5,3792C 795.628,3789.46 793.128,3786.63 791,3783.5C 789.85,3781.25 789.516,3778.91 790,3776.5C 792.897,3769.94 796.23,3763.6 800,3757.5C 817.287,3712.35 827.62,3665.69 831,3617.5C 833.7,3538.56 806.867,3471.73 750.5,3417C 700.193,3370.6 640.526,3347.44 571.5,3347.5C 523.012,3349.03 476.012,3358.2 430.5,3375C 422.779,3379.53 414.779,3383.53 406.5,3387C 402.074,3387.79 397.741,3387.46 393.5,3386C 389.367,3382.87 385.534,3379.37 382,3375.5C 374,3364.83 366,3354.17 358,3343.5C 324.934,3292.61 292.1,3241.61 259.5,3190.5C 261.062,3185.04 263.896,3180.37 268,3176.5C 281.695,3162.47 295.695,3148.8 310,3135.5C 391.056,3044.87 409.056,2942.87 364,2829.5C 342.024,2779.86 307.19,2742.02 259.5,2716C 192.832,2681.12 121.999,2665.62 47,2669.5C 31.0792,2593.39 15.2459,2517.39 -0.5,2441.5C -0.5,2438.5 -0.5,2435.5 -0.5,2432.5C 1.34004,2430.83 3.34004,2429.33 5.5,2428C 15.7136,2426.09 25.7136,2423.42 35.5,2420C 89.2868,2396.87 135.12,2363.04 173,2318.5C 233.19,2241.7 248.19,2156.7 218,2063.5C 201.473,2025.97 178.306,1993.14 148.5,1965C 126.137,1943.99 101.804,1925.66 75.5,1910C 53.0179,1900.26 30.6846,1890.26 8.5,1880C 5.62804,1877.46 3.12804,1874.63 1,1871.5C 0.178262,1859.09 0.844928,1846.76 3,1834.5C 14.3307,1767.85 28.4974,1701.85 45.5,1636.5C 135.88,1645.41 217.213,1622.58 289.5,1568C 337.497,1531.21 367.664,1483.04 380,1423.5C 386.77,1397.23 389.437,1370.57 388,1343.5C 384.676,1316.2 377.01,1290.2 365,1265.5C 352.087,1240.66 337.421,1216.99 321,1194.5C 302,1169.83 283,1145.17 264,1120.5C 263.219,1119.27 262.719,1117.94 262.5,1116.5C 263.384,1113.07 264.551,1109.73 266,1106.5C 301.692,1043.76 341.359,983.756 385,926.5C 388.367,922.797 392.034,919.464 396,916.5C 416.755,923.124 436.921,931.291 456.5,941C 473.269,947.526 490.603,951.859 508.5,954C 574.49,961.288 638.49,952.954 700.5,929C 706.17,926.167 711.503,922.834 716.5,919C 726.233,914.465 732.733,917.299 736,927.5C 744.911,954.478 752.578,981.811 759,1009.5C 772.667,1050.5 786.333,1091.5 800,1132.5C 804.293,1145.67 807.626,1159 810,1172.5C 771.889,1219.95 736.889,1269.62 705,1321.5C 615.081,1467.52 548.748,1624.85 506,1793.5C 498.18,1826.26 491.514,1859.26 486,1892.5C 482.779,1930.71 477.779,1968.71 471,2006.5C 442.187,2326.77 504.853,2627.77 659,2909.5C 766.287,3104.51 908.121,3270.67 1084.5,3408C 1110.81,3427.49 1137.48,3446.49 1164.5,3465C 1212.61,3494.06 1261.95,3521.06 1312.5,3546C 1338.07,3550.82 1361.41,3545.82 1382.5,3531C 1389.42,3523.58 1393.26,3514.75 1394,3504.5C 1394.56,3447.15 1395.89,3389.82 1398,3332.5C 1397.76,3152 1397.93,2971.5 1398.5,2791C 1398.04,2764.16 1397.37,2737.33 1396.5,2710.5C 1396.67,2689.07 1398.17,2667.73 1401,2646.5C 1404.1,2626.32 1411.1,2607.65 1422,2590.5C 1429.51,2579.48 1437.51,2568.81 1446,2558.5C 1465,2538.17 1484,2517.83 1503,2497.5C 1520.79,2478.37 1535.46,2457.03 1547,2433.5C 1550.26,2425.78 1552.6,2417.78 1554,2409.5C 1554.23,2308.16 1554.73,2206.83 1555.5,2105.5C 1554.36,1897.5 1554.2,1689.5 1555,1481.5C 1555.45,1433.47 1556.12,1385.47 1557,1337.5C 1518.93,1303.55 1480.76,1269.72 1442.5,1236C 1337.15,1131.88 1265.32,1007.71 1227,863.5C 1179.64,681.548 1189.64,502.881 1257,327.5C 1309.07,200.191 1389.9,95.024 1499.5,12C 1508.94,5.09104 1518.94,3.92437 1529.5,8.5C 1568.83,58.1667 1608.17,107.833 1647.5,157.5C 1568.82,226.874 1507.65,309.207 1464,404.5C 1387.65,582.776 1393.98,758.11 1483,930.5C 1541.38,1037.88 1623.21,1122.72 1728.5,1185C 1751.59,1196.21 1774.93,1206.88 1798.5,1217C 1809.9,1221.78 1820.4,1227.95 1830,1235.5C 1832.91,1241.14 1834.58,1247.14 1835,1253.5C 1835.73,1702.5 1835.4,2151.5 1834,2600.5C 1832.49,3043.51 1830.16,3486.51 1827,3929.5C 1783.5,3965.67 1744.83,4006.33 1711,4051.5C 1707.33,4057.17 1703.67,4062.83 1700,4068.5C 1685.39,4098.71 1671.06,4129.05 1657,4159.5C 1654.63,4161.7 1652.46,4164.04 1650.5,4166.5 Z"/></g>
<g><path style="opacity:1" fill="#c6a864" d="M 1996.5,232.5 C 2080.76,228.898 2158.76,249.065 2230.5,293C 2273.35,317.826 2311.51,348.66 2345,385.5C 2352.98,394.8 2359.98,404.8 2366,415.5C 2366.5,418.482 2366.66,421.482 2366.5,424.5C 2310.84,449.747 2255.34,475.414 2200,501.5C 2185.87,490.377 2172.04,478.877 2158.5,467C 2122.14,441.988 2081.81,427.654 2037.5,424C 1956.27,417.551 1890.1,445.718 1839,508.5C 1817.12,540.114 1803.45,575.114 1798,613.5C 1792.88,641.933 1790.55,670.599 1791,699.5C 1740.91,723.128 1690.74,746.628 1640.5,770C 1633.54,771.087 1626.54,771.587 1619.5,771.5C 1597.31,679.367 1602.14,588.701 1634,499.5C 1683.75,375.082 1772.25,291.915 1899.5,250C 1931.31,240.477 1963.65,234.644 1996.5,232.5 Z"/></g>
<g><path style="opacity:1" fill="#c6a864" d="M 2421.5,518.5 C 2422.75,518.577 2423.58,519.244 2424,520.5C 2434.31,586.905 2433.98,653.239 2423,719.5C 2405.1,814.589 2360.93,894.756 2290.5,960C 2205.69,1030.94 2107.69,1063.6 1996.5,1058C 1898.79,1051.45 1812.79,1016.78 1738.5,954C 1715.32,929.651 1692.32,905.151 1669.5,880.5C 1670.31,876.926 1671.31,873.426 1672.5,870C 1727.05,844.557 1781.72,819.39 1836.5,794.5C 1861.1,812.811 1886.77,829.645 1913.5,845C 2001.9,890.388 2085.24,882.721 2163.5,822C 2211.13,775.569 2238.63,719.069 2246,652.5C 2246.07,634.165 2246.07,615.832 2246,597.5C 2249.22,594.612 2252.72,592.112 2256.5,590C 2310.19,562.813 2365.19,538.98 2421.5,518.5 Z"/></g>
<g><path style="opacity:1" fill="#c6a965" d="M 1970.5,1233.5 C 2007.17,1233.33 2043.83,1233.5 2080.5,1234C 2083.99,1235.22 2087.33,1236.72 2090.5,1238.5C 2091.11,1240.94 2091.45,1243.44 2091.5,1246C 2091.66,2125.15 2091.49,3004.32 2091,3883.5C 2089.48,3889.36 2085.65,3892.52 2079.5,3893C 2075.5,3893.67 2071.5,3893.67 2067.5,3893C 2057.72,3891.11 2047.89,3889.61 2038,3888.5C 2029.78,3889.29 2021.62,3890.45 2013.5,3892C 1991.67,3892.52 1970,3890.85 1948.5,3887C 1946.68,3885.2 1945.52,3883.03 1945,3880.5C 1945.61,3631.17 1945.61,3381.84 1945,3132.5C 1943.42,2803.33 1941.92,2474.17 1940.5,2145C 1941.54,1949.67 1942.54,1754.33 1943.5,1559C 1943.2,1461.5 1942.37,1364 1941,1266.5C 1940.95,1256.68 1939.78,1247.01 1937.5,1237.5C 1948.7,1236.68 1959.7,1235.35 1970.5,1233.5 Z"/></g>
<g><path style="opacity:0.999" fill="#c6a864" d="M 860.5,1275.5 C 864.493,1275.24 867.326,1276.91 869,1280.5C 880.531,1303.05 892.531,1325.38 905,1347.5C 906.94,1350.39 909.44,1352.73 912.5,1354.5C 914.262,1358 914.762,1361.67 914,1365.5C 836.334,1482.18 775.667,1607.51 732,1741.5C 663.669,1962.12 650.003,2186.12 691,2413.5C 725.246,2595.92 795.579,2762.59 902,2913.5C 953.382,2986.24 1010.05,3054.91 1072,3119.5C 1096.17,3143.67 1120.33,3167.83 1144.5,3192C 1170.56,3213.05 1195.72,3235.22 1220,3258.5C 1223,3262.17 1226,3265.83 1229,3269.5C 1230.09,3272.04 1230.76,3274.71 1231,3277.5C 1232.37,3310.5 1233.54,3343.5 1234.5,3376.5C 1230.81,3376.22 1227.15,3375.72 1223.5,3375C 1165.84,3333.99 1110.17,3290.32 1056.5,3244C 822.292,3031.56 670.459,2770.06 601,2459.5C 555.038,2242.15 558.038,2025.48 610,1809.5C 610.347,1801.42 611.347,1793.42 613,1785.5C 613.163,1779.17 616.329,1776.17 622.5,1776.5C 623.835,1743.15 632.335,1711.82 648,1682.5C 648.784,1676.46 649.784,1670.46 651,1664.5C 654.715,1653.69 658.215,1642.86 661.5,1632C 663.81,1631.5 666.143,1631.34 668.5,1631.5C 672.098,1619.2 675.598,1606.87 679,1594.5C 680.61,1590.56 683.277,1587.56 687,1585.5C 689.118,1573.81 692.451,1562.48 697,1551.5C 707.122,1529.26 717.789,1507.26 729,1485.5C 733.061,1476.71 736.561,1467.71 739.5,1458.5C 740.914,1457.38 742.414,1456.38 744,1455.5C 758.071,1428.35 773.405,1402.01 790,1376.5C 812.524,1342.11 836.024,1308.44 860.5,1275.5 Z"/></g>
<g><path style="opacity:0.999" fill="#c6a864" d="M 3166.5,1279.5 C 3172.42,1278.88 3177.25,1280.88 3181,1285.5C 3347.53,1504.64 3441.53,1752.31 3463,2028.5C 3479.16,2237.06 3453.83,2440.4 3387,2638.5C 3317.88,2833.21 3212.54,3004.88 3071,3153.5C 3029.98,3195.87 2987.14,3236.03 2942.5,3274C 2907.21,3301.62 2872.21,3329.62 2837.5,3358C 2829.84,3363.83 2821.84,3369.16 2813.5,3374C 2809.26,3375.46 2804.93,3375.79 2800.5,3375C 2798.54,3372.88 2798.04,3370.38 2799,3367.5C 2800.73,3363.05 2802.73,3358.71 2805,3354.5C 2805.33,3338.17 2805.67,3321.83 2806,3305.5C 2807.42,3289.41 2810.75,3273.75 2816,3258.5C 2820.95,3248.22 2827.45,3239.06 2835.5,3231C 3019.48,3090.37 3159.64,2914.87 3256,2704.5C 3321.15,2554.89 3358.15,2398.55 3367,2235.5C 3371.77,2104.88 3359.44,1975.88 3330,1848.5C 3320.56,1806.18 3309.89,1764.18 3298,1722.5C 3296.85,1715.12 3295.52,1707.79 3294,1700.5C 3291.98,1701.99 3290.31,1701.66 3289,1699.5C 3281.18,1675.37 3272.18,1651.7 3262,1628.5C 3239.8,1583.76 3218.96,1538.43 3199.5,1492.5C 3196.14,1492.15 3193.31,1490.82 3191,1488.5C 3189.58,1483.41 3187.92,1478.41 3186,1473.5C 3162.42,1439.23 3140.42,1403.9 3120,1367.5C 3120.75,1362.31 3122.41,1357.31 3125,1352.5C 3134.94,1336.23 3145.27,1320.23 3156,1304.5C 3159.36,1296.03 3162.86,1287.7 3166.5,1279.5 Z"/></g>
</svg>
