<?xml version="1.0" encoding="UTF-8"?>
<!DOCTYPE svg PUBLIC "-//W3C//DTD SVG 1.1//EN" "http://www.w3.org/Graphics/SVG/1.1/DTD/svg11.dtd">
<svg xmlns="http://www.w3.org/2000/svg" version="1.1" width="3487px" height="4167px" style="shape-rendering:geometricPrecision; text-rendering:geometricPrecision; image-rendering:optimizeQuality; fill-rule:evenodd; clip-rule:evenodd" xmlns:xlink="http://www.w3.org/1999/xlink">
<g><path style="opacity:0.999" fill="#c6a864" d="M 1316.5,-0.5 C 1319.5,-0.5 1322.5,-0.5 1325.5,-0.5C 1327.11,1.60147 1327.61,3.93481 1327,6.5C 1325.11,11.9448 1322.45,16.9448 1319,21.5C 1298.03,44.8027 1276.03,67.136 1253,88.5C 1142.5,216.927 1082.17,366.26 1072,536.5C 1067.16,705.634 1117.16,855.967 1222,987.5C 1260.01,1025.45 1301.18,1029.29 1345.5,999C 1379.74,969.283 1389.24,933.116 1374,890.5C 1351.55,844.191 1315.05,826.024 1264.5,836C 1249.22,841.286 1236.06,849.786 1225,861.5C 1219.03,871.944 1212.2,881.777 1204.5,891C 1199.17,894.333 1193.83,894.333 1188.5,891C 1184.96,887.799 1181.8,884.299 1179,880.5C 1169.16,863.485 1159.82,846.152 1151,828.5C 1149.08,823.516 1149.08,818.516 1151,813.5C 1155.6,803.893 1162.1,795.726 1170.5,789C 1209.82,756.225 1255.16,741.225 1306.5,744C 1370.6,752.795 1418.43,785.295 1450,841.5C 1475.45,889.436 1479.45,939.103 1462,990.5C 1428.65,1066.89 1369.98,1106.22 1286,1108.5C 1263.85,1108.28 1242.35,1104.45 1221.5,1097C 1211.9,1091.73 1202.57,1086.06 1193.5,1080C 1181.01,1076.21 1168.35,1075.54 1155.5,1078C 1126.24,1084.46 1098.57,1095.13 1072.5,1110C 1014.53,1144.3 960.198,1183.63 909.5,1228C 902.871,1231.31 895.871,1232.31 888.5,1231C 876.663,1226.66 866.83,1219.49 859,1209.5C 849.159,1197.63 841.826,1184.3 837,1169.5C 833.942,1161.46 833.942,1153.46 837,1145.5C 843.443,1135.62 849.11,1125.28 854,1114.5C 860.089,1081.52 852.423,1052.19 831,1026.5C 793.885,985.689 747.718,961.855 692.5,955C 641.798,949.576 592.464,955.576 544.5,973C 427.226,1019.27 338.393,1097.77 278,1208.5C 218.054,1322.56 193.054,1443.89 203,1572.5C 218.077,1745.92 283.744,1896.58 400,2024.5C 422.442,2046.45 446.275,2066.61 471.5,2085C 478.333,2091.17 485.167,2097.33 492,2103.5C 496.23,2109.73 497.23,2116.4 495,2123.5C 491.497,2127.83 486.997,2129.67 481.5,2129C 310.791,2038.63 184.957,1905.79 104,1730.5C 21.917,1533.17 18.5837,1334.5 94,1134.5C 106.333,1109.17 118.667,1083.83 131,1058.5C 136.857,1045.6 141.524,1032.26 145,1018.5C 146.497,1010.22 146.831,1001.89 146,993.5C 142.077,985.986 138.41,978.319 135,970.5C 134.175,966.789 134.341,963.122 135.5,959.5C 148.354,952.911 160.354,945.077 171.5,936C 193.141,914.692 214.474,893.026 235.5,871C 238.419,870.448 241.086,871.115 243.5,873C 254.415,884.254 266.748,893.587 280.5,901C 291.833,905.667 303.167,905.667 314.5,901C 325.325,895.757 335.658,889.757 345.5,883C 368.015,865.574 390.349,847.908 412.5,830C 548.747,741.177 698.414,695.843 861.5,694C 894.584,692.735 916.418,676.569 927,645.5C 931.026,620.25 923.193,599.416 903.5,583C 884.736,567.856 863.236,560.69 839,561.5C 657.181,574.762 492.348,633.928 344.5,739C 326.212,752.953 308.212,767.286 290.5,782C 264.194,807.828 238.694,834.328 214,861.5C 193.068,882.77 171.235,902.937 148.5,922C 128.074,938.727 105.407,951.727 80.5,961C 54.625,969.536 30.2917,966.536 7.5,952C 4.60066,949.271 1.93399,946.438 -0.5,943.5C -0.5,940.167 -0.5,936.833 -0.5,933.5C 3.17577,927.311 7.84244,921.811 13.5,917C 28.328,906.752 43.328,896.752 58.5,887C 64.366,881.469 69.866,875.635 75,869.5C 86.6168,853.549 98.6168,837.882 111,822.5C 171.956,758.031 237.789,699.531 308.5,647C 449.206,548.469 605.54,490.636 777.5,473.5C 823.454,468.607 861.954,449.273 893,415.5C 897.428,409.649 902.094,403.983 907,398.5C 944.505,342.154 982.505,286.154 1021,230.5C 1069.54,163.959 1128.37,108.459 1197.5,64C 1228.13,44.0693 1259.8,25.736 1292.5,9C 1300.49,5.49599 1308.49,2.32932 1316.5,-0.5 Z"/></g>
<g><path style="opacity:0.999" fill="#c6a864" d="M 2155.5,-0.5 C 2159.5,-0.5 2163.5,-0.5 2167.5,-0.5C 2182.65,4.5706 2197.32,11.0706 2211.5,19C 2258.37,45.2579 2303.37,74.2579 2346.5,106C 2390.41,139.91 2428.91,179.077 2462,223.5C 2494.12,270.291 2525.45,317.624 2556,365.5C 2570.93,388.107 2587.76,409.274 2606.5,429C 2627.87,448.854 2652.87,462.187 2681.5,469C 2725.48,475.406 2769.48,481.739 2813.5,488C 2949.84,516.184 3073.84,571.184 3185.5,653C 3254.51,704.322 3318.34,761.822 3377,825.5C 3392.28,847.789 3409.45,868.622 3428.5,888C 3444.16,898.832 3460.16,909.165 3476.5,919C 3481.72,922.689 3485.05,927.522 3486.5,933.5C 3486.5,934.167 3486.5,934.833 3486.5,935.5C 3484.73,943.462 3480.06,949.295 3472.5,953C 3447.13,965.36 3421.13,966.693 3394.5,957C 3377.82,950.493 3362.15,942.16 3347.5,932C 3324.51,914.688 3303.01,895.522 3283,874.5C 3254.57,842.4 3225.07,811.233 3194.5,781C 3104.83,706.531 3004.5,649.864 2893.5,611C 2818.27,583.821 2740.77,567.654 2661,562.5C 2631.5,561.331 2604.34,568.498 2579.5,584C 2557.72,602.67 2550.89,625.837 2559,653.5C 2565.63,668.791 2576.79,679.291 2592.5,685C 2605.78,689.738 2619.45,692.738 2633.5,694C 2775.74,696.39 2908.4,733.057 3031.5,804C 3041.5,810.667 3051.5,817.333 3061.5,824C 3087.22,844.051 3113.22,863.717 3139.5,883C 3149.34,889.757 3159.68,895.757 3170.5,901C 3185.98,906.504 3200.65,904.837 3214.5,896C 3222.54,888.953 3230.88,882.287 3239.5,876C 3243.26,873.844 3247.26,873.177 3251.5,874C 3257.3,878.8 3262.8,883.967 3268,889.5C 3279.83,902.667 3291.67,915.833 3303.5,929C 3315.66,937.581 3327.99,945.914 3340.5,954C 3344.04,956.842 3347.21,960.009 3350,963.5C 3350.67,965.167 3350.67,966.833 3350,968.5C 3340.79,988.525 3339.12,1009.19 3345,1030.5C 3348.35,1042.87 3352.68,1054.87 3358,1066.5C 3370.62,1091.41 3382.95,1116.41 3395,1141.5C 3442.33,1271.83 3455,1405.5 3433,1542.5C 3406.04,1708.74 3335.71,1853.07 3222,1975.5C 3159.88,2039.93 3088.05,2090.77 3006.5,2128C 3001.89,2129.01 2997.56,2128.34 2993.5,2126C 2991,2123.5 2988.5,2121 2986,2118.5C 2985.02,2117.24 2984.68,2115.91 2985,2114.5C 3084.97,2035.21 3162.64,1938.21 3218,1823.5C 3266.64,1719.61 3289.97,1610.27 3288,1495.5C 3279.87,1354.02 3232.21,1228.02 3145,1117.5C 3103.55,1067.36 3054.38,1026.86 2997.5,996C 2935.42,963.314 2869.42,949.647 2799.5,955C 2754.83,958.69 2714.83,974.023 2679.5,1001C 2655.13,1021.56 2639.3,1047.4 2632,1078.5C 2629.79,1092.49 2631.12,1106.16 2636,1119.5C 2640.67,1130.17 2645.33,1140.83 2650,1151.5C 2651.95,1158.18 2651.95,1164.85 2650,1171.5C 2640.74,1187.02 2630.74,1202.02 2620,1216.5C 2601.04,1237.31 2581.54,1237.81 2561.5,1218C 2553.5,1208.67 2544.83,1200 2535.5,1192C 2491.39,1157.43 2444.39,1127.1 2394.5,1101C 2375.09,1091.13 2354.76,1083.8 2333.5,1079C 2318.91,1075.12 2304.58,1075.79 2290.5,1081C 2282.83,1086 2275.17,1091 2267.5,1096C 2199.02,1119.6 2136.02,1109.6 2078.5,1066C 2027.25,1019.26 2006.75,961.429 2017,892.5C 2030.21,836.631 2061.71,794.464 2111.5,766C 2158.08,740.584 2206.41,736.584 2256.5,754C 2287.62,767.442 2313.12,787.942 2333,815.5C 2332.46,823.478 2330.46,831.145 2327,838.5C 2319.78,855.277 2310.78,870.943 2300,885.5C 2297.46,888.372 2294.63,890.872 2291.5,893C 2286.98,893.415 2282.98,892.082 2279.5,889C 2272.22,880.389 2265.72,871.222 2260,861.5C 2225.03,825.843 2186.86,822.01 2145.5,850C 2102.37,884.69 2093.53,926.523 2119,975.5C 2142.2,1010.01 2174.36,1024.18 2215.5,1018C 2235.85,1011.74 2253.02,1000.57 2267,984.5C 2369.34,852.468 2418.34,702.468 2414,534.5C 2406.34,365.95 2347.34,218.617 2237,92.5C 2218.73,73.8933 2199.57,56.3933 2179.5,40C 2168.15,29.1469 2159.82,16.3136 2154.5,1.5C 2154.86,0.816537 2155.2,0.14987 2155.5,-0.5 Z"/></g>
<g><path style="opacity:0.999" fill="#c6a864" d="M 1703.5,575.5 C 1744.6,574.636 1785.6,576.136 1826.5,580C 1865.89,596.025 1903.22,615.691 1938.5,639C 1941.92,641.674 1943.92,645.174 1944.5,649.5C 1942.7,655.568 1940.7,661.568 1938.5,667.5C 1912.44,675.722 1893.28,692.055 1881,716.5C 1876.41,725.924 1872.41,735.591 1869,745.5C 1862.69,766.076 1856.69,786.743 1851,807.5C 1847.26,819.068 1842.92,830.401 1838,841.5C 1836.55,849.676 1837.88,857.343 1842,864.5C 1846.47,869.968 1851.3,875.135 1856.5,880C 1863.6,885.092 1870.1,890.926 1876,897.5C 1880.12,903.955 1881.46,910.955 1880,918.5C 1869.85,935.307 1858.35,951.14 1845.5,966C 1840.94,969.445 1835.94,972.112 1830.5,974C 1819.74,977.024 1809.07,980.357 1798.5,984C 1786.54,988.719 1780.04,997.552 1779,1010.5C 1776.33,1026.5 1773.67,1042.5 1771,1058.5C 1769.25,1071.11 1764.42,1082.27 1756.5,1092C 1747.97,1097.55 1739.3,1097.88 1730.5,1093C 1725.88,1088.26 1722.38,1082.76 1720,1076.5C 1712.86,1053.64 1707.86,1030.31 1705,1006.5C 1702.51,997.332 1697.01,990.499 1688.5,986C 1676.66,980.941 1664.66,976.274 1652.5,972C 1646.84,969.507 1641.51,966.507 1636.5,963C 1625.82,951.136 1615.99,938.636 1607,925.5C 1603.42,916.201 1604.09,907.201 1609,898.5C 1613.13,893.366 1617.63,888.532 1622.5,884C 1631.38,878.121 1638.55,870.621 1644,861.5C 1645.52,855.206 1645.52,848.873 1644,842.5C 1634,791.484 1616.66,743.15 1592,697.5C 1588.67,691.693 1584.51,686.526 1579.5,682C 1568.2,676.674 1556.87,671.341 1545.5,666C 1536.87,660.704 1535.37,653.87 1541,645.5C 1545.88,640.954 1551.04,636.787 1556.5,633C 1589.01,612.408 1623.01,594.408 1658.5,579C 1673.62,577.368 1688.62,576.201 1703.5,575.5 Z"/></g>
<g><path style="opacity:1" fill="#c6a864" d="M 1748.5,4166.5 C 1744.83,4166.5 1741.17,4166.5 1737.5,4166.5C 1734.45,4163.61 1731.95,4160.28 1730,4156.5C 1727.15,4147.73 1725.48,4138.73 1725,4129.5C 1724.92,4103.17 1724.92,4076.83 1725,4050.5C 1719.07,3987.19 1713.4,3923.86 1708,3860.5C 1706.11,3807.85 1704.78,3755.18 1704,3702.5C 1703.27,3670.34 1700.6,3638.34 1696,3606.5C 1694.54,3601.11 1692.87,3595.77 1691,3590.5C 1683.09,3575.01 1674.42,3560.01 1665,3545.5C 1652.08,3523.42 1645.25,3499.58 1644.5,3474C 1643.96,3459.07 1649.96,3447.74 1662.5,3440C 1671.2,3435.65 1679.86,3431.32 1688.5,3427C 1698.02,3420.79 1703.02,3411.96 1703.5,3400.5C 1703.22,3389.82 1700.05,3380.15 1694,3371.5C 1688.27,3366.05 1681.44,3362.89 1673.5,3362C 1658.39,3361.19 1643.39,3359.52 1628.5,3357C 1621.49,3355.41 1615.65,3351.91 1611,3346.5C 1586.36,3294.05 1561.86,3241.55 1537.5,3189C 1538.75,3179.74 1543.75,3173.41 1552.5,3170C 1555.77,3168.8 1559.11,3167.8 1562.5,3167C 1573.19,3165.5 1583.86,3163.83 1594.5,3162C 1606.74,3159.78 1611.91,3152.61 1610,3140.5C 1590.51,3110 1568.34,3081.5 1543.5,3055C 1539.02,3053.05 1534.35,3051.71 1529.5,3051C 1509.17,3051.1 1488.83,3051.1 1468.5,3051C 1457.71,3050.27 1448.38,3046.27 1440.5,3039C 1423.07,3022.24 1407.9,3003.74 1395,2983.5C 1389.95,2976.06 1385.95,2968.06 1383,2959.5C 1382.62,2955.98 1382.12,2952.48 1381.5,2949C 1383.77,2933.21 1385.77,2917.37 1387.5,2901.5C 1385.65,2878.44 1379.81,2856.44 1370,2835.5C 1353.25,2801.64 1333.25,2769.97 1310,2740.5C 1284.12,2708.28 1257.12,2676.95 1229,2646.5C 1185.9,2601.73 1143.9,2556.07 1103,2509.5C 972.509,2340.14 883.509,2150.48 836,1940.5C 815.254,1846.81 808.587,1752.14 816,1656.5C 835.719,1444.04 937.886,1285.87 1122.5,1182C 1130.93,1177.45 1139.59,1173.45 1148.5,1170C 1159.41,1167.09 1170.41,1166.76 1181.5,1169C 1203.63,1175.26 1225.63,1181.93 1247.5,1189C 1342.56,1200.21 1422.39,1170.71 1487,1100.5C 1505.67,1078.28 1520.51,1053.62 1531.5,1026.5C 1545.31,1021.43 1557.47,1024.1 1568,1034.5C 1591.45,1067.29 1614.12,1100.62 1636,1134.5C 1639.85,1142.77 1641.52,1151.44 1641,1160.5C 1640.56,1163.38 1639.56,1166.04 1638,1168.5C 1632.91,1172.3 1627.41,1175.47 1621.5,1178C 1593,1190.61 1564.66,1203.61 1536.5,1217C 1525.62,1224.27 1515.29,1232.27 1505.5,1241C 1488.14,1258.7 1470.47,1276.03 1452.5,1293C 1444.71,1300.06 1436.37,1306.39 1427.5,1312C 1418.04,1316.93 1408.04,1320.26 1397.5,1322C 1367.79,1325.31 1338.12,1328.97 1308.5,1333C 1281.46,1340.19 1256.13,1351.19 1232.5,1366C 1153.28,1418.22 1093.78,1487.39 1054,1573.5C 1028.88,1636.75 1014.88,1702.41 1012,1770.5C 1008.5,1870.81 1020.83,1969.14 1049,2065.5C 1104.35,2255.94 1197.68,2424.28 1329,2570.5C 1336.17,2577.67 1343.33,2584.83 1350.5,2592C 1381.17,2618.67 1411.83,2645.33 1442.5,2672C 1454.18,2683.4 1465.68,2694.9 1477,2706.5C 1489.18,2724.19 1499.85,2742.86 1509,2762.5C 1514.2,2772.42 1521.37,2780.59 1530.5,2787C 1538.42,2790.86 1546.42,2794.53 1554.5,2798C 1565.39,2805.6 1571.22,2816.1 1572,2829.5C 1572.58,2849.34 1572.41,2869.17 1571.5,2889C 1570.4,2902.57 1572.9,2915.4 1579,2927.5C 1588.18,2939.35 1600.35,2945.85 1615.5,2947C 1699.82,2953.64 1784.15,2953.97 1868.5,2948C 1895.91,2945.59 1911.08,2930.76 1914,2903.5C 1914.02,2878.5 1914.02,2853.5 1914,2828.5C 1914.58,2815.15 1920.42,2804.99 1931.5,2798C 1939.5,2794.33 1947.5,2790.67 1955.5,2787C 1963.86,2780.12 1970.69,2771.95 1976,2762.5C 1986.16,2742.17 1997.83,2722.84 2011,2704.5C 2052.59,2660.57 2095.76,2618.41 2140.5,2578C 2187.46,2533.74 2229.96,2485.9 2268,2434.5C 2363.43,2293.55 2426.43,2138.89 2457,1970.5C 2472.46,1887.29 2475.8,1803.62 2467,1719.5C 2459.16,1646.98 2437.49,1578.98 2402,1515.5C 2359.61,1445.11 2301.78,1391.28 2228.5,1354C 2208.75,1344.53 2188.08,1337.86 2166.5,1334C 2139.09,1330.49 2111.76,1326.49 2084.5,1322C 2072.73,1318.78 2062.06,1313.45 2052.5,1306C 2027.38,1286.75 2003.38,1266.09 1980.5,1244C 1964.4,1229.79 1947.4,1216.79 1929.5,1205C 1910.98,1196.16 1891.98,1188.49 1872.5,1182C 1860.26,1177.09 1850.43,1169.25 1843,1158.5C 1842.42,1155.74 1842.75,1153.08 1844,1150.5C 1864.58,1111.64 1887.92,1074.64 1914,1039.5C 1918.91,1033.92 1924.41,1029.09 1930.5,1025C 1940.02,1023.84 1947.86,1027.01 1954,1034.5C 1957.67,1039.17 1961.33,1043.83 1965,1048.5C 1976.42,1066.34 1988.08,1084 2000,1101.5C 2062.94,1170.26 2140.77,1199.09 2233.5,1188C 2257.64,1180.88 2281.97,1174.55 2306.5,1169C 2320.23,1166.53 2333.56,1167.86 2346.5,1173C 2547.85,1280.69 2656.35,1449.19 2672,1678.5C 2677.12,1779.67 2667.12,1879.34 2642,1977.5C 2592.76,2167.16 2509.76,2339.82 2393,2495.5C 2376.38,2515.79 2359.38,2535.79 2342,2555.5C 2296.56,2602.6 2252.23,2650.6 2209,2699.5C 2183.74,2729.08 2160.41,2760.08 2139,2792.5C 2124.46,2814.93 2113.12,2838.93 2105,2864.5C 2101.27,2877.07 2099.43,2889.9 2099.5,2903C 2100.09,2917.74 2101.43,2932.41 2103.5,2947C 2102.5,2963 2097.33,2977.5 2088,2990.5C 2073.94,3008.23 2058.78,3025.06 2042.5,3041C 2035.68,3047.05 2027.68,3050.39 2018.5,3051C 2003.65,3051.76 1988.82,3051.59 1974,3050.5C 1953.67,3049.15 1937.01,3056.15 1924,3071.5C 1906.12,3092.26 1890.45,3114.59 1877,3138.5C 1873.39,3149.34 1876.89,3156.84 1887.5,3161C 1900.48,3163.07 1913.48,3165.07 1926.5,3167C 1940.98,3172.11 1946.48,3182.28 1943,3197.5C 1942.97,3203.61 1940.63,3208.61 1936,3212.5C 1931.49,3219.51 1927.49,3226.85 1924,3234.5C 1914.33,3258.17 1904.67,3281.83 1895,3305.5C 1888.32,3321.15 1879.65,3335.48 1869,3348.5C 1862.13,3355.52 1853.96,3360.35 1844.5,3363C 1833.66,3363.56 1822.83,3363.39 1812,3362.5C 1797.74,3362.07 1788.41,3368.74 1784,3382.5C 1776.25,3397.75 1778.75,3410.91 1791.5,3422C 1802.83,3428.67 1814.17,3435.33 1825.5,3442C 1835.8,3450.77 1841.13,3461.93 1841.5,3475.5C 1840.44,3500.52 1833.6,3523.86 1821,3545.5C 1811.83,3560.51 1803.16,3575.84 1795,3591.5C 1791.27,3601.17 1788.93,3611.17 1788,3621.5C 1784.06,3652.39 1781.4,3683.39 1780,3714.5C 1777.79,3789.17 1775.45,3863.84 1773,3938.5C 1769.66,3979.56 1765.66,4020.56 1761,4061.5C 1761.28,4086.16 1761.28,4110.83 1761,4135.5C 1760.54,4144.69 1758.2,4153.36 1754,4161.5C 1752.27,4163.4 1750.44,4165.07 1748.5,4166.5 Z"/></g>
<g><path style="opacity:0.999" fill="#c6a864" d="M 1735.5,1196.5 C 1744.64,1196.49 1751.48,1200.49 1756,1208.5C 1760.53,1216.22 1764.53,1224.22 1768,1232.5C 1773.94,1248.99 1780.27,1265.32 1787,1281.5C 1800.75,1302.58 1817.91,1320.41 1838.5,1335C 1847.33,1341.25 1856.33,1347.25 1865.5,1353C 1910.42,1377.6 1955.09,1402.6 1999.5,1428C 2011.86,1436.03 2023.36,1445.19 2034,1455.5C 2046.95,1472.29 2051.95,1491.29 2049,1512.5C 2045.82,1532.71 2039.82,1552.05 2031,1570.5C 2014.05,1596.12 1991.22,1614.29 1962.5,1625C 1956.24,1626.48 1949.9,1626.82 1943.5,1626C 1922.2,1616.04 1903.7,1602.21 1888,1584.5C 1881.39,1577.01 1879.06,1568.34 1881,1558.5C 1883.41,1550.28 1886.41,1542.28 1890,1534.5C 1893.62,1523.9 1892.28,1513.9 1886,1504.5C 1874.68,1490.18 1861.18,1478.34 1845.5,1469C 1817.33,1453.08 1788.99,1437.41 1760.5,1422C 1732.83,1407.01 1707.99,1388.17 1686,1365.5C 1674.08,1351.82 1666.58,1335.98 1663.5,1318C 1664.39,1312.98 1665.89,1308.15 1668,1303.5C 1684.65,1270.84 1703.32,1239.51 1724,1209.5C 1727.39,1204.68 1731.22,1200.34 1735.5,1196.5 Z"/></g>
<g><path style="opacity:0.999" fill="#c6a864" d="M 1594.5,1379.5 C 1608.23,1382.96 1612.4,1391.3 1607,1404.5C 1599.73,1418.75 1592.07,1432.75 1584,1446.5C 1581.93,1451.36 1580.27,1456.36 1579,1461.5C 1577.3,1470.72 1580.13,1478.22 1587.5,1484C 1715.34,1566.75 1843,1649.75 1970.5,1733C 1981.3,1746.65 1985.14,1762.15 1982,1779.5C 1978.84,1804.98 1968.34,1826.82 1950.5,1845C 1924.54,1865.65 1895.87,1881.65 1864.5,1893C 1856.5,1895.04 1849.67,1893.21 1844,1887.5C 1842.14,1884.24 1840.98,1880.74 1840.5,1877C 1842.92,1865.74 1845.75,1854.57 1849,1843.5C 1852.61,1822.56 1846.45,1805.06 1830.5,1791C 1810.39,1774.44 1789.39,1759.11 1767.5,1745C 1709.66,1710.24 1651.33,1676.24 1592.5,1643C 1554.23,1620.39 1517.9,1595.06 1483.5,1567C 1458.39,1545.61 1441.23,1519.11 1432,1487.5C 1427.59,1467.37 1433.76,1451.54 1450.5,1440C 1484.3,1426.77 1517.63,1412.43 1550.5,1397C 1565,1390.45 1579.67,1384.62 1594.5,1379.5 Z"/></g>
<g><path style="opacity:0.999" fill="#c6a864" d="M 1547.5,1695.5 C 1568.49,1693.91 1585.66,1701.25 1599,1717.5C 1607.18,1726.37 1611.35,1736.87 1611.5,1749C 1609.83,1761.12 1609.33,1773.29 1610,1785.5C 1611.8,1794.1 1615.47,1801.77 1621,1808.5C 1631.55,1820.05 1643.05,1830.55 1655.5,1840C 1688.34,1861.84 1720.34,1884.84 1751.5,1909C 1763.77,1920.27 1774.94,1932.43 1785,1945.5C 1803,1971.81 1809.66,2000.81 1805,2032.5C 1797.7,2090.64 1787.7,2148.3 1775,2205.5C 1771.72,2221.34 1765.72,2236.01 1757,2249.5C 1749.21,2259.81 1740.21,2261.14 1730,2253.5C 1727.59,2246.38 1726.26,2239.05 1726,2231.5C 1725.5,2210.49 1724.83,2189.49 1724,2168.5C 1718.07,2131.8 1710.41,2095.46 1701,2059.5C 1697.13,2038.44 1688.47,2019.78 1675,2003.5C 1661.12,1988.62 1646.29,1974.79 1630.5,1962C 1605.55,1944.05 1580.88,1925.72 1556.5,1907C 1536.13,1890.96 1518.96,1872.13 1505,1850.5C 1494.51,1829.19 1484.84,1807.52 1476,1785.5C 1472.44,1777.83 1470.77,1769.83 1471,1761.5C 1483.01,1744.82 1496.51,1729.32 1511.5,1715C 1522.01,1705.63 1534.01,1699.13 1547.5,1695.5 Z"/></g>
</svg>
