<?xml version="1.0" encoding="UTF-8"?>
<!DOCTYPE svg PUBLIC "-//W3C//DTD SVG 1.1//EN" "http://www.w3.org/Graphics/SVG/1.1/DTD/svg11.dtd">
<svg xmlns="http://www.w3.org/2000/svg" version="1.1" width="768px" height="1024px" style="shape-rendering:geometricPrecision; text-rendering:geometricPrecision; image-rendering:optimizeQuality; fill-rule:evenodd; clip-rule:evenodd" xmlns:xlink="http://www.w3.org/1999/xlink">
<g><path style="opacity:1" fill="#d3af7e" d="M 618.5,640.5 C 601.717,635.611 585.717,628.778 570.5,620C 559.412,611.26 547.745,603.26 535.5,596C 528.806,589.306 522.14,582.64 515.5,576C 502.711,568.642 488.877,565.142 474,565.5C 453.998,565.973 434.498,569.306 415.5,575.5C 414.808,574.975 414.308,574.308 414,573.5C 413.333,579.167 413.333,584.833 414,590.5C 425.972,600.404 439.472,607.571 454.5,612C 460.839,615.343 467.172,618.676 473.5,622C 484.182,626.335 494.849,630.668 505.5,635C 524.87,653.076 543.37,671.91 561,691.5C 568.323,700.99 574.157,711.324 578.5,722.5C 560.861,708.68 542.528,695.847 523.5,684C 506.491,676.552 489.158,669.885 471.5,664C 452.197,661.64 432.864,659.473 413.5,657.5C 408.938,653.449 403.938,649.949 398.5,647C 394.007,643.507 389.841,639.673 386,635.5C 385.792,644.368 385.292,653.202 384.5,662C 385.257,667.467 384.591,672.801 382.5,678C 386.058,679.892 388.558,682.725 390,686.5C 390.112,694.67 390.445,703.003 391,711.5C 391.273,713.329 392.107,714.829 393.5,716C 396.008,716.654 398.174,717.821 400,719.5C 400.333,722.167 400.667,724.833 401,727.5C 401.333,726.833 401.667,726.167 402,725.5C 406.769,738.866 407.769,752.532 405,766.5C 400.219,784.902 397.053,803.568 395.5,822.5C 395.223,849.463 395.557,876.463 396.5,903.5C 396.581,911.73 395.915,919.897 394.5,928C 394.749,931.592 396.582,934.092 400,935.5C 397.816,946.28 400.816,955.28 409,962.5C 413.443,972.502 413.443,982.502 409,992.5C 404.344,997.979 398.511,1001.65 391.5,1003.5C 384.364,1002.9 377.697,1000.9 371.5,997.5C 362.771,984.024 360.438,969.524 364.5,954C 358.754,946.009 358.254,937.842 363,929.5C 365.447,907.867 365.447,886.2 363,864.5C 361.118,861.377 358.785,858.711 356,856.5C 353.398,852.242 354.231,848.909 358.5,846.5C 356.556,810.615 350.556,775.448 340.5,741C 341.894,737.545 343.228,734.045 344.5,730.5C 338.101,719.942 331.935,709.276 326,698.5C 325.667,691.5 325.333,684.5 325,677.5C 323.056,673.89 320.723,670.557 318,667.5C 317.201,661.515 316.535,655.515 316,649.5C 313.667,646.5 311.333,643.5 309,640.5C 308.333,632.167 308.333,623.833 309,615.5C 309.5,615 310,614.5 310.5,614C 299.022,600.355 286.689,587.522 273.5,575.5C 266.496,587.84 260.329,600.507 255,613.5C 255.769,619.549 256.436,625.549 257,631.5C 256.152,634.56 255.152,637.56 254,640.5C 252.104,641.68 250.604,643.18 249.5,645C 250.517,647.787 250.684,650.62 250,653.5C 245.458,660.273 243.958,667.606 245.5,675.5C 247.685,677.35 249.018,679.684 249.5,682.5C 241.548,697.855 236.048,714.189 233,731.5C 225.65,783.264 217.983,834.93 210,886.5C 209.333,898.5 209.333,910.5 210,922.5C 210.437,929.252 212.271,935.585 215.5,941.5C 213.587,945.996 212.253,950.662 211.5,955.5C 212.039,958.248 212.872,960.915 214,963.5C 223.935,971.253 226.102,980.753 220.5,992C 211.316,997.77 201.316,1000.1 190.5,999C 187.37,996.872 184.537,994.372 182,991.5C 179.149,985.281 177.316,978.781 176.5,972C 177.527,946.205 179.86,920.538 183.5,895C 180.491,859.745 176.658,824.578 172,789.5C 170.019,755.168 170.019,720.835 172,686.5C 172.413,683.768 173.08,681.101 174,678.5C 176.889,676.366 180.056,674.699 183.5,673.5C 183.474,660.215 185.307,647.215 189,634.5C 193.086,626.03 193.419,617.363 190,608.5C 180.336,619.855 169.169,621.522 156.5,613.5C 147.018,589.421 142.018,564.421 141.5,538.5C 138.581,537.816 136.081,536.482 134,534.5C 134.509,483.839 134.509,433.172 134,382.5C 132.779,369.183 131.779,355.85 131,342.5C 129.69,337.876 127.356,333.876 124,330.5C 121.51,323.956 121.01,317.289 122.5,310.5C 125.167,309.833 127.833,309.167 130.5,308.5C 129.756,305.557 129.256,302.557 129,299.5C 122.859,294.216 120.359,287.549 121.5,279.5C 124.432,279.454 127.098,279.954 129.5,281C 128.54,279.581 127.707,278.081 127,276.5C 126.333,258.833 126.333,241.167 127,223.5C 127.792,221.413 128.959,219.579 130.5,218C 140.855,215.623 150.855,212.29 160.5,208C 163.833,205.667 167.167,203.333 170.5,201C 178.167,200.667 185.833,200.333 193.5,200C 199.769,198.424 206.102,197.09 212.5,196C 224.632,185.568 233.132,172.735 238,157.5C 238.971,144.081 238.304,130.748 236,117.5C 232.334,103.827 228.167,90.3271 223.5,77C 223.955,75.276 224.788,73.776 226,72.5C 233.522,65.9762 240.689,59.1428 247.5,52C 249.275,50.5611 251.275,49.5611 253.5,49C 258.681,48.6377 263.848,48.1377 269,47.5C 281.831,47.6399 294.665,47.9732 307.5,48.5C 308.289,53.7017 309.789,58.7017 312,63.5C 314.119,60.2236 316.453,57.2236 319,54.5C 320.319,55.3185 321.485,56.3185 322.5,57.5C 324.429,64.8904 328.429,70.7237 334.5,75C 337.833,75.6667 341.167,75.6667 344.5,75C 348.236,73.8184 351.903,72.8184 355.5,72C 351.653,78.1018 345.986,81.4352 338.5,82C 329.484,84.4317 321.984,82.265 316,75.5C 315.667,75.8333 315.333,76.1667 315,76.5C 315.147,79.8316 315.647,83.165 316.5,86.5C 315.486,93.8908 314.152,101.224 312.5,108.5C 313.02,111.912 313.853,115.245 315,118.5C 315.762,124 314.428,129 311,133.5C 309.96,140.326 308.294,146.992 306,153.5C 302.5,157 299,160.5 295.5,164C 297.5,165.333 299.5,166.667 301.5,168C 309.174,176.673 317.507,184.673 326.5,192C 329.167,195.333 331.833,198.667 334.5,202C 340.942,201.811 347.275,200.478 353.5,198C 355.5,197.333 357.5,197.333 359.5,198C 362.842,201.009 365.842,204.343 368.5,208C 374.079,211.235 379.412,214.902 384.5,219C 390.931,221.493 397.598,223.16 404.5,224C 407.435,225.977 408.768,228.81 408.5,232.5C 406.455,246.95 405.122,261.45 404.5,276C 405.989,278.977 407.655,281.81 409.5,284.5C 408.301,288.243 406.135,291.243 403,293.5C 402.125,294.873 401.625,296.373 401.5,298C 402.377,306.986 405.377,314.986 410.5,322C 408.734,325.689 406.567,329.189 404,332.5C 401.779,354.113 401.112,375.78 402,397.5C 407.334,432.681 410.167,468.014 410.5,503.5C 418.975,505.266 427.641,506.1 436.5,506C 449.485,509.16 461.485,514.494 472.5,522C 478.215,527.446 483.215,533.446 487.5,540C 496.518,542.774 505.685,543.607 515,542.5C 536.94,546.469 555.607,556.469 571,572.5C 575.695,578.522 580.361,584.522 585,590.5C 585.704,592.278 586.204,594.112 586.5,596C 585.065,600.139 583.731,604.306 582.5,608.5C 582.577,610.299 583.077,611.966 584,613.5C 594.54,623.89 606.04,632.89 618.5,640.5 Z M 187.5,342.5 C 189.39,342.297 190.89,342.963 192,344.5C 198.605,359.647 203.605,375.314 207,391.5C 208.103,408.585 207.437,425.585 205,442.5C 193.933,475.068 187.766,508.568 186.5,543C 186.667,547.5 186.833,552 187,556.5C 189.301,557.676 189.634,559.01 188,560.5C 184.368,555.866 180.368,551.533 176,547.5C 169.922,536.895 169.088,525.895 173.5,514.5C 176.108,512.126 178.108,509.293 179.5,506C 177.567,503.268 175.067,501.101 172,499.5C 170.596,497.361 169.763,495.028 169.5,492.5C 171.004,472.145 175.504,452.479 183,433.5C 184.457,428.227 185.124,422.894 185,417.5C 178.362,412.531 175.862,405.865 177.5,397.5C 177.932,378.566 181.266,360.233 187.5,342.5 Z M 358.5,356.5 C 359.611,379.348 360.778,402.348 362,425.5C 364.261,436.38 366.761,447.213 369.5,458C 368.812,466.511 367.978,475.011 367,483.5C 363.667,479.5 360.333,475.5 357,471.5C 354.413,466.739 352.413,461.739 351,456.5C 347.239,440.838 344.405,425.004 342.5,409C 343.968,396.627 346.468,384.46 350,372.5C 352.072,366.686 354.905,361.353 358.5,356.5 Z"/></g>
<g><path style="opacity:1" fill="#d3af7e" d="M 618.5,640.5 C 619.492,640.328 620.158,640.662 620.5,641.5C 619.508,641.672 618.842,641.338 618.5,640.5 Z"/></g>
<g><path style="opacity:1" fill="#d3af7e" d="M 620.5,641.5 C 621.833,642.167 621.833,642.167 620.5,641.5 Z"/></g>
<g><path style="opacity:1" fill="#d3af7e" d="M 578.5,722.5 C 579.167,722.5 579.5,722.833 579.5,723.5C 579.167,723.167 578.833,722.833 578.5,722.5 Z"/></g>
<g><path style="opacity:1" fill="#d3af7e" d="M 579.5,723.5 C 580.833,724.167 580.833,724.167 579.5,723.5 Z"/></g>
<g><path style="opacity:1" fill="#d3af7e" d="M 580.5,725.5 C 581.833,726.167 581.833,726.167 580.5,725.5 Z"/></g>
</svg>
