<?xml version="1.0" encoding="UTF-8"?>
<!DOCTYPE svg PUBLIC "-//W3C//DTD SVG 1.1//EN" "http://www.w3.org/Graphics/SVG/1.1/DTD/svg11.dtd">
<svg xmlns="http://www.w3.org/2000/svg" version="1.1" width="1536px" height="2048px" style="shape-rendering:geometricPrecision; text-rendering:geometricPrecision; image-rendering:optimizeQuality; fill-rule:evenodd; clip-rule:evenodd" xmlns:xlink="http://www.w3.org/1999/xlink">
<g><path style="opacity:0.998" fill="#00befe" d="M 843.5,227.5 C 846.132,220.321 848.465,212.988 850.5,205.5C 852.109,193.362 851.442,181.362 848.5,169.5C 847.618,168.24 846.618,167.074 845.5,166C 842.21,164.736 838.876,163.57 835.5,162.5C 831.419,158.959 826.752,156.293 821.5,154.5C 815.381,152.805 809.381,150.805 803.5,148.5C 800.914,147.52 798.247,147.187 795.5,147.5C 799.142,156.124 802.808,164.791 806.5,173.5C 817.898,193.687 826.565,215.021 832.5,237.5C 834.942,257.455 835.609,277.455 834.5,297.5C 833.091,309.645 828.425,320.312 820.5,329.5C 819.571,330.689 819.238,332.022 819.5,333.5C 813.542,335.807 807.542,338.14 801.5,340.5C 793.911,342.174 786.577,341.508 779.5,338.5C 777.336,335.841 776.002,332.841 775.5,329.5C 778.447,330.644 781.113,332.311 783.5,334.5C 792.086,336.903 799.086,334.57 804.5,327.5C 807.624,322.585 809.624,317.252 810.5,311.5C 812.665,294.98 810.665,278.98 804.5,263.5C 801.715,255.929 798.381,248.595 794.5,241.5C 783.25,225.339 772.75,208.673 763,191.5C 759.177,188.651 756.677,189.651 755.5,194.5C 764.326,217.803 770.326,241.803 773.5,266.5C 772.36,281.307 764.36,288.973 749.5,289.5C 742.504,289.084 735.837,287.418 729.5,284.5C 734.833,283.833 740.167,283.167 745.5,282.5C 749.5,279.167 753.167,275.5 756.5,271.5C 757.833,264.833 757.833,258.167 756.5,251.5C 752.659,245.822 749.326,239.822 746.5,233.5C 740.512,257.814 730.846,280.481 717.5,301.5C 721.435,313.364 726.435,324.698 732.5,335.5C 736.378,345.47 740.044,355.47 743.5,365.5C 752.971,370.778 762.971,375.111 773.5,378.5C 788.552,380.173 803.219,383.507 817.5,388.5C 828.833,389.167 840.167,389.833 851.5,390.5C 864.998,399.11 873.331,411.443 876.5,427.5C 878.617,446.525 876.95,465.191 871.5,483.5C 874.362,504.732 876.028,526.066 876.5,547.5C 889.826,587.478 903.159,627.478 916.5,667.5C 921.523,676.223 925.189,685.557 927.5,695.5C 926.266,701.211 924.266,706.544 921.5,711.5C 922.298,714.893 923.298,718.226 924.5,721.5C 927.833,723.5 931.167,725.5 934.5,727.5C 938.5,732.833 942.5,738.167 946.5,743.5C 947.399,747.538 949.066,751.205 951.5,754.5C 954.167,755.833 956.833,757.167 959.5,758.5C 971.087,762.585 982.753,766.252 994.5,769.5C 999.264,780.32 1001.6,791.653 1001.5,803.5C 1009.39,805.471 1017.39,806.804 1025.5,807.5C 1029.41,818.47 1031.74,829.803 1032.5,841.5C 1033.62,842.544 1034.96,843.21 1036.5,843.5C 1042.8,841.343 1049.13,839.343 1055.5,837.5C 1056.17,837.833 1056.83,838.167 1057.5,838.5C 1063.25,845.654 1068.25,853.321 1072.5,861.5C 1073.47,863.396 1073.8,865.396 1073.5,867.5C 1078.88,866.424 1084.21,865.09 1089.5,863.5C 1093.58,864.971 1097.58,866.638 1101.5,868.5C 1103.9,870.305 1105.57,872.638 1106.5,875.5C 1109.83,884.473 1112.83,893.473 1115.5,902.5C 1127.34,907.559 1139.34,912.226 1151.5,916.5C 1152.5,917.5 1153.5,918.5 1154.5,919.5C 1155.66,923.797 1156.66,928.131 1157.5,932.5C 1156.07,938.085 1155.4,943.751 1155.5,949.5C 1160.63,949.811 1165.63,949.145 1170.5,947.5C 1175.84,950.004 1179.67,954.004 1182,959.5C 1186.66,962.96 1189.83,967.293 1191.5,972.5C 1190.03,979.502 1188.7,986.502 1187.5,993.5C 1196.15,994.354 1204.82,995.021 1213.5,995.5C 1213.2,997.604 1213.53,999.604 1214.5,1001.5C 1216.59,1003.75 1217.92,1006.41 1218.5,1009.5C 1219.83,1014.17 1219.83,1018.83 1218.5,1023.5C 1217.5,1024.5 1216.5,1025.5 1215.5,1026.5C 1210.74,1027.52 1206.08,1028.86 1201.5,1030.5C 1202.55,1031.55 1203.55,1032.55 1204.5,1033.5C 1215.42,1043.08 1226.08,1053.08 1236.5,1063.5C 1239.4,1064.79 1241.73,1066.79 1243.5,1069.5C 1242.42,1072 1241.09,1074.33 1239.5,1076.5C 1241.33,1077.25 1243,1078.25 1244.5,1079.5C 1247.1,1090.74 1247.76,1102.07 1246.5,1113.5C 1245.5,1114.5 1244.5,1115.5 1243.5,1116.5C 1248.3,1119.21 1253.3,1121.55 1258.5,1123.5C 1260.48,1131.46 1264.48,1138.13 1270.5,1143.5C 1281.53,1159.68 1278.53,1172.68 1261.5,1182.5C 1265.22,1185.62 1268.22,1189.28 1270.5,1193.5C 1273.83,1200.83 1277.17,1208.17 1280.5,1215.5C 1284.49,1220.8 1288.49,1226.13 1292.5,1231.5C 1294.55,1238.01 1297.55,1244.01 1301.5,1249.5C 1299.87,1273.41 1298.87,1297.41 1298.5,1321.5C 1297.18,1326.13 1296.18,1330.79 1295.5,1335.5C 1287.84,1336.05 1280.17,1336.72 1272.5,1337.5C 1268.83,1337.17 1265.17,1336.83 1261.5,1336.5C 1264.73,1335.27 1267.4,1333.27 1269.5,1330.5C 1270.69,1329.57 1272.02,1329.24 1273.5,1329.5C 1276.32,1324.5 1278.66,1319.17 1280.5,1313.5C 1286.24,1291.66 1286.91,1269.66 1282.5,1247.5C 1281.83,1246.83 1281.17,1246.17 1280.5,1245.5C 1274.68,1265.14 1266.68,1283.8 1256.5,1301.5C 1250.6,1307.64 1244.93,1313.98 1239.5,1320.5C 1238.31,1321.43 1236.98,1321.76 1235.5,1321.5C 1235.48,1324.53 1234.15,1326.87 1231.5,1328.5C 1227.5,1331.17 1223.5,1333.83 1219.5,1336.5C 1207.29,1340.24 1195.29,1344.57 1183.5,1349.5C 1182.83,1349.17 1182.17,1348.83 1181.5,1348.5C 1185.24,1344.13 1189.57,1340.46 1194.5,1337.5C 1195.43,1336.31 1195.76,1334.98 1195.5,1333.5C 1196.83,1333.5 1198.17,1333.5 1199.5,1333.5C 1209.47,1317.58 1218.47,1300.91 1226.5,1283.5C 1230.04,1275.87 1231.71,1267.87 1231.5,1259.5C 1230.02,1259.24 1228.69,1259.57 1227.5,1260.5C 1221.31,1268.87 1214.64,1276.87 1207.5,1284.5C 1204.27,1285.43 1201.6,1287.09 1199.5,1289.5C 1204.49,1269.54 1209.49,1249.54 1214.5,1229.5C 1221.68,1215.8 1228.35,1201.8 1234.5,1187.5C 1236.4,1186.05 1238.07,1184.39 1239.5,1182.5C 1236.69,1180.58 1234.03,1178.42 1231.5,1176C 1221.19,1172.9 1217.53,1166.06 1220.5,1155.5C 1223.61,1143.79 1226.61,1132.13 1229.5,1120.5C 1227.4,1116.48 1224.07,1114.48 1219.5,1114.5C 1214.76,1109.77 1210.43,1104.77 1206.5,1099.5C 1205.17,1095.5 1205.17,1091.5 1206.5,1087.5C 1209.41,1082.36 1211.74,1077.02 1213.5,1071.5C 1209.5,1071.5 1207.5,1069.5 1207.5,1065.5C 1202.25,1064.21 1197.58,1061.87 1193.5,1058.5C 1190.83,1055.17 1187.83,1052.17 1184.5,1049.5C 1183.17,1046.83 1183.17,1044.17 1184.5,1041.5C 1189.67,1036.17 1190.67,1030.17 1187.5,1023.5C 1186.17,1023.5 1184.83,1023.5 1183.5,1023.5C 1184,1018.5 1184.67,1013.5 1185.5,1008.5C 1185.11,1004.74 1184.44,1001.08 1183.5,997.5C 1172.31,994.203 1160.98,991.203 1149.5,988.5C 1145.04,984.564 1143.04,979.564 1143.5,973.5C 1143.85,969.983 1144.35,966.649 1145,963.5C 1133.59,960.382 1123.43,955.048 1114.5,947.5C 1112.55,943.716 1111.22,939.716 1110.5,935.5C 1109.63,926.132 1108.63,916.799 1107.5,907.5C 1102.73,907.387 1098.06,908.053 1093.5,909.5C 1092.17,909.167 1090.83,908.833 1089.5,908.5C 1082.17,899.83 1075.17,890.83 1068.5,881.5C 1067.28,878.191 1066.28,874.858 1065.5,871.5C 1054.79,874.232 1044.12,873.899 1033.5,870.5C 1031.67,869.752 1030,868.752 1028.5,867.5C 1027.37,862.165 1026.37,856.831 1025.5,851.5C 1014.4,852.326 1003.74,850.659 993.5,846.5C 988.984,837.859 988.318,828.859 991.5,819.5C 991.167,817.5 990.833,815.5 990.5,813.5C 985.027,811.379 979.36,809.713 973.5,808.5C 968.95,805.299 964.617,801.633 960.5,797.5C 957.833,788.167 955.167,778.833 952.5,769.5C 950.5,774.167 947.167,777.5 942.5,779.5C 941.571,778.311 941.238,776.978 941.5,775.5C 938.465,775.479 936.132,774.146 934.5,771.5C 934.167,772.5 933.833,773.5 933.5,774.5C 934.936,781.421 935.936,788.421 936.5,795.5C 945.169,830.838 953.835,866.172 962.5,901.5C 964.384,908.485 967.05,915.152 970.5,921.5C 975.167,926.833 979.833,932.167 984.5,937.5C 987.308,941.778 988.974,946.444 989.5,951.5C 988.306,958.416 986.306,965.082 983.5,971.5C 983.833,972.833 984.167,974.167 984.5,975.5C 987.672,979.841 990.339,984.508 992.5,989.5C 995.721,999.162 999.721,1008.49 1004.5,1017.5C 1007.11,1022.11 1010.44,1026.11 1014.5,1029.5C 1022.47,1046.68 1025.8,1064.68 1024.5,1083.5C 1021.33,1087.84 1018.66,1092.51 1016.5,1097.5C 1012.59,1099.41 1009.26,1102.07 1006.5,1105.5C 1005.27,1108.73 1003.27,1111.4 1000.5,1113.5C 999.571,1114.69 999.238,1116.02 999.5,1117.5C 996.988,1117.42 994.988,1118.42 993.5,1120.5C 987.963,1122.23 982.296,1123.23 976.5,1123.5C 966.129,1122.09 955.796,1120.43 945.5,1118.5C 939.93,1116.22 934.93,1113.22 930.5,1109.5C 929.003,1105.84 927.003,1102.5 924.5,1099.5C 922.063,1091.18 919.063,1083.18 915.5,1075.5C 912.755,1075.63 910.755,1074.46 909.5,1072C 908.207,1071.51 906.873,1071.34 905.5,1071.5C 904.712,1068.57 904.046,1065.57 903.5,1062.5C 904.901,1057.74 907.235,1053.41 910.5,1049.5C 911.269,1041.19 913.269,1033.19 916.5,1025.5C 920.5,1018.83 924.5,1012.17 928.5,1005.5C 930.262,998.64 932.596,991.973 935.5,985.5C 933.495,981.351 931.329,977.351 929,973.5C 924.793,969.771 921.959,965.104 920.5,959.5C 919.371,954.191 918.371,948.857 917.5,943.5C 919.313,935.914 920.647,928.247 921.5,920.5C 921.226,914.704 920.226,909.037 918.5,903.5C 903.347,870.723 889.347,837.39 876.5,803.5C 868.642,774.593 859.976,745.927 850.5,717.5C 847.517,704.253 845.183,690.92 843.5,677.5C 836.431,676.397 829.764,674.064 823.5,670.5C 820.833,667.167 817.833,664.167 814.5,661.5C 811.001,656.007 809.001,650.007 808.5,643.5C 803.261,640.721 798.261,637.721 793.5,634.5C 790.992,629.314 787.325,624.981 782.5,621.5C 782.167,619.5 781.833,617.5 781.5,615.5C 782.214,610.561 783.381,605.894 785,601.5C 778.424,599.945 771.924,597.945 765.5,595.5C 756.678,626.455 748.011,657.455 739.5,688.5C 745.268,705.907 749.935,723.573 753.5,741.5C 762.712,739.613 772.045,738.279 781.5,737.5C 786.267,737.775 790.934,738.441 795.5,739.5C 795.5,740.833 795.5,742.167 795.5,743.5C 796.833,743.5 798.167,743.5 799.5,743.5C 799.521,746.535 800.854,748.868 803.5,750.5C 806.656,752.689 809.989,754.356 813.5,755.5C 814.002,758.841 815.336,761.841 817.5,764.5C 825.071,767.285 832.405,770.619 839.5,774.5C 843.134,778.1 845.467,782.433 846.5,787.5C 848.164,801.468 849.497,815.468 850.5,829.5C 853.486,843.442 856.152,857.442 858.5,871.5C 859.497,878.803 859.831,886.137 859.5,893.5C 846.196,895.792 832.863,897.792 819.5,899.5C 819.18,902.898 819.513,906.232 820.5,909.5C 825.7,914.417 830.367,919.751 834.5,925.5C 836.089,931.443 837.422,937.443 838.5,943.5C 842.074,986.814 845.407,1030.15 848.5,1073.5C 849.22,1077.72 850.553,1081.72 852.5,1085.5C 862.108,1093.77 871.441,1102.44 880.5,1111.5C 883.448,1129.41 884.115,1147.41 882.5,1165.5C 880.717,1172.4 877.383,1178.4 872.5,1183.5C 871.621,1188.23 870.621,1192.9 869.5,1197.5C 866.167,1198.83 862.833,1200.17 859.5,1201.5C 859.5,1202.83 859.5,1204.17 859.5,1205.5C 856.465,1205.52 854.132,1206.85 852.5,1209.5C 852.167,1213.83 851.833,1218.17 851.5,1222.5C 852.255,1231.83 852.922,1241.16 853.5,1250.5C 853.406,1256.28 852.739,1261.94 851.5,1267.5C 852.791,1272.96 854.457,1278.29 856.5,1283.5C 862.208,1287.7 867.541,1292.36 872.5,1297.5C 873.167,1299.5 873.833,1301.5 874.5,1303.5C 874.833,1308.5 875.167,1313.5 875.5,1318.5C 874.826,1332.94 873.492,1347.28 871.5,1361.5C 875.833,1368.83 880.167,1376.17 884.5,1383.5C 887.833,1395.5 891.167,1407.5 894.5,1419.5C 899.539,1429.93 904.206,1440.6 908.5,1451.5C 911.16,1467.45 913.494,1483.45 915.5,1499.5C 913.352,1521.47 913.018,1543.47 914.5,1565.5C 918.591,1593.35 921.258,1621.35 922.5,1649.5C 932.399,1654.36 942.733,1658.02 953.5,1660.5C 960.683,1666.53 965.017,1674.2 966.5,1683.5C 968.167,1685.83 970.167,1687.83 972.5,1689.5C 980.193,1707.91 985.86,1726.91 989.5,1746.5C 987.973,1755.44 987.306,1764.44 987.5,1773.5C 999.212,1774.21 1003.55,1780.21 1000.5,1791.5C 996.869,1799.83 991.202,1801.49 983.5,1796.5C 982.167,1794.5 980.5,1792.83 978.5,1791.5C 976.379,1782.29 975.045,1772.96 974.5,1763.5C 971.198,1758.99 970.865,1754.32 973.5,1749.5C 972.192,1746.27 971.192,1742.94 970.5,1739.5C 968.377,1738.31 966.043,1737.64 963.5,1737.5C 958.238,1738.06 953.238,1739.4 948.5,1741.5C 947.833,1746.83 947.167,1752.17 946.5,1757.5C 945.833,1794.17 945.167,1830.83 944.5,1867.5C 943.986,1887.2 942.986,1906.87 941.5,1926.5C 944.615,1938.97 946.615,1951.64 947.5,1964.5C 947.044,1972.24 946.044,1979.9 944.5,1987.5C 943.921,1990.59 942.587,1993.25 940.5,1995.5C 939.534,1997.4 939.201,1999.4 939.5,2001.5C 935.371,2001.87 931.371,2002.87 927.5,2004.5C 905.831,2016.93 882.498,2021.6 857.5,2018.5C 854.007,2017.56 850.674,2016.22 847.5,2014.5C 845.03,2010.69 841.697,2008.02 837.5,2006.5C 835.995,2005.16 835.328,2003.49 835.5,2001.5C 834.167,2001.5 832.833,2001.5 831.5,2001.5C 829.144,1995.42 827.81,1989.08 827.5,1982.5C 828.809,1970.62 831.142,1958.96 834.5,1947.5C 838.664,1938.63 842.997,1929.96 847.5,1921.5C 848.833,1921.5 850.167,1921.5 851.5,1921.5C 851.328,1919.51 851.995,1917.84 853.5,1916.5C 858.297,1915.04 862.631,1912.7 866.5,1909.5C 868.369,1904.23 870.035,1898.89 871.5,1893.5C 869.173,1887.51 866.839,1881.51 864.5,1875.5C 863.032,1861.04 866.698,1848.04 875.5,1836.5C 871.735,1826.45 868.735,1816.12 866.5,1805.5C 865.197,1801.05 862.197,1798.72 857.5,1798.5C 857.023,1797.52 856.357,1796.69 855.5,1796C 852.237,1795.94 849.237,1795.1 846.5,1793.5C 839.902,1800.46 832.568,1806.46 824.5,1811.5C 822.559,1807.95 820.893,1804.29 819.5,1800.5C 821.926,1797.24 823.593,1793.57 824.5,1789.5C 828.5,1784.17 832.5,1778.83 836.5,1773.5C 842.925,1764.1 842.925,1754.77 836.5,1745.5C 833.5,1741.83 830.167,1738.5 826.5,1735.5C 824.794,1731.25 822.461,1727.42 819.5,1724C 814.645,1723.54 809.978,1724.38 805.5,1726.5C 804.248,1728 803.248,1729.67 802.5,1731.5C 801.754,1735.9 800.754,1740.23 799.5,1744.5C 801.077,1752.78 802.41,1761.11 803.5,1769.5C 803.346,1773.1 802.346,1776.43 800.5,1779.5C 797.833,1780.83 795.167,1782.17 792.5,1783.5C 790.671,1781.84 789.337,1779.84 788.5,1777.5C 787.144,1750.79 787.81,1724.12 790.5,1697.5C 793.009,1696.08 795.343,1694.41 797.5,1692.5C 800.244,1691.7 802.911,1690.7 805.5,1689.5C 811.441,1693 816.774,1697.33 821.5,1702.5C 822.5,1702.83 823.5,1703.17 824.5,1703.5C 827.5,1702.5 830.5,1701.5 833.5,1700.5C 838.923,1692.66 844.589,1684.99 850.5,1677.5C 850.833,1675.83 851.167,1674.17 851.5,1672.5C 848.927,1654.18 848.927,1635.85 851.5,1617.5C 851.167,1614.83 850.833,1612.17 850.5,1609.5C 840.246,1587.99 834.246,1565.32 832.5,1541.5C 827.423,1522.13 822.09,1502.79 816.5,1483.5C 813.746,1476.07 809.08,1470.07 802.5,1465.5C 801.571,1464.31 801.238,1462.98 801.5,1461.5C 800.167,1461.5 798.833,1461.5 797.5,1461.5C 793.342,1453.84 789.676,1445.84 786.5,1437.5C 775.993,1419.82 765.993,1401.82 756.5,1383.5C 754.5,1377.5 752.5,1371.5 750.5,1365.5C 749.809,1359.35 748.475,1353.35 746.5,1347.5C 744.256,1319.22 740.256,1291.22 734.5,1263.5C 714.49,1214.14 698.49,1163.47 686.5,1111.5C 684.354,1093.22 682.688,1074.88 681.5,1056.5C 682.561,1050.87 683.228,1045.2 683.5,1039.5C 669.384,1040.09 655.384,1039.43 641.5,1037.5C 640.833,1037.83 640.167,1038.17 639.5,1038.5C 626.196,1059.44 615.862,1081.78 608.5,1105.5C 602.326,1138.2 593.659,1170.2 582.5,1201.5C 580.647,1224.19 578.647,1246.85 576.5,1269.5C 571.85,1294.07 567.85,1318.74 564.5,1343.5C 554.965,1393.44 538.298,1440.78 514.5,1485.5C 509.439,1498.68 504.772,1512.02 500.5,1525.5C 490.654,1544.53 481.32,1563.86 472.5,1583.5C 470.5,1590.17 468.5,1596.83 466.5,1603.5C 462.833,1623.17 459.167,1642.83 455.5,1662.5C 459.381,1677.93 465.714,1692.26 474.5,1705.5C 476.167,1707.83 478.167,1709.83 480.5,1711.5C 490.228,1729.39 499.561,1747.39 508.5,1765.5C 520.234,1777.95 528.234,1792.62 532.5,1809.5C 537.424,1818.68 541.758,1828.01 545.5,1837.5C 544.809,1839.89 543.809,1839.89 542.5,1837.5C 537.918,1827.04 532.751,1817.04 527,1807.5C 519.482,1801.16 513.316,1793.83 508.5,1785.5C 503.078,1781.58 498.078,1777.08 493.5,1772C 490.002,1771.79 486.669,1770.96 483.5,1769.5C 478.027,1770.64 475.027,1773.97 474.5,1779.5C 473.167,1785.5 473.167,1791.5 474.5,1797.5C 477.905,1803.25 480.905,1809.25 483.5,1815.5C 482.039,1820.72 481.039,1826.05 480.5,1831.5C 479.833,1832.17 479.167,1832.83 478.5,1833.5C 474.167,1828.5 469.5,1823.83 464.5,1819.5C 463.571,1818.31 463.238,1816.98 463.5,1815.5C 462.167,1815.5 460.833,1815.5 459.5,1815.5C 459.672,1813.51 459.005,1811.84 457.5,1810.5C 454.167,1808.83 450.833,1807.17 447.5,1805.5C 444.872,1807.13 442.539,1809.13 440.5,1811.5C 437.833,1818.17 435.167,1824.83 432.5,1831.5C 427.848,1854.77 428.848,1877.77 435.5,1900.5C 438.89,1909.61 442.557,1918.61 446.5,1927.5C 454.91,1937.24 462.91,1947.24 470.5,1957.5C 471.303,1960.24 472.303,1962.91 473.5,1965.5C 470.89,1978.07 466.557,1990.07 460.5,2001.5C 453.594,2008.79 445.261,2013.79 435.5,2016.5C 429.023,2019.24 422.357,2019.9 415.5,2018.5C 406.868,2016.3 398.868,2012.97 391.5,2008.5C 387.5,2003.83 383.167,1999.5 378.5,1995.5C 373.117,1985.18 370.117,1974.18 369.5,1962.5C 370.998,1947.55 371.998,1932.55 372.5,1917.5C 375.137,1906.95 377.137,1896.28 378.5,1885.5C 379.539,1868.17 380.539,1850.84 381.5,1833.5C 380.379,1812.84 379.379,1792.17 378.5,1771.5C 375.596,1761.6 371.263,1752.44 365.5,1744C 360.782,1744.17 356.115,1745.01 351.5,1746.5C 350.5,1747.5 349.5,1748.5 348.5,1749.5C 347.833,1777.5 347.167,1805.5 346.5,1833.5C 342.999,1829.52 340.999,1824.85 340.5,1819.5C 336.86,1801.66 334.526,1783.66 333.5,1765.5C 333.47,1756.7 334.47,1748.03 336.5,1739.5C 342.665,1733.18 347.331,1725.85 350.5,1717.5C 352.132,1714.85 354.465,1713.52 357.5,1713.5C 360.884,1699.96 364.884,1686.63 369.5,1673.5C 374.297,1671.72 378.297,1668.72 381.5,1664.5C 382.689,1663.57 384.022,1663.24 385.5,1663.5C 385.5,1662.17 385.5,1660.83 385.5,1659.5C 386.833,1659.5 388.167,1659.5 389.5,1659.5C 389.167,1640.82 389.5,1622.15 390.5,1603.5C 393.353,1573.56 395.353,1543.56 396.5,1513.5C 399.819,1504.26 403.153,1494.93 406.5,1485.5C 410.089,1469.56 413.422,1453.56 416.5,1437.5C 417.167,1436.83 417.833,1436.17 418.5,1435.5C 421.714,1424.52 425.714,1413.86 430.5,1403.5C 435.167,1388.83 439.833,1374.17 444.5,1359.5C 444.971,1328.5 448.305,1297.84 454.5,1267.5C 455.167,1256.83 455.833,1246.17 456.5,1235.5C 460.5,1226.17 460.5,1216.83 456.5,1207.5C 450.968,1197.28 444.302,1187.95 436.5,1179.5C 433.078,1170.41 431.744,1161.07 432.5,1151.5C 434.5,1146.17 436.5,1140.83 438.5,1135.5C 440.685,1118.68 443.685,1102.02 447.5,1085.5C 447.167,1084.17 446.833,1082.83 446.5,1081.5C 444.349,1088.29 442.016,1094.96 439.5,1101.5C 435.412,1102.56 432.079,1104.9 429.5,1108.5C 423.736,1111.72 417.736,1114.38 411.5,1116.5C 409.5,1118.5 407.5,1120.5 405.5,1122.5C 399.391,1123.77 393.391,1123.44 387.5,1121.5C 387.5,1120.17 387.5,1118.83 387.5,1117.5C 385.396,1117.8 383.396,1117.47 381.5,1116.5C 380.352,1114.85 379.019,1113.35 377.5,1112C 368.395,1107.09 360.062,1100.92 352.5,1093.5C 350.5,1089.5 348.5,1085.5 346.5,1081.5C 345.961,1076.05 344.961,1070.72 343.5,1065.5C 345.184,1053.41 347.518,1041.41 350.5,1029.5C 353.767,1023.54 357.101,1017.54 360.5,1011.5C 367.523,983.05 373.523,954.383 378.5,925.5C 388.84,888.429 394.506,850.763 395.5,812.5C 393.927,805.628 392.594,798.628 391.5,791.5C 392.883,784.071 395.883,777.404 400.5,771.5C 403.833,768.833 406.833,765.833 409.5,762.5C 410.689,761.571 412.022,761.238 413.5,761.5C 414.336,756.321 416.336,751.654 419.5,747.5C 418.355,744.016 416.022,742.016 412.5,741.5C 408.877,742.656 405.211,743.656 401.5,744.5C 400.5,745.5 399.5,746.5 398.5,747.5C 396.723,753.851 394.389,759.851 391.5,765.5C 386.972,766.937 382.306,767.604 377.5,767.5C 376.671,773.986 374.671,779.986 371.5,785.5C 363.749,784.248 360.083,787.582 360.5,795.5C 359.752,797.332 358.752,798.999 357.5,800.5C 354.232,801.487 350.898,801.82 347.5,801.5C 347.328,803.492 347.995,805.158 349.5,806.5C 348.002,809.967 347.002,813.634 346.5,817.5C 344.5,821.5 342.5,825.5 340.5,829.5C 334.387,831.401 328.053,832.068 321.5,831.5C 321.16,834.144 321.827,836.477 323.5,838.5C 322.207,841.719 320.54,844.719 318.5,847.5C 318.778,859.274 314.445,868.94 305.5,876.5C 302.167,877.167 298.833,877.833 295.5,878.5C 293.343,880.412 291.009,882.079 288.5,883.5C 287.394,889.218 287.727,894.885 289.5,900.5C 288.058,913.607 280.724,919.94 267.5,919.5C 267.339,929.133 265.673,938.466 262.5,947.5C 258.131,950.357 254.131,953.69 250.5,957.5C 248.658,963.172 246.325,968.505 243.5,973.5C 239.009,975.41 234.342,976.744 229.5,977.5C 232.732,990.508 231.732,1003.18 226.5,1015.5C 225.5,1016.5 224.5,1017.5 223.5,1018.5C 216.979,1020.45 210.646,1022.78 204.5,1025.5C 205.03,1041.48 205.03,1057.48 204.5,1073.5C 198.947,1079.94 194.947,1087.27 192.5,1095.5C 190.167,1098.83 187.833,1102.17 185.5,1105.5C 186.901,1111.14 188.901,1116.48 191.5,1121.5C 190.372,1126.14 189.372,1130.81 188.5,1135.5C 183.723,1145.61 177.389,1154.61 169.5,1162.5C 173.287,1166.54 177.953,1168.88 183.5,1169.5C 183.579,1171.67 184.246,1173.67 185.5,1175.5C 183.049,1182.4 180.049,1189.07 176.5,1195.5C 175.509,1199.45 175.176,1203.45 175.5,1207.5C 179.37,1208.8 183.37,1209.47 187.5,1209.5C 187.169,1218.19 187.502,1226.86 188.5,1235.5C 192.839,1241.67 197.339,1247.67 202,1253.5C 209.774,1262.97 219.608,1269.31 231.5,1272.5C 245.5,1276.5 259.5,1276.5 273.5,1272.5C 278.628,1269.71 283.961,1267.37 289.5,1265.5C 293.522,1258.44 297.189,1251.11 300.5,1243.5C 301.013,1237.39 302.013,1231.39 303.5,1225.5C 301.531,1222.3 301.197,1218.97 302.5,1215.5C 305.524,1217.01 308.191,1219.01 310.5,1221.5C 314.4,1226.46 317.734,1231.79 320.5,1237.5C 326.18,1253.96 326.847,1270.63 322.5,1287.5C 319.437,1299.77 315.77,1311.77 311.5,1323.5C 310.167,1323.5 308.833,1323.5 307.5,1323.5C 307.517,1327.12 306.517,1330.45 304.5,1333.5C 302.167,1335.83 299.833,1338.17 297.5,1340.5C 294.339,1341.91 291.339,1343.58 288.5,1345.5C 286.401,1343.47 284.068,1343.13 281.5,1344.5C 287.264,1347.72 293.264,1350.38 299.5,1352.5C 308.226,1353.08 316.893,1354.08 325.5,1355.5C 334.164,1353.83 342.831,1352.17 351.5,1350.5C 354.362,1349.57 356.695,1347.9 358.5,1345.5C 358.833,1346.5 359.167,1347.5 359.5,1348.5C 355.664,1362.34 346.998,1371.67 333.5,1376.5C 324.167,1377.83 314.833,1377.83 305.5,1376.5C 296.712,1374.24 288.046,1371.57 279.5,1368.5C 276.326,1367.02 273.66,1364.86 271.5,1362C 266.523,1361.52 266.189,1362.68 270.5,1365.5C 273.319,1373.13 276.652,1380.47 280.5,1387.5C 282.334,1391.49 285.001,1394.82 288.5,1397.5C 289.429,1398.69 289.762,1400.02 289.5,1401.5C 281.76,1394.27 273.926,1386.6 266,1378.5C 263.667,1374.83 261.333,1371.17 259,1367.5C 254.714,1364.4 251.88,1360.4 250.5,1355.5C 247.85,1352.35 245.016,1349.35 242,1346.5C 237.908,1339.31 233.575,1332.31 229,1325.5C 223.409,1321.1 219.243,1315.77 216.5,1309.5C 207.533,1298.26 199.533,1286.26 192.5,1273.5C 189.339,1269.31 186.006,1265.31 182.5,1261.5C 180.917,1259.01 179.917,1256.34 179.5,1253.5C 178.167,1253.5 176.833,1253.5 175.5,1253.5C 175.083,1250.66 174.083,1247.99 172.5,1245.5C 170.107,1243.11 168.107,1240.44 166.5,1237.5C 165.158,1236 163.492,1235.33 161.5,1235.5C 161.577,1232.99 160.577,1230.99 158.5,1229.5C 157.355,1221.13 157.688,1212.79 159.5,1204.5C 158.379,1196.47 156.046,1188.8 152.5,1181.5C 146.81,1176.8 143.143,1170.8 141.5,1163.5C 143.222,1157.45 146.222,1152.11 150.5,1147.5C 151.167,1142.17 151.833,1136.83 152.5,1131.5C 153.167,1130.83 153.833,1130.17 154.5,1129.5C 155.833,1121.5 155.833,1113.5 154.5,1105.5C 150.779,1098.54 151.779,1092.21 157.5,1086.5C 158.689,1085.57 160.022,1085.24 161.5,1085.5C 161.5,1084.17 161.5,1082.83 161.5,1081.5C 162.833,1081.5 164.167,1081.5 165.5,1081.5C 165.483,1077.88 166.483,1074.55 168.5,1071.5C 169.754,1060.13 169.421,1048.8 167.5,1037.5C 167.833,1034.83 168.167,1032.17 168.5,1029.5C 171.833,1026.83 174.833,1023.83 177.5,1020.5C 178.689,1019.57 180.022,1019.24 181.5,1019.5C 181.238,1018.02 181.571,1016.69 182.5,1015.5C 185.524,1013.99 188.191,1011.99 190.5,1009.5C 191.429,1008.31 191.762,1006.98 191.5,1005.5C 192.833,1005.5 194.167,1005.5 195.5,1005.5C 195.771,997.623 198.771,990.957 204.5,985.5C 208.604,979.58 208.271,973.913 203.5,968.5C 205.005,967.158 205.672,965.492 205.5,963.5C 210.005,962.669 213.005,960.002 214.5,955.5C 216.5,954.167 218.5,952.833 220.5,951.5C 221.399,947.462 223.066,943.795 225.5,940.5C 228.656,938.311 231.989,936.644 235.5,935.5C 235.5,934.167 235.5,932.833 235.5,931.5C 236.833,931.5 238.167,931.5 239.5,931.5C 239.17,924.8 239.503,918.134 240.5,911.5C 243.565,907.375 247.565,904.709 252.5,903.5C 255.591,892.965 258.258,882.298 260.5,871.5C 266.724,864.889 274.391,861.222 283.5,860.5C 284.5,859.5 285.5,858.5 286.5,857.5C 288.815,848.905 290.815,840.239 292.5,831.5C 298.5,829.5 304.5,827.5 310.5,825.5C 312.353,817.196 314.019,808.863 315.5,800.5C 316.701,797.29 318.701,794.623 321.5,792.5C 327.651,791.809 333.651,790.475 339.5,788.5C 343.736,784.216 348.736,781.216 354.5,779.5C 355.167,774.833 355.833,770.167 356.5,765.5C 359.167,760.167 363.167,756.167 368.5,753.5C 369.22,749.284 370.553,745.284 372.5,741.5C 378.228,735.767 384.228,730.433 390.5,725.5C 391.167,720.167 391.833,714.833 392.5,709.5C 394.5,706.167 396.5,702.833 398.5,699.5C 402.869,696.643 406.869,693.31 410.5,689.5C 411.001,682.993 413.001,676.993 416.5,671.5C 419.833,668.833 422.833,665.833 425.5,662.5C 430.904,659.82 436.237,657.153 441.5,654.5C 440.833,654.167 440.167,653.833 439.5,653.5C 438.167,654.167 436.833,654.833 435.5,655.5C 432.27,654.192 428.936,653.192 425.5,652.5C 420.713,650.051 417.379,646.384 415.5,641.5C 415.558,638.441 416.891,636.108 419.5,634.5C 430.59,634.366 439.923,630.366 447.5,622.5C 449.5,621.833 451.5,621.167 453.5,620.5C 428.093,611.351 419.427,593.685 427.5,567.5C 429.5,567.5 431.5,567.5 433.5,567.5C 432.983,579.622 436.983,589.955 445.5,598.5C 446.689,599.429 448.022,599.762 449.5,599.5C 449.201,597.396 449.534,595.396 450.5,593.5C 457.586,581.995 463.586,569.995 468.5,557.5C 469.16,542.42 468.16,527.42 465.5,512.5C 465.379,509.079 466.712,506.412 469.5,504.5C 468.119,502.365 467.119,500.032 466.5,497.5C 463.676,469.611 466.342,442.278 474.5,415.5C 477.696,406.303 484.029,400.636 493.5,398.5C 505.5,397.833 517.5,397.167 529.5,396.5C 536.167,394.5 542.833,392.5 549.5,390.5C 550.921,387.991 552.588,385.657 554.5,383.5C 555.466,381.604 555.799,379.604 555.5,377.5C 556.978,377.762 558.311,377.429 559.5,376.5C 560.921,373.991 562.588,371.657 564.5,369.5C 565.636,357.151 568.303,345.151 572.5,333.5C 573.73,330.268 575.73,327.601 578.5,325.5C 578.808,318.304 580.808,311.637 584.5,305.5C 586.928,302.402 589.928,300.069 593.5,298.5C 594.921,295.991 596.588,293.657 598.5,291.5C 599.167,288.167 599.833,284.833 600.5,281.5C 601.5,280.5 602.5,279.5 603.5,278.5C 606.032,277.881 608.365,276.881 610.5,275.5C 610.833,274.167 611.167,272.833 611.5,271.5C 606.864,255.623 602.864,239.623 599.5,223.5C 596.068,223.243 592.734,222.576 589.5,221.5C 587.788,213.358 585.454,205.358 582.5,197.5C 581.167,188.833 581.167,180.167 582.5,171.5C 585.298,170.047 588.298,169.047 591.5,168.5C 592.415,167.672 593.081,166.672 593.5,165.5C 588.407,136.637 592.741,109.303 606.5,83.5C 608.686,79.8017 611.353,76.4683 614.5,73.5C 615.429,72.3112 615.762,70.9778 615.5,69.5C 621.261,67.4251 625.928,63.7584 629.5,58.5C 635.797,56.3485 641.797,53.6818 647.5,50.5C 667.44,44.132 687.44,44.132 707.5,50.5C 713.702,54.433 720.035,58.0996 726.5,61.5C 730.701,59.971 734.034,57.3043 736.5,53.5C 742.906,46.4202 748.573,38.7535 753.5,30.5C 756.167,29.1667 758.833,29.1667 761.5,30.5C 763.833,32.8333 766.167,35.1667 768.5,37.5C 769.429,38.6888 769.762,40.0222 769.5,41.5C 770.833,41.5 772.167,41.5 773.5,41.5C 773.674,46.6927 776.008,50.6927 780.5,53.5C 781.833,56.1667 783.167,58.8333 784.5,61.5C 791.898,70.6145 799.064,79.9478 806,89.5C 811.591,93.9003 815.757,99.2336 818.5,105.5C 830.663,122.474 841.33,140.474 850.5,159.5C 855.535,171.344 858.535,183.677 859.5,196.5C 859.006,207.997 855.006,217.997 847.5,226.5C 846.311,227.429 844.978,227.762 843.5,227.5 Z M 504.5,800.5 C 505.032,806.833 505.698,813.166 506.5,819.5C 506.195,823.932 505.528,828.265 504.5,832.5C 503.022,832.238 501.689,832.571 500.5,833.5C 498.257,837.748 495.257,841.414 491.5,844.5C 483.712,859.637 478.379,875.637 475.5,892.5C 474.833,897.167 474.167,901.833 473.5,906.5C 471.868,909.146 469.535,910.479 466.5,910.5C 465.036,925.767 464.036,941.1 463.5,956.5C 459.419,981.068 456.086,1005.73 453.5,1030.5C 452.833,1033.17 452.167,1035.83 451.5,1038.5C 450.833,1039.17 450.167,1039.83 449.5,1040.5C 446.661,1038.58 443.661,1036.91 440.5,1035.5C 439.248,1034 438.248,1032.33 437.5,1030.5C 435.5,1029.17 433.5,1027.83 431.5,1026.5C 422.86,1010.97 419.193,994.303 420.5,976.5C 420.117,962.248 421.784,948.248 425.5,934.5C 431.942,915.177 439.942,896.51 449.5,878.5C 464.341,856.151 479.674,834.151 495.5,812.5C 497.083,810.01 498.083,807.343 498.5,804.5C 499.833,804.5 501.167,804.5 502.5,804.5C 502.157,802.517 502.824,801.183 504.5,800.5 Z M 504.5,800.5 C 504.238,799.022 504.571,797.689 505.5,796.5C 505.833,797.167 506.167,797.833 506.5,798.5C 506.253,799.713 505.586,800.38 504.5,800.5 Z M 936.5,776.5 C 934.663,776.361 934.33,775.694 935.5,774.5C 936.298,774.957 936.631,775.624 936.5,776.5 Z M 534.5,632.5 C 536.13,634.359 537.796,636.359 539.5,638.5C 544.18,651.853 548.846,665.186 553.5,678.5C 553.833,680.833 554.167,683.167 554.5,685.5C 552.725,696.483 551.058,707.483 549.5,718.5C 546.167,723.167 542.833,727.833 539.5,732.5C 536.284,738.264 533.617,744.264 531.5,750.5C 526.833,756.5 522.167,762.5 517.5,768.5C 513.5,776.5 509.5,784.5 505.5,792.5C 503.158,789.714 500.158,788.047 496.5,787.5C 493.045,784.721 490.379,781.388 488.5,777.5C 490.059,769.817 491.725,762.15 493.5,754.5C 498.946,738.943 504.946,723.61 511.5,708.5C 519.785,683.314 527.452,657.981 534.5,632.5 Z M 836.5,630.5 C 838.337,630.639 838.67,631.306 837.5,632.5C 836.702,632.043 836.369,631.376 836.5,630.5 Z M 836.5,630.5 C 832.074,627.954 827.408,625.954 822.5,624.5C 821.153,618.448 819.486,612.448 817.5,606.5C 815.167,604.167 812.833,601.833 810.5,599.5C 808.604,598.534 806.604,598.201 804.5,598.5C 804.49,582.131 799.157,567.798 788.5,555.5C 785.833,554.167 783.167,552.833 780.5,551.5C 784.925,538.134 788.258,524.467 790.5,510.5C 792.492,510.328 794.158,510.995 795.5,512.5C 802.57,533.043 809.237,553.71 815.5,574.5C 823.07,592.97 830.07,611.636 836.5,630.5 Z M 620.5,298.5 C 624.011,299.644 627.344,301.311 630.5,303.5C 632.78,307.447 635.447,311.113 638.5,314.5C 637.074,319.052 636.074,323.719 635.5,328.5C 634.833,330.5 634.167,332.5 633.5,334.5C 628.055,340.614 623.388,347.28 619.5,354.5C 617.191,356.987 614.524,358.987 611.5,360.5C 609.5,365.167 607.5,369.833 605.5,374.5C 603.191,376.987 600.524,378.987 597.5,380.5C 595.457,378.792 593.79,376.792 592.5,374.5C 593.604,370.833 595.271,367.5 597.5,364.5C 598.13,358.757 599.13,353.09 600.5,347.5C 598.759,342.946 597.426,338.279 596.5,333.5C 596.833,331.833 597.167,330.167 597.5,328.5C 600.647,325.532 603.314,322.198 605.5,318.5C 606.167,314.5 606.833,310.5 607.5,306.5C 610.298,305.047 613.298,304.047 616.5,303.5C 618.261,302.083 619.594,300.417 620.5,298.5 Z M 746.5,238.5 C 749.452,243.037 752.452,247.704 755.5,252.5C 756.833,258.5 756.833,264.5 755.5,270.5C 751.833,274.167 748.167,277.833 744.5,281.5C 739.88,282.493 735.214,282.827 730.5,282.5C 733.96,273.8 737.626,265.133 741.5,256.5C 742.871,250.342 744.538,244.342 746.5,238.5 Z"/></g>
<g><path style="opacity:0.142" fill="#e0fcff" d="M 1204.5,1032.5 C 1216.43,1041.09 1227.09,1051.09 1236.5,1062.5C 1236.5,1062.83 1236.5,1063.17 1236.5,1063.5C 1226.08,1053.08 1215.42,1043.08 1204.5,1033.5C 1204.5,1033.17 1204.5,1032.83 1204.5,1032.5 Z"/></g>
<g><path style="opacity:0.212" fill="#fcfefe" d="M 1204.5,1032.5 C 1204.5,1032.83 1204.5,1033.17 1204.5,1033.5C 1203.55,1032.55 1202.55,1031.55 1201.5,1030.5C 1206.08,1028.86 1210.74,1027.52 1215.5,1026.5C 1216.5,1025.5 1217.5,1024.5 1218.5,1023.5C 1219.83,1018.83 1219.83,1014.17 1218.5,1009.5C 1217.92,1006.41 1216.59,1003.75 1214.5,1001.5C 1213.53,999.604 1213.2,997.604 1213.5,995.5C 1204.82,995.021 1196.15,994.354 1187.5,993.5C 1188.7,986.502 1190.03,979.502 1191.5,972.5C 1189.83,967.293 1186.66,962.96 1182,959.5C 1179.67,954.004 1175.84,950.004 1170.5,947.5C 1165.63,949.145 1160.63,949.811 1155.5,949.5C 1155.4,943.751 1156.07,938.085 1157.5,932.5C 1156.66,928.131 1155.66,923.797 1154.5,919.5C 1153.5,918.5 1152.5,917.5 1151.5,916.5C 1139.34,912.226 1127.34,907.559 1115.5,902.5C 1112.83,893.473 1109.83,884.473 1106.5,875.5C 1105.57,872.638 1103.9,870.305 1101.5,868.5C 1097.58,866.638 1093.58,864.971 1089.5,863.5C 1084.21,865.09 1078.88,866.424 1073.5,867.5C 1073.8,865.396 1073.47,863.396 1072.5,861.5C 1068.25,853.321 1063.25,845.654 1057.5,838.5C 1056.83,838.167 1056.17,837.833 1055.5,837.5C 1049.13,839.343 1042.8,841.343 1036.5,843.5C 1034.96,843.21 1033.62,842.544 1032.5,841.5C 1031.74,829.803 1029.41,818.47 1025.5,807.5C 1017.39,806.804 1009.39,805.471 1001.5,803.5C 1001.6,791.653 999.264,780.32 994.5,769.5C 982.753,766.252 971.087,762.585 959.5,758.5C 956.833,757.167 954.167,755.833 951.5,754.5C 949.066,751.205 947.399,747.538 946.5,743.5C 942.5,738.167 938.5,732.833 934.5,727.5C 931.167,725.5 927.833,723.5 924.5,721.5C 923.298,718.226 922.298,714.893 921.5,711.5C 924.266,706.544 926.266,701.211 927.5,695.5C 925.189,685.557 921.523,676.223 916.5,667.5C 903.159,627.478 889.826,587.478 876.5,547.5C 876.028,526.066 874.362,504.732 871.5,483.5C 876.95,465.191 878.617,446.525 876.5,427.5C 873.331,411.443 864.998,399.11 851.5,390.5C 840.167,389.833 828.833,389.167 817.5,388.5C 803.219,383.507 788.552,380.173 773.5,378.5C 762.971,375.111 752.971,370.778 743.5,365.5C 740.044,355.47 736.378,345.47 732.5,335.5C 726.435,324.698 721.435,313.364 717.5,301.5C 730.846,280.481 740.512,257.814 746.5,233.5C 749.326,239.822 752.659,245.822 756.5,251.5C 757.833,258.167 757.833,264.833 756.5,271.5C 753.167,275.5 749.5,279.167 745.5,282.5C 740.167,283.167 734.833,283.833 729.5,284.5C 735.837,287.418 742.504,289.084 749.5,289.5C 764.36,288.973 772.36,281.307 773.5,266.5C 770.326,241.803 764.326,217.803 755.5,194.5C 756.677,189.651 759.177,188.651 763,191.5C 772.75,208.673 783.25,225.339 794.5,241.5C 798.381,248.595 801.715,255.929 804.5,263.5C 810.665,278.98 812.665,294.98 810.5,311.5C 809.624,317.252 807.624,322.585 804.5,327.5C 799.086,334.57 792.086,336.903 783.5,334.5C 781.113,332.311 778.447,330.644 775.5,329.5C 776.002,332.841 777.336,335.841 779.5,338.5C 786.577,341.508 793.911,342.174 801.5,340.5C 807.542,338.14 813.542,335.807 819.5,333.5C 819.238,332.022 819.571,330.689 820.5,329.5C 828.425,320.312 833.091,309.645 834.5,297.5C 835.609,277.455 834.942,257.455 832.5,237.5C 826.565,215.021 817.898,193.687 806.5,173.5C 802.808,164.791 799.142,156.124 795.5,147.5C 798.247,147.187 800.914,147.52 803.5,148.5C 809.381,150.805 815.381,152.805 821.5,154.5C 826.752,156.293 831.419,158.959 835.5,162.5C 838.876,163.57 842.21,164.736 845.5,166C 846.618,167.074 847.618,168.24 848.5,169.5C 851.442,181.362 852.109,193.362 850.5,205.5C 848.465,212.988 846.132,220.321 843.5,227.5C 844.978,227.762 846.311,227.429 847.5,226.5C 855.006,217.997 859.006,207.997 859.5,196.5C 858.535,183.677 855.535,171.344 850.5,159.5C 841.33,140.474 830.663,122.474 818.5,105.5C 815.757,99.2336 811.591,93.9003 806,89.5C 799.064,79.9478 791.898,70.6145 784.5,61.5C 783.167,58.8333 781.833,56.1667 780.5,53.5C 776.008,50.6927 773.674,46.6927 773.5,41.5C 772.167,41.5 770.833,41.5 769.5,41.5C 769.762,40.0222 769.429,38.6888 768.5,37.5C 766.167,35.1667 763.833,32.8333 761.5,30.5C 758.833,29.1667 756.167,29.1667 753.5,30.5C 748.573,38.7535 742.906,46.4202 736.5,53.5C 734.034,57.3043 730.701,59.971 726.5,61.5C 720.035,58.0996 713.702,54.433 707.5,50.5C 687.44,44.132 667.44,44.132 647.5,50.5C 641.797,53.6818 635.797,56.3485 629.5,58.5C 625.928,63.7584 621.261,67.4251 615.5,69.5C 615.762,70.9778 615.429,72.3112 614.5,73.5C 611.353,76.4683 608.686,79.8017 606.5,83.5C 592.741,109.303 588.407,136.637 593.5,165.5C 593.081,166.672 592.415,167.672 591.5,168.5C 588.298,169.047 585.298,170.047 582.5,171.5C 581.167,180.167 581.167,188.833 582.5,197.5C 585.454,205.358 587.788,213.358 589.5,221.5C 592.734,222.576 596.068,223.243 599.5,223.5C 602.864,239.623 606.864,255.623 611.5,271.5C 611.167,272.833 610.833,274.167 610.5,275.5C 608.365,276.881 606.032,277.881 603.5,278.5C 602.5,279.5 601.5,280.5 600.5,281.5C 599.833,284.833 599.167,288.167 598.5,291.5C 596.588,293.657 594.921,295.991 593.5,298.5C 589.928,300.069 586.928,302.402 584.5,305.5C 580.808,311.637 578.808,318.304 578.5,325.5C 575.73,327.601 573.73,330.268 572.5,333.5C 568.303,345.151 565.636,357.151 564.5,369.5C 562.588,371.657 560.921,373.991 559.5,376.5C 558.311,377.429 556.978,377.762 555.5,377.5C 555.799,379.604 555.466,381.604 554.5,383.5C 552.588,385.657 550.921,387.991 549.5,390.5C 542.833,392.5 536.167,394.5 529.5,396.5C 517.5,397.167 505.5,397.833 493.5,398.5C 484.029,400.636 477.696,406.303 474.5,415.5C 466.342,442.278 463.676,469.611 466.5,497.5C 467.119,500.032 468.119,502.365 469.5,504.5C 466.712,506.412 465.379,509.079 465.5,512.5C 468.16,527.42 469.16,542.42 468.5,557.5C 463.586,569.995 457.586,581.995 450.5,593.5C 449.534,595.396 449.201,597.396 449.5,599.5C 448.022,599.762 446.689,599.429 445.5,598.5C 436.983,589.955 432.983,579.622 433.5,567.5C 431.5,567.5 429.5,567.5 427.5,567.5C 419.427,593.685 428.093,611.351 453.5,620.5C 451.5,621.167 449.5,621.833 447.5,622.5C 439.923,630.366 430.59,634.366 419.5,634.5C 416.891,636.108 415.558,638.441 415.5,641.5C 417.379,646.384 420.713,650.051 425.5,652.5C 428.936,653.192 432.27,654.192 435.5,655.5C 436.833,654.833 438.167,654.167 439.5,653.5C 440.167,653.833 440.833,654.167 441.5,654.5C 436.237,657.153 430.904,659.82 425.5,662.5C 422.833,665.833 419.833,668.833 416.5,671.5C 413.001,676.993 411.001,682.993 410.5,689.5C 406.869,693.31 402.869,696.643 398.5,699.5C 396.5,702.833 394.5,706.167 392.5,709.5C 391.833,714.833 391.167,720.167 390.5,725.5C 384.228,730.433 378.228,735.767 372.5,741.5C 370.553,745.284 369.22,749.284 368.5,753.5C 363.167,756.167 359.167,760.167 356.5,765.5C 355.833,770.167 355.167,774.833 354.5,779.5C 348.736,781.216 343.736,784.216 339.5,788.5C 333.651,790.475 327.651,791.809 321.5,792.5C 318.701,794.623 316.701,797.29 315.5,800.5C 314.019,808.863 312.353,817.196 310.5,825.5C 304.5,827.5 298.5,829.5 292.5,831.5C 290.815,840.239 288.815,848.905 286.5,857.5C 285.5,858.5 284.5,859.5 283.5,860.5C 274.391,861.222 266.724,864.889 260.5,871.5C 258.258,882.298 255.591,892.965 252.5,903.5C 247.565,904.709 243.565,907.375 240.5,911.5C 239.503,918.134 239.17,924.8 239.5,931.5C 238.167,931.5 236.833,931.5 235.5,931.5C 235.5,932.833 235.5,934.167 235.5,935.5C 231.989,936.644 228.656,938.311 225.5,940.5C 223.066,943.795 221.399,947.462 220.5,951.5C 218.5,952.833 216.5,954.167 214.5,955.5C 213.005,960.002 210.005,962.669 205.5,963.5C 205.672,965.492 205.005,967.158 203.5,968.5C 208.271,973.913 208.604,979.58 204.5,985.5C 198.771,990.957 195.771,997.623 195.5,1005.5C 194.167,1005.5 192.833,1005.5 191.5,1005.5C 191.762,1006.98 191.429,1008.31 190.5,1009.5C 188.191,1011.99 185.524,1013.99 182.5,1015.5C 181.571,1016.69 181.238,1018.02 181.5,1019.5C 180.022,1019.24 178.689,1019.57 177.5,1020.5C 174.833,1023.83 171.833,1026.83 168.5,1029.5C 168.167,1032.17 167.833,1034.83 167.5,1037.5C 169.421,1048.8 169.754,1060.13 168.5,1071.5C 166.483,1074.55 165.483,1077.88 165.5,1081.5C 164.167,1081.5 162.833,1081.5 161.5,1081.5C 161.5,1082.83 161.5,1084.17 161.5,1085.5C 160.022,1085.24 158.689,1085.57 157.5,1086.5C 151.779,1092.21 150.779,1098.54 154.5,1105.5C 155.833,1113.5 155.833,1121.5 154.5,1129.5C 153.833,1130.17 153.167,1130.83 152.5,1131.5C 151.833,1136.83 151.167,1142.17 150.5,1147.5C 146.222,1152.11 143.222,1157.45 141.5,1163.5C 143.143,1170.8 146.81,1176.8 152.5,1181.5C 156.046,1188.8 158.379,1196.47 159.5,1204.5C 157.688,1212.79 157.355,1221.13 158.5,1229.5C 160.577,1230.99 161.577,1232.99 161.5,1235.5C 163.492,1235.33 165.158,1236 166.5,1237.5C 168.107,1240.44 170.107,1243.11 172.5,1245.5C 174.083,1247.99 175.083,1250.66 175.5,1253.5C 176.833,1253.5 178.167,1253.5 179.5,1253.5C 179.917,1256.34 180.917,1259.01 182.5,1261.5C 186.006,1265.31 189.339,1269.31 192.5,1273.5C 199.533,1286.26 207.533,1298.26 216.5,1309.5C 219.243,1315.77 223.409,1321.1 229,1325.5C 233.575,1332.31 237.908,1339.31 242,1346.5C 245.016,1349.35 247.85,1352.35 250.5,1355.5C 251.88,1360.4 254.714,1364.4 259,1367.5C 261.333,1371.17 263.667,1374.83 266,1378.5C 273.926,1386.6 281.76,1394.27 289.5,1401.5C 289.762,1400.02 289.429,1398.69 288.5,1397.5C 285.001,1394.82 282.334,1391.49 280.5,1387.5C 276.652,1380.47 273.319,1373.13 270.5,1365.5C 266.189,1362.68 266.523,1361.52 271.5,1362C 273.66,1364.86 276.326,1367.02 279.5,1368.5C 288.046,1371.57 296.712,1374.24 305.5,1376.5C 314.833,1377.83 324.167,1377.83 333.5,1376.5C 346.998,1371.67 355.664,1362.34 359.5,1348.5C 359.167,1347.5 358.833,1346.5 358.5,1345.5C 356.695,1347.9 354.362,1349.57 351.5,1350.5C 342.831,1352.17 334.164,1353.83 325.5,1355.5C 316.893,1354.08 308.226,1353.08 299.5,1352.5C 293.264,1350.38 287.264,1347.72 281.5,1344.5C 284.068,1343.13 286.401,1343.47 288.5,1345.5C 291.339,1343.58 294.339,1341.91 297.5,1340.5C 299.833,1338.17 302.167,1335.83 304.5,1333.5C 306.517,1330.45 307.517,1327.12 307.5,1323.5C 308.833,1323.5 310.167,1323.5 311.5,1323.5C 315.77,1311.77 319.437,1299.77 322.5,1287.5C 326.847,1270.63 326.18,1253.96 320.5,1237.5C 317.734,1231.79 314.4,1226.46 310.5,1221.5C 308.191,1219.01 305.524,1217.01 302.5,1215.5C 301.197,1218.97 301.531,1222.3 303.5,1225.5C 302.013,1231.39 301.013,1237.39 300.5,1243.5C 297.189,1251.11 293.522,1258.44 289.5,1265.5C 283.961,1267.37 278.628,1269.71 273.5,1272.5C 259.5,1276.5 245.5,1276.5 231.5,1272.5C 219.608,1269.31 209.774,1262.97 202,1253.5C 197.339,1247.67 192.839,1241.67 188.5,1235.5C 187.502,1226.86 187.169,1218.19 187.5,1209.5C 183.37,1209.47 179.37,1208.8 175.5,1207.5C 175.176,1203.45 175.509,1199.45 176.5,1195.5C 180.049,1189.07 183.049,1182.4 185.5,1175.5C 184.246,1173.67 183.579,1171.67 183.5,1169.5C 177.953,1168.88 173.287,1166.54 169.5,1162.5C 177.389,1154.61 183.723,1145.61 188.5,1135.5C 189.372,1130.81 190.372,1126.14 191.5,1121.5C 188.901,1116.48 186.901,1111.14 185.5,1105.5C 187.833,1102.17 190.167,1098.83 192.5,1095.5C 194.947,1087.27 198.947,1079.94 204.5,1073.5C 205.03,1057.48 205.03,1041.48 204.5,1025.5C 210.646,1022.78 216.979,1020.45 223.5,1018.5C 224.5,1017.5 225.5,1016.5 226.5,1015.5C 231.732,1003.18 232.732,990.508 229.5,977.5C 234.342,976.744 239.009,975.41 243.5,973.5C 246.325,968.505 248.658,963.172 250.5,957.5C 254.131,953.69 258.131,950.357 262.5,947.5C 265.673,938.466 267.339,929.133 267.5,919.5C 280.724,919.94 288.058,913.607 289.5,900.5C 287.727,894.885 287.394,889.218 288.5,883.5C 291.009,882.079 293.343,880.412 295.5,878.5C 298.833,877.833 302.167,877.167 305.5,876.5C 314.445,868.94 318.778,859.274 318.5,847.5C 320.54,844.719 322.207,841.719 323.5,838.5C 321.827,836.477 321.16,834.144 321.5,831.5C 328.053,832.068 334.387,831.401 340.5,829.5C 342.5,825.5 344.5,821.5 346.5,817.5C 347.002,813.634 348.002,809.967 349.5,806.5C 347.995,805.158 347.328,803.492 347.5,801.5C 350.898,801.82 354.232,801.487 357.5,800.5C 358.752,798.999 359.752,797.332 360.5,795.5C 360.083,787.582 363.749,784.248 371.5,785.5C 374.671,779.986 376.671,773.986 377.5,767.5C 382.306,767.604 386.972,766.937 391.5,765.5C 394.389,759.851 396.723,753.851 398.5,747.5C 399.5,746.5 400.5,745.5 401.5,744.5C 405.211,743.656 408.877,742.656 412.5,741.5C 416.022,742.016 418.355,744.016 419.5,747.5C 416.336,751.654 414.336,756.321 413.5,761.5C 412.022,761.238 410.689,761.571 409.5,762.5C 406.833,765.833 403.833,768.833 400.5,771.5C 395.883,777.404 392.883,784.071 391.5,791.5C 392.594,798.628 393.927,805.628 395.5,812.5C 394.506,850.763 388.84,888.429 378.5,925.5C 373.523,954.383 367.523,983.05 360.5,1011.5C 357.101,1017.54 353.767,1023.54 350.5,1029.5C 347.518,1041.41 345.184,1053.41 343.5,1065.5C 344.961,1070.72 345.961,1076.05 346.5,1081.5C 348.5,1085.5 350.5,1089.5 352.5,1093.5C 360.062,1100.92 368.395,1107.09 377.5,1112C 379.019,1113.35 380.352,1114.85 381.5,1116.5C 383.396,1117.47 385.396,1117.8 387.5,1117.5C 387.5,1118.83 387.5,1120.17 387.5,1121.5C 393.391,1123.44 399.391,1123.77 405.5,1122.5C 407.5,1120.5 409.5,1118.5 411.5,1116.5C 417.736,1114.38 423.736,1111.72 429.5,1108.5C 432.079,1104.9 435.412,1102.56 439.5,1101.5C 442.016,1094.96 444.349,1088.29 446.5,1081.5C 446.833,1082.83 447.167,1084.17 447.5,1085.5C 443.685,1102.02 440.685,1118.68 438.5,1135.5C 436.5,1140.83 434.5,1146.17 432.5,1151.5C 431.744,1161.07 433.078,1170.41 436.5,1179.5C 444.302,1187.95 450.968,1197.28 456.5,1207.5C 460.5,1216.83 460.5,1226.17 456.5,1235.5C 455.833,1246.17 455.167,1256.83 454.5,1267.5C 448.305,1297.84 444.971,1328.5 444.5,1359.5C 439.833,1374.17 435.167,1388.83 430.5,1403.5C 425.714,1413.86 421.714,1424.52 418.5,1435.5C 417.833,1436.17 417.167,1436.83 416.5,1437.5C 413.422,1453.56 410.089,1469.56 406.5,1485.5C 403.153,1494.93 399.819,1504.26 396.5,1513.5C 395.353,1543.56 393.353,1573.56 390.5,1603.5C 389.5,1622.15 389.167,1640.82 389.5,1659.5C 388.167,1659.5 386.833,1659.5 385.5,1659.5C 385.5,1660.83 385.5,1662.17 385.5,1663.5C 384.022,1663.24 382.689,1663.57 381.5,1664.5C 378.297,1668.72 374.297,1671.72 369.5,1673.5C 364.884,1686.63 360.884,1699.96 357.5,1713.5C 354.465,1713.52 352.132,1714.85 350.5,1717.5C 347.331,1725.85 342.665,1733.18 336.5,1739.5C 334.47,1748.03 333.47,1756.7 333.5,1765.5C 334.526,1783.66 336.86,1801.66 340.5,1819.5C 340.999,1824.85 342.999,1829.52 346.5,1833.5C 347.167,1805.5 347.833,1777.5 348.5,1749.5C 349.5,1748.5 350.5,1747.5 351.5,1746.5C 356.115,1745.01 360.782,1744.17 365.5,1744C 371.263,1752.44 375.596,1761.6 378.5,1771.5C 379.379,1792.17 380.379,1812.84 381.5,1833.5C 380.539,1850.84 379.539,1868.17 378.5,1885.5C 377.137,1896.28 375.137,1906.95 372.5,1917.5C 371.998,1932.55 370.998,1947.55 369.5,1962.5C 370.117,1974.18 373.117,1985.18 378.5,1995.5C 383.167,1999.5 387.5,2003.83 391.5,2008.5C 398.868,2012.97 406.868,2016.3 415.5,2018.5C 422.357,2019.9 429.023,2019.24 435.5,2016.5C 445.261,2013.79 453.594,2008.79 460.5,2001.5C 466.557,1990.07 470.89,1978.07 473.5,1965.5C 472.303,1962.91 471.303,1960.24 470.5,1957.5C 462.91,1947.24 454.91,1937.24 446.5,1927.5C 442.557,1918.61 438.89,1909.61 435.5,1900.5C 428.848,1877.77 427.848,1854.77 432.5,1831.5C 435.167,1824.83 437.833,1818.17 440.5,1811.5C 442.539,1809.13 444.872,1807.13 447.5,1805.5C 450.833,1807.17 454.167,1808.83 457.5,1810.5C 459.005,1811.84 459.672,1813.51 459.5,1815.5C 460.833,1815.5 462.167,1815.5 463.5,1815.5C 463.238,1816.98 463.571,1818.31 464.5,1819.5C 469.5,1823.83 474.167,1828.5 478.5,1833.5C 479.167,1832.83 479.833,1832.17 480.5,1831.5C 481.039,1826.05 482.039,1820.72 483.5,1815.5C 480.905,1809.25 477.905,1803.25 474.5,1797.5C 473.167,1791.5 473.167,1785.5 474.5,1779.5C 475.027,1773.97 478.027,1770.64 483.5,1769.5C 486.669,1770.96 490.002,1771.79 493.5,1772C 498.078,1777.08 503.078,1781.58 508.5,1785.5C 513.316,1793.83 519.482,1801.16 527,1807.5C 532.751,1817.04 537.918,1827.04 542.5,1837.5C 543.809,1839.89 544.809,1839.89 545.5,1837.5C 541.758,1828.01 537.424,1818.68 532.5,1809.5C 528.234,1792.62 520.234,1777.95 508.5,1765.5C 499.561,1747.39 490.228,1729.39 480.5,1711.5C 478.167,1709.83 476.167,1707.83 474.5,1705.5C 465.714,1692.26 459.381,1677.93 455.5,1662.5C 459.167,1642.83 462.833,1623.17 466.5,1603.5C 468.5,1596.83 470.5,1590.17 472.5,1583.5C 481.32,1563.86 490.654,1544.53 500.5,1525.5C 504.772,1512.02 509.439,1498.68 514.5,1485.5C 538.298,1440.78 554.965,1393.44 564.5,1343.5C 567.85,1318.74 571.85,1294.07 576.5,1269.5C 578.647,1246.85 580.647,1224.19 582.5,1201.5C 593.659,1170.2 602.326,1138.2 608.5,1105.5C 615.862,1081.78 626.196,1059.44 639.5,1038.5C 640.167,1038.17 640.833,1037.83 641.5,1037.5C 655.384,1039.43 669.384,1040.09 683.5,1039.5C 683.228,1045.2 682.561,1050.87 681.5,1056.5C 682.688,1074.88 684.354,1093.22 686.5,1111.5C 698.49,1163.47 714.49,1214.14 734.5,1263.5C 740.256,1291.22 744.256,1319.22 746.5,1347.5C 748.475,1353.35 749.809,1359.35 750.5,1365.5C 752.5,1371.5 754.5,1377.5 756.5,1383.5C 765.993,1401.82 775.993,1419.82 786.5,1437.5C 789.676,1445.84 793.342,1453.84 797.5,1461.5C 798.833,1461.5 800.167,1461.5 801.5,1461.5C 801.238,1462.98 801.571,1464.31 802.5,1465.5C 809.08,1470.07 813.746,1476.07 816.5,1483.5C 822.09,1502.79 827.423,1522.13 832.5,1541.5C 834.246,1565.32 840.246,1587.99 850.5,1609.5C 850.833,1612.17 851.167,1614.83 851.5,1617.5C 848.927,1635.85 848.927,1654.18 851.5,1672.5C 851.167,1674.17 850.833,1675.83 850.5,1677.5C 844.589,1684.99 838.923,1692.66 833.5,1700.5C 830.5,1701.5 827.5,1702.5 824.5,1703.5C 823.5,1703.17 822.5,1702.83 821.5,1702.5C 816.774,1697.33 811.441,1693 805.5,1689.5C 802.911,1690.7 800.244,1691.7 797.5,1692.5C 795.343,1694.41 793.009,1696.08 790.5,1697.5C 787.81,1724.12 787.144,1750.79 788.5,1777.5C 789.337,1779.84 790.671,1781.84 792.5,1783.5C 795.167,1782.17 797.833,1780.83 800.5,1779.5C 802.346,1776.43 803.346,1773.1 803.5,1769.5C 802.41,1761.11 801.077,1752.78 799.5,1744.5C 800.754,1740.23 801.754,1735.9 802.5,1731.5C 803.248,1729.67 804.248,1728 805.5,1726.5C 809.978,1724.38 814.645,1723.54 819.5,1724C 822.461,1727.42 824.794,1731.25 826.5,1735.5C 830.167,1738.5 833.5,1741.83 836.5,1745.5C 842.925,1754.77 842.925,1764.1 836.5,1773.5C 832.5,1778.83 828.5,1784.17 824.5,1789.5C 823.593,1793.57 821.926,1797.24 819.5,1800.5C 820.893,1804.29 822.559,1807.95 824.5,1811.5C 832.568,1806.46 839.902,1800.46 846.5,1793.5C 849.237,1795.1 852.237,1795.94 855.5,1796C 856.357,1796.69 857.023,1797.52 857.5,1798.5C 862.197,1798.72 865.197,1801.05 866.5,1805.5C 868.735,1816.12 871.735,1826.45 875.5,1836.5C 866.698,1848.04 863.032,1861.04 864.5,1875.5C 866.839,1881.51 869.173,1887.51 871.5,1893.5C 870.035,1898.89 868.369,1904.23 866.5,1909.5C 862.631,1912.7 858.297,1915.04 853.5,1916.5C 851.995,1917.84 851.328,1919.51 851.5,1921.5C 850.167,1921.5 848.833,1921.5 847.5,1921.5C 842.997,1929.96 838.664,1938.63 834.5,1947.5C 831.142,1958.96 828.809,1970.62 827.5,1982.5C 827.81,1989.08 829.144,1995.42 831.5,2001.5C 832.833,2001.5 834.167,2001.5 835.5,2001.5C 835.328,2003.49 835.995,2005.16 837.5,2006.5C 841.697,2008.02 845.03,2010.69 847.5,2014.5C 850.674,2016.22 854.007,2017.56 857.5,2018.5C 882.498,2021.6 905.831,2016.93 927.5,2004.5C 931.371,2002.87 935.371,2001.87 939.5,2001.5C 939.201,1999.4 939.534,1997.4 940.5,1995.5C 942.587,1993.25 943.921,1990.59 944.5,1987.5C 946.044,1979.9 947.044,1972.24 947.5,1964.5C 946.615,1951.64 944.615,1938.97 941.5,1926.5C 942.986,1906.87 943.986,1887.2 944.5,1867.5C 945.167,1830.83 945.833,1794.17 946.5,1757.5C 947.167,1752.17 947.833,1746.83 948.5,1741.5C 953.238,1739.4 958.238,1738.06 963.5,1737.5C 966.043,1737.64 968.377,1738.31 970.5,1739.5C 971.192,1742.94 972.192,1746.27 973.5,1749.5C 970.865,1754.32 971.198,1758.99 974.5,1763.5C 975.045,1772.96 976.379,1782.29 978.5,1791.5C 980.5,1792.83 982.167,1794.5 983.5,1796.5C 991.202,1801.49 996.869,1799.83 1000.5,1791.5C 1003.55,1780.21 999.212,1774.21 987.5,1773.5C 987.306,1764.44 987.973,1755.44 989.5,1746.5C 985.86,1726.91 980.193,1707.91 972.5,1689.5C 970.167,1687.83 968.167,1685.83 966.5,1683.5C 965.017,1674.2 960.683,1666.53 953.5,1660.5C 942.733,1658.02 932.399,1654.36 922.5,1649.5C 921.258,1621.35 918.591,1593.35 914.5,1565.5C 913.018,1543.47 913.352,1521.47 915.5,1499.5C 913.494,1483.45 911.16,1467.45 908.5,1451.5C 904.206,1440.6 899.539,1429.93 894.5,1419.5C 891.167,1407.5 887.833,1395.5 884.5,1383.5C 880.167,1376.17 875.833,1368.83 871.5,1361.5C 873.492,1347.28 874.826,1332.94 875.5,1318.5C 875.167,1313.5 874.833,1308.5 874.5,1303.5C 873.833,1301.5 873.167,1299.5 872.5,1297.5C 867.541,1292.36 862.208,1287.7 856.5,1283.5C 854.457,1278.29 852.791,1272.96 851.5,1267.5C 852.739,1261.94 853.406,1256.28 853.5,1250.5C 852.922,1241.16 852.255,1231.83 851.5,1222.5C 851.833,1218.17 852.167,1213.83 852.5,1209.5C 854.132,1206.85 856.465,1205.52 859.5,1205.5C 859.5,1204.17 859.5,1202.83 859.5,1201.5C 862.833,1200.17 866.167,1198.83 869.5,1197.5C 870.621,1192.9 871.621,1188.23 872.5,1183.5C 877.383,1178.4 880.717,1172.4 882.5,1165.5C 884.115,1147.41 883.448,1129.41 880.5,1111.5C 871.441,1102.44 862.108,1093.77 852.5,1085.5C 850.553,1081.72 849.22,1077.72 848.5,1073.5C 845.407,1030.15 842.074,986.814 838.5,943.5C 837.422,937.443 836.089,931.443 834.5,925.5C 830.367,919.751 825.7,914.417 820.5,909.5C 819.513,906.232 819.18,902.898 819.5,899.5C 832.863,897.792 846.196,895.792 859.5,893.5C 859.831,886.137 859.497,878.803 858.5,871.5C 856.152,857.442 853.486,843.442 850.5,829.5C 849.497,815.468 848.164,801.468 846.5,787.5C 845.467,782.433 843.134,778.1 839.5,774.5C 832.405,770.619 825.071,767.285 817.5,764.5C 815.336,761.841 814.002,758.841 813.5,755.5C 809.989,754.356 806.656,752.689 803.5,750.5C 800.854,748.868 799.521,746.535 799.5,743.5C 798.167,743.5 796.833,743.5 795.5,743.5C 795.5,742.167 795.5,740.833 795.5,739.5C 790.934,738.441 786.267,737.775 781.5,737.5C 772.045,738.279 762.712,739.613 753.5,741.5C 749.935,723.573 745.268,705.907 739.5,688.5C 748.011,657.455 756.678,626.455 765.5,595.5C 771.924,597.945 778.424,599.945 785,601.5C 783.381,605.894 782.214,610.561 781.5,615.5C 781.833,617.5 782.167,619.5 782.5,621.5C 787.325,624.981 790.992,629.314 793.5,634.5C 798.261,637.721 803.261,640.721 808.5,643.5C 809.001,650.007 811.001,656.007 814.5,661.5C 817.833,664.167 820.833,667.167 823.5,670.5C 829.764,674.064 836.431,676.397 843.5,677.5C 845.183,690.92 847.517,704.253 850.5,717.5C 859.976,745.927 868.642,774.593 876.5,803.5C 889.347,837.39 903.347,870.723 918.5,903.5C 920.226,909.037 921.226,914.704 921.5,920.5C 920.647,928.247 919.313,935.914 917.5,943.5C 918.371,948.857 919.371,954.191 920.5,959.5C 921.959,965.104 924.793,969.771 929,973.5C 931.329,977.351 933.495,981.351 935.5,985.5C 932.596,991.973 930.262,998.64 928.5,1005.5C 924.5,1012.17 920.5,1018.83 916.5,1025.5C 913.269,1033.19 911.269,1041.19 910.5,1049.5C 907.235,1053.41 904.901,1057.74 903.5,1062.5C 904.046,1065.57 904.712,1068.57 905.5,1071.5C 906.873,1071.34 908.207,1071.51 909.5,1072C 910.755,1074.46 912.755,1075.63 915.5,1075.5C 919.063,1083.18 922.063,1091.18 924.5,1099.5C 927.003,1102.5 929.003,1105.84 930.5,1109.5C 934.93,1113.22 939.93,1116.22 945.5,1118.5C 955.796,1120.43 966.129,1122.09 976.5,1123.5C 982.296,1123.23 987.963,1122.23 993.5,1120.5C 994.988,1118.42 996.988,1117.42 999.5,1117.5C 999.238,1116.02 999.571,1114.69 1000.5,1113.5C 1003.27,1111.4 1005.27,1108.73 1006.5,1105.5C 1009.26,1102.07 1012.59,1099.41 1016.5,1097.5C 1018.66,1092.51 1021.33,1087.84 1024.5,1083.5C 1025.8,1064.68 1022.47,1046.68 1014.5,1029.5C 1010.44,1026.11 1007.11,1022.11 1004.5,1017.5C 999.721,1008.49 995.721,999.162 992.5,989.5C 990.339,984.508 987.672,979.841 984.5,975.5C 984.167,974.167 983.833,972.833 983.5,971.5C 986.306,965.082 988.306,958.416 989.5,951.5C 988.974,946.444 987.308,941.778 984.5,937.5C 979.833,932.167 975.167,926.833 970.5,921.5C 967.05,915.152 964.384,908.485 962.5,901.5C 953.835,866.172 945.169,830.838 936.5,795.5C 935.936,788.421 934.936,781.421 933.5,774.5C 933.833,773.5 934.167,772.5 934.5,771.5C 936.132,774.146 938.465,775.479 941.5,775.5C 941.238,776.978 941.571,778.311 942.5,779.5C 947.167,777.5 950.5,774.167 952.5,769.5C 955.167,778.833 957.833,788.167 960.5,797.5C 964.617,801.633 968.95,805.299 973.5,808.5C 979.36,809.713 985.027,811.379 990.5,813.5C 990.833,815.5 991.167,817.5 991.5,819.5C 988.318,828.859 988.984,837.859 993.5,846.5C 1003.74,850.659 1014.4,852.326 1025.5,851.5C 1026.37,856.831 1027.37,862.165 1028.5,867.5C 1030,868.752 1031.67,869.752 1033.5,870.5C 1044.12,873.899 1054.79,874.232 1065.5,871.5C 1066.28,874.858 1067.28,878.191 1068.5,881.5C 1075.17,890.83 1082.17,899.83 1089.5,908.5C 1090.83,908.833 1092.17,909.167 1093.5,909.5C 1098.06,908.053 1102.73,907.387 1107.5,907.5C 1108.63,916.799 1109.63,926.132 1110.5,935.5C 1111.22,939.716 1112.55,943.716 1114.5,947.5C 1123.43,955.048 1133.59,960.382 1145,963.5C 1144.35,966.649 1143.85,969.983 1143.5,973.5C 1143.04,979.564 1145.04,984.564 1149.5,988.5C 1160.98,991.203 1172.31,994.203 1183.5,997.5C 1184.44,1001.08 1185.11,1004.74 1185.5,1008.5C 1184.67,1013.5 1184,1018.5 1183.5,1023.5C 1184.83,1023.5 1186.17,1023.5 1187.5,1023.5C 1190.67,1030.17 1189.67,1036.17 1184.5,1041.5C 1183.17,1044.17 1183.17,1046.83 1184.5,1049.5C 1187.83,1052.17 1190.83,1055.17 1193.5,1058.5C 1197.58,1061.87 1202.25,1064.21 1207.5,1065.5C 1207.5,1069.5 1209.5,1071.5 1213.5,1071.5C 1211.74,1077.02 1209.41,1082.36 1206.5,1087.5C 1205.17,1091.5 1205.17,1095.5 1206.5,1099.5C 1210.43,1104.77 1214.76,1109.77 1219.5,1114.5C 1224.07,1114.48 1227.4,1116.48 1229.5,1120.5C 1226.61,1132.13 1223.61,1143.79 1220.5,1155.5C 1217.53,1166.06 1221.19,1172.9 1231.5,1176C 1234.03,1178.42 1236.69,1180.58 1239.5,1182.5C 1238.07,1184.39 1236.4,1186.05 1234.5,1187.5C 1228.35,1201.8 1221.68,1215.8 1214.5,1229.5C 1209.49,1249.54 1204.49,1269.54 1199.5,1289.5C 1201.6,1287.09 1204.27,1285.43 1207.5,1284.5C 1214.64,1276.87 1221.31,1268.87 1227.5,1260.5C 1228.69,1259.57 1230.02,1259.24 1231.5,1259.5C 1231.71,1267.87 1230.04,1275.87 1226.5,1283.5C 1218.47,1300.91 1209.47,1317.58 1199.5,1333.5C 1198.17,1333.5 1196.83,1333.5 1195.5,1333.5C 1195.76,1334.98 1195.43,1336.31 1194.5,1337.5C 1189.57,1340.46 1185.24,1344.13 1181.5,1348.5C 1182.17,1348.83 1182.83,1349.17 1183.5,1349.5C 1195.29,1344.57 1207.29,1340.24 1219.5,1336.5C 1223.5,1333.83 1227.5,1331.17 1231.5,1328.5C 1234.15,1326.87 1235.48,1324.53 1235.5,1321.5C 1236.98,1321.76 1238.31,1321.43 1239.5,1320.5C 1244.93,1313.98 1250.6,1307.64 1256.5,1301.5C 1266.68,1283.8 1274.68,1265.14 1280.5,1245.5C 1281.17,1246.17 1281.83,1246.83 1282.5,1247.5C 1286.91,1269.66 1286.24,1291.66 1280.5,1313.5C 1278.66,1319.17 1276.32,1324.5 1273.5,1329.5C 1272.02,1329.24 1270.69,1329.57 1269.5,1330.5C 1267.4,1333.27 1264.73,1335.27 1261.5,1336.5C 1265.17,1336.83 1268.83,1337.17 1272.5,1337.5C 1280.17,1336.72 1287.84,1336.05 1295.5,1335.5C 1296.18,1330.79 1297.18,1326.13 1298.5,1321.5C 1298.87,1297.41 1299.87,1273.41 1301.5,1249.5C 1297.55,1244.01 1294.55,1238.01 1292.5,1231.5C 1288.49,1226.13 1284.49,1220.8 1280.5,1215.5C 1277.17,1208.17 1273.83,1200.83 1270.5,1193.5C 1268.22,1189.28 1265.22,1185.62 1261.5,1182.5C 1278.53,1172.68 1281.53,1159.68 1270.5,1143.5C 1264.48,1138.13 1260.48,1131.46 1258.5,1123.5C 1253.3,1121.55 1248.3,1119.21 1243.5,1116.5C 1244.5,1115.5 1245.5,1114.5 1246.5,1113.5C 1247.76,1102.07 1247.1,1090.74 1244.5,1079.5C 1243,1078.25 1241.33,1077.25 1239.5,1076.5C 1241.09,1074.33 1242.42,1072 1243.5,1069.5C 1241.73,1066.79 1239.4,1064.79 1236.5,1063.5C 1236.5,1063.17 1236.5,1062.83 1236.5,1062.5C 1238.45,1063.47 1240.45,1064.47 1242.5,1065.5C 1244.99,1068.42 1244.99,1071.42 1242.5,1074.5C 1243.12,1076.12 1244.12,1077.45 1245.5,1078.5C 1248.73,1091.83 1249.06,1105.16 1246.5,1118.5C 1251.15,1118.83 1255.49,1120.16 1259.5,1122.5C 1261.46,1130.43 1265.46,1137.09 1271.5,1142.5C 1273.5,1146.5 1275.5,1150.5 1277.5,1154.5C 1279.18,1161.74 1277.85,1168.41 1273.5,1174.5C 1270.5,1177.5 1267.5,1180.5 1264.5,1183.5C 1267.07,1186.32 1269.41,1189.32 1271.5,1192.5C 1274.83,1199.83 1278.17,1207.17 1281.5,1214.5C 1285.5,1219.83 1289.5,1225.17 1293.5,1230.5C 1295.74,1237.25 1298.74,1243.58 1302.5,1249.5C 1300.89,1273.77 1299.89,1298.1 1299.5,1322.5C 1298.18,1327.13 1297.18,1331.79 1296.5,1336.5C 1284.55,1337.83 1272.55,1338.5 1260.5,1338.5C 1260.5,1337.17 1260.5,1335.83 1260.5,1334.5C 1264.5,1332.5 1268.5,1330.5 1272.5,1328.5C 1275.32,1323.5 1277.66,1318.17 1279.5,1312.5C 1285.22,1291.33 1285.89,1269.99 1281.5,1248.5C 1276.18,1261.81 1270.85,1275.15 1265.5,1288.5C 1262.33,1292.84 1259.66,1297.51 1257.5,1302.5C 1251.6,1308.64 1245.93,1314.98 1240.5,1321.5C 1239.31,1322.43 1237.98,1322.76 1236.5,1322.5C 1236.48,1325.53 1235.15,1327.87 1232.5,1329.5C 1228.5,1332.17 1224.5,1334.83 1220.5,1337.5C 1207.19,1342.05 1193.86,1346.38 1180.5,1350.5C 1180.24,1349.02 1180.57,1347.69 1181.5,1346.5C 1185.13,1342.69 1189.13,1339.36 1193.5,1336.5C 1194.43,1335.31 1194.76,1333.98 1194.5,1332.5C 1195.83,1332.5 1197.17,1332.5 1198.5,1332.5C 1208.47,1316.58 1217.47,1299.91 1225.5,1282.5C 1227.57,1276.95 1229.24,1271.28 1230.5,1265.5C 1230.17,1263.83 1229.83,1262.17 1229.5,1260.5C 1225.5,1265.83 1221.5,1271.17 1217.5,1276.5C 1212.43,1282.24 1206.76,1287.24 1200.5,1291.5C 1199.31,1292.43 1197.98,1292.76 1196.5,1292.5C 1198.14,1287.88 1199.81,1283.21 1201.5,1278.5C 1205.19,1261.75 1209.19,1245.08 1213.5,1228.5C 1221.73,1212.7 1229.4,1196.7 1236.5,1180.5C 1231.94,1178.22 1227.27,1175.89 1222.5,1173.5C 1221.25,1172 1220.25,1170.33 1219.5,1168.5C 1218.17,1163.83 1218.17,1159.17 1219.5,1154.5C 1223.67,1142.78 1225.67,1130.78 1225.5,1118.5C 1216.99,1114.66 1210.32,1108.66 1205.5,1100.5C 1204.17,1095.83 1204.17,1091.17 1205.5,1086.5C 1207.58,1082.01 1209.91,1077.67 1212.5,1073.5C 1208.65,1072.66 1206.65,1070.32 1206.5,1066.5C 1197.38,1063.43 1189.71,1058.09 1183.5,1050.5C 1182.17,1047.17 1182.17,1043.83 1183.5,1040.5C 1188.51,1035.83 1189.51,1030.5 1186.5,1024.5C 1185.17,1024.5 1183.83,1024.5 1182.5,1024.5C 1182.64,1019.11 1183.31,1013.78 1184.5,1008.5C 1184.04,1005.09 1183.38,1001.75 1182.5,998.5C 1171.31,995.203 1159.98,992.203 1148.5,989.5C 1146.1,987.695 1144.43,985.362 1143.5,982.5C 1142.5,975.866 1142.17,969.2 1142.5,962.5C 1131.43,960.801 1121.77,956.134 1113.5,948.5C 1111.55,944.716 1110.22,940.716 1109.5,936.5C 1108.63,927.132 1107.63,917.799 1106.5,908.5C 1102.11,908.68 1097.77,909.347 1093.5,910.5C 1091.83,910.167 1090.17,909.833 1088.5,909.5C 1077.91,898.655 1069.58,886.321 1063.5,872.5C 1059.69,873.762 1055.69,874.429 1051.5,874.5C 1043.44,874.567 1035.77,872.9 1028.5,869.5C 1026.54,864.023 1025.2,858.357 1024.5,852.5C 1013.4,853.326 1002.74,851.659 992.5,847.5C 988.047,838.511 987.38,829.178 990.5,819.5C 990.167,817.833 989.833,816.167 989.5,814.5C 984.027,812.379 978.36,810.713 972.5,809.5C 967.58,806.584 963.247,802.918 959.5,798.5C 957.631,790.227 954.964,782.227 951.5,774.5C 948.525,777.82 944.858,779.82 940.5,780.5C 940.5,779.167 940.5,777.833 940.5,776.5C 939.167,776.5 937.833,776.5 936.5,776.5C 936.255,785.964 937.255,795.297 939.5,804.5C 948.128,836.346 956.128,868.346 963.5,900.5C 965.384,907.485 968.05,914.152 971.5,920.5C 976.167,925.833 980.833,931.167 985.5,936.5C 989.99,943.262 991.323,950.595 989.5,958.5C 988.111,962.944 986.444,967.277 984.5,971.5C 991.872,986.26 998.872,1001.26 1005.5,1016.5C 1008.08,1021.08 1011.41,1025.08 1015.5,1028.5C 1023.73,1046.33 1027.07,1064.99 1025.5,1084.5C 1022.33,1088.84 1019.66,1093.51 1017.5,1098.5C 1013.59,1100.41 1010.26,1103.07 1007.5,1106.5C 1006.27,1109.73 1004.27,1112.4 1001.5,1114.5C 1000.57,1115.69 1000.24,1117.02 1000.5,1118.5C 997.988,1118.42 995.988,1119.42 994.5,1121.5C 988.634,1123.29 982.634,1124.29 976.5,1124.5C 965.778,1123.22 955.111,1121.56 944.5,1119.5C 939.003,1117.25 934.003,1114.25 929.5,1110.5C 928.003,1106.84 926.003,1103.5 923.5,1100.5C 921.063,1092.18 918.063,1084.18 914.5,1076.5C 911.167,1075.17 907.833,1073.83 904.5,1072.5C 900.804,1063.33 902.471,1055.33 909.5,1048.5C 910.269,1040.19 912.269,1032.19 915.5,1024.5C 919.5,1017.83 923.5,1011.17 927.5,1004.5C 929.005,997.83 931.339,991.497 934.5,985.5C 931.078,980.322 927.411,975.322 923.5,970.5C 919.649,961.915 917.315,952.915 916.5,943.5C 917.993,935.86 919.327,928.193 920.5,920.5C 920.137,915.047 919.137,909.714 917.5,904.5C 902.347,871.723 888.347,838.39 875.5,804.5C 867.642,775.593 858.976,746.927 849.5,718.5C 846.517,705.253 844.183,691.92 842.5,678.5C 822.597,675.596 810.93,664.263 807.5,644.5C 802.334,641.752 797.334,638.752 792.5,635.5C 789.546,630.61 785.879,626.277 781.5,622.5C 781.167,620.167 780.833,617.833 780.5,615.5C 781.334,610.504 782.001,605.504 782.5,600.5C 776.955,601.06 771.955,599.727 767.5,596.5C 759.631,617.309 753.631,638.642 749.5,660.5C 746.496,669.856 743.496,679.19 740.5,688.5C 746.124,705.663 751.124,722.996 755.5,740.5C 763.939,738.246 772.606,736.912 781.5,736.5C 786.601,736.75 791.601,737.416 796.5,738.5C 796.5,739.833 796.5,741.167 796.5,742.5C 797.833,742.5 799.167,742.5 800.5,742.5C 800.521,745.535 801.854,747.868 804.5,749.5C 807.656,751.689 810.989,753.356 814.5,754.5C 815.002,757.841 816.336,760.841 818.5,763.5C 827.557,766.528 835.89,770.861 843.5,776.5C 845.225,779.674 846.558,783.007 847.5,786.5C 849.164,800.468 850.497,814.468 851.5,828.5C 854.486,842.442 857.152,856.442 859.5,870.5C 860.498,878.472 860.831,886.472 860.5,894.5C 847.196,896.792 833.863,898.792 820.5,900.5C 820.187,903.247 820.52,905.914 821.5,908.5C 826.912,913.241 831.579,918.574 835.5,924.5C 837.089,930.443 838.422,936.443 839.5,942.5C 843.074,985.814 846.407,1029.15 849.5,1072.5C 850.22,1076.72 851.553,1080.72 853.5,1084.5C 863.435,1092.43 872.768,1101.1 881.5,1110.5C 884.465,1129.07 885.132,1147.74 883.5,1166.5C 881.717,1173.4 878.383,1179.4 873.5,1184.5C 872.621,1189.23 871.621,1193.9 870.5,1198.5C 867.167,1199.83 863.833,1201.17 860.5,1202.5C 860.5,1203.83 860.5,1205.17 860.5,1206.5C 857.465,1206.52 855.132,1207.85 853.5,1210.5C 853.167,1214.5 852.833,1218.5 852.5,1222.5C 853.333,1231.82 853.999,1241.15 854.5,1250.5C 854.453,1256.34 853.786,1262.01 852.5,1267.5C 853.913,1272.54 855.58,1277.54 857.5,1282.5C 863.208,1286.7 868.541,1291.36 873.5,1296.5C 874.167,1298.5 874.833,1300.5 875.5,1302.5C 875.833,1307.83 876.167,1313.17 876.5,1318.5C 875.924,1333.01 874.591,1347.34 872.5,1361.5C 877.084,1368.33 881.417,1375.33 885.5,1382.5C 888.833,1394.5 892.167,1406.5 895.5,1418.5C 900.539,1428.93 905.206,1439.6 909.5,1450.5C 912.242,1466.77 914.576,1483.1 916.5,1499.5C 914.382,1521.14 914.049,1542.8 915.5,1564.5C 919.591,1592.35 922.258,1620.35 923.5,1648.5C 933.399,1653.36 943.733,1657.02 954.5,1659.5C 961.683,1665.53 966.017,1673.2 967.5,1682.5C 969.5,1684.5 971.5,1686.5 973.5,1688.5C 981.401,1707.2 987.068,1726.53 990.5,1746.5C 989.098,1755.12 988.431,1763.78 988.5,1772.5C 1001.2,1773.55 1005.53,1780.22 1001.5,1792.5C 997.157,1800.98 990.824,1802.64 982.5,1797.5C 977.965,1794.38 975.631,1790.05 975.5,1784.5C 974.833,1777.83 974.167,1771.17 973.5,1764.5C 970.239,1759.59 969.906,1754.59 972.5,1749.5C 971.047,1746.7 970.047,1743.7 969.5,1740.5C 967.715,1739.34 965.715,1738.67 963.5,1738.5C 958.602,1739.22 953.935,1740.56 949.5,1742.5C 948.833,1747.83 948.167,1753.17 947.5,1758.5C 946.833,1795.17 946.167,1831.83 945.5,1868.5C 945.011,1887.87 944.011,1907.21 942.5,1926.5C 948.703,1946.93 949.703,1967.6 945.5,1988.5C 944.921,1991.59 943.587,1994.25 941.5,1996.5C 940.534,1998.4 940.201,2000.4 940.5,2002.5C 936.371,2002.87 932.371,2003.87 928.5,2005.5C 906.17,2018.12 882.17,2022.79 856.5,2019.5C 854.5,2018.83 852.5,2018.17 850.5,2017.5C 845.833,2014.17 841.167,2010.83 836.5,2007.5C 834.995,2006.16 834.328,2004.49 834.5,2002.5C 833.167,2002.5 831.833,2002.5 830.5,2002.5C 829.715,1999.14 828.715,1995.81 827.5,1992.5C 826.371,1976.8 828.371,1961.47 833.5,1946.5C 837.664,1937.63 841.997,1928.96 846.5,1920.5C 847.833,1920.5 849.167,1920.5 850.5,1920.5C 850.328,1918.51 850.995,1916.84 852.5,1915.5C 857.297,1914.04 861.631,1911.7 865.5,1908.5C 867.167,1903.5 868.833,1898.5 870.5,1893.5C 867.89,1887.95 865.557,1882.28 863.5,1876.5C 862.184,1868.36 862.85,1860.36 865.5,1852.5C 867.607,1846.63 869.941,1840.97 872.5,1835.5C 870.324,1825.8 867.991,1816.13 865.5,1806.5C 864.752,1804.67 863.752,1803 862.5,1801.5C 858.131,1799.77 853.798,1798.1 849.5,1796.5C 844.844,1797.13 841.177,1799.47 838.5,1803.5C 834.5,1806.17 830.5,1808.83 826.5,1811.5C 825.311,1812.43 823.978,1812.76 822.5,1812.5C 821.189,1808.53 819.855,1804.53 818.5,1800.5C 818.833,1799.17 819.167,1797.83 819.5,1796.5C 825.475,1787.23 831.475,1777.9 837.5,1768.5C 838.702,1765.23 839.702,1761.89 840.5,1758.5C 839.391,1754.28 837.725,1750.28 835.5,1746.5C 832.167,1743.17 828.833,1739.83 825.5,1736.5C 823.916,1732.33 821.582,1728.66 818.5,1725.5C 817.5,1725.17 816.5,1724.83 815.5,1724.5C 812.5,1725.5 809.5,1726.5 806.5,1727.5C 805.248,1729 804.248,1730.67 803.5,1732.5C 802.878,1736.61 801.878,1740.61 800.5,1744.5C 802.239,1752.73 803.572,1761.07 804.5,1769.5C 804.622,1774.02 803.289,1778.02 800.5,1781.5C 797.756,1782.3 795.089,1783.3 792.5,1784.5C 789.902,1783.32 788.236,1781.32 787.5,1778.5C 786.121,1751.12 786.787,1723.79 789.5,1696.5C 792.009,1695.08 794.343,1693.41 796.5,1691.5C 799.5,1690.5 802.5,1689.5 805.5,1688.5C 807.949,1689.22 810.283,1690.22 812.5,1691.5C 816.2,1695.54 820.2,1699.2 824.5,1702.5C 827.618,1701.35 830.618,1700.02 833.5,1698.5C 838.344,1690.81 843.677,1683.48 849.5,1676.5C 849.833,1675.17 850.167,1673.83 850.5,1672.5C 847.923,1654.19 847.923,1635.85 850.5,1617.5C 846.188,1604.56 841.855,1591.56 837.5,1578.5C 835.5,1566.5 833.5,1554.5 831.5,1542.5C 826.423,1523.13 821.09,1503.79 815.5,1484.5C 812.283,1477.41 807.617,1471.41 801.5,1466.5C 800.571,1465.31 800.238,1463.98 800.5,1462.5C 799.167,1462.5 797.833,1462.5 796.5,1462.5C 792.342,1454.84 788.676,1446.84 785.5,1438.5C 774.993,1420.82 764.993,1402.82 755.5,1384.5C 753.5,1378.5 751.5,1372.5 749.5,1366.5C 748.809,1360.35 747.475,1354.35 745.5,1348.5C 743.256,1320.22 739.256,1292.22 733.5,1264.5C 713.49,1215.14 697.49,1164.47 685.5,1112.5C 683.318,1093.89 681.651,1075.22 680.5,1056.5C 681.174,1051.15 681.841,1045.81 682.5,1040.5C 668.656,1041.12 654.989,1040.46 641.5,1038.5C 627.61,1059.61 616.943,1082.28 609.5,1106.5C 603.326,1139.2 594.659,1171.2 583.5,1202.5C 581.647,1225.19 579.647,1247.85 577.5,1270.5C 572.85,1295.07 568.85,1319.74 565.5,1344.5C 555.965,1394.44 539.298,1441.78 515.5,1486.5C 510.439,1499.68 505.772,1513.02 501.5,1526.5C 491.654,1545.53 482.32,1564.86 473.5,1584.5C 471.5,1591.17 469.5,1597.83 467.5,1604.5C 463.961,1623.86 460.295,1643.19 456.5,1662.5C 461.168,1680.51 469.501,1696.51 481.5,1710.5C 491.228,1728.39 500.561,1746.39 509.5,1764.5C 521.241,1776.99 529.241,1791.66 533.5,1808.5C 536.326,1814.82 539.659,1820.82 543.5,1826.5C 544.978,1832.59 546.644,1838.59 548.5,1844.5C 547.167,1844.5 545.833,1844.5 544.5,1844.5C 538.855,1833.21 533.189,1821.88 527.5,1810.5C 519.326,1803.67 512.659,1795.67 507.5,1786.5C 501.909,1782.91 496.909,1778.58 492.5,1773.5C 489.298,1772.95 486.298,1771.95 483.5,1770.5C 481.5,1771.83 479.5,1773.17 477.5,1774.5C 472.617,1786.11 473.95,1796.77 481.5,1806.5C 482.5,1809.5 483.5,1812.5 484.5,1815.5C 483.13,1821.09 482.13,1826.76 481.5,1832.5C 480.065,1834.4 478.398,1834.73 476.5,1833.5C 472.167,1829.17 467.833,1824.83 463.5,1820.5C 462.571,1819.31 462.238,1817.98 462.5,1816.5C 461.167,1816.5 459.833,1816.5 458.5,1816.5C 458.672,1814.51 458.005,1812.84 456.5,1811.5C 453.339,1810.09 450.339,1808.42 447.5,1806.5C 445.5,1808.5 443.5,1810.5 441.5,1812.5C 438.833,1819.17 436.167,1825.83 433.5,1832.5C 428.869,1855.1 429.869,1877.43 436.5,1899.5C 439.89,1908.61 443.557,1917.61 447.5,1926.5C 454.833,1935.17 462.167,1943.83 469.5,1952.5C 471.559,1956.68 473.226,1961.01 474.5,1965.5C 472.172,1978.5 467.839,1990.83 461.5,2002.5C 459.167,2004.83 456.833,2007.17 454.5,2009.5C 425.245,2026.64 399.578,2022.31 377.5,1996.5C 372.023,1985.86 369.023,1974.53 368.5,1962.5C 369.965,1947.21 370.965,1931.87 371.5,1916.5C 374.137,1905.95 376.137,1895.28 377.5,1884.5C 378.5,1867.5 379.5,1850.5 380.5,1833.5C 379.349,1813.17 378.349,1792.84 377.5,1772.5C 374.557,1764.34 371.224,1756.34 367.5,1748.5C 366.122,1746.79 364.455,1745.45 362.5,1744.5C 359.27,1745.81 355.936,1746.81 352.5,1747.5C 351.5,1748.5 350.5,1749.5 349.5,1750.5C 348.5,1778.49 348.167,1806.49 348.5,1834.5C 344.678,1834.35 342.345,1832.35 341.5,1828.5C 334.236,1801.59 331.57,1774.26 333.5,1746.5C 334.167,1743.83 334.833,1741.17 335.5,1738.5C 341.665,1732.18 346.331,1724.85 349.5,1716.5C 351.132,1713.85 353.465,1712.52 356.5,1712.5C 359.884,1698.96 363.884,1685.63 368.5,1672.5C 369.978,1672.76 371.311,1672.43 372.5,1671.5C 375.167,1668.83 377.833,1666.17 380.5,1663.5C 381.689,1662.57 383.022,1662.24 384.5,1662.5C 384.5,1661.17 384.5,1659.83 384.5,1658.5C 385.833,1658.5 387.167,1658.5 388.5,1658.5C 388.167,1639.82 388.5,1621.15 389.5,1602.5C 392.353,1572.56 394.353,1542.56 395.5,1512.5C 398.819,1503.26 402.153,1493.93 405.5,1484.5C 409.089,1468.56 412.422,1452.56 415.5,1436.5C 416.167,1435.83 416.833,1435.17 417.5,1434.5C 420.714,1423.52 424.714,1412.86 429.5,1402.5C 434.167,1387.83 438.833,1373.17 443.5,1358.5C 443.971,1327.5 447.305,1296.84 453.5,1266.5C 454.167,1255.83 454.833,1245.17 455.5,1234.5C 459.744,1224.2 459.077,1214.2 453.5,1204.5C 448.269,1195.93 442.269,1187.93 435.5,1180.5C 431.817,1170.77 430.484,1160.77 431.5,1150.5C 433.5,1145.17 435.5,1139.83 437.5,1134.5C 439.264,1122.05 441.598,1109.71 444.5,1097.5C 444.167,1096.5 443.833,1095.5 443.5,1094.5C 441.917,1096.99 440.917,1099.66 440.5,1102.5C 436.412,1103.56 433.079,1105.9 430.5,1109.5C 424.736,1112.72 418.736,1115.38 412.5,1117.5C 410.5,1119.5 408.5,1121.5 406.5,1123.5C 399.724,1124.82 393.057,1124.48 386.5,1122.5C 386.5,1121.17 386.5,1119.83 386.5,1118.5C 384.396,1118.8 382.396,1118.47 380.5,1117.5C 374.386,1112.05 367.72,1107.39 360.5,1103.5C 349.124,1093.41 343.124,1080.75 342.5,1065.5C 344.1,1053.04 346.433,1040.71 349.5,1028.5C 352.767,1022.54 356.101,1016.54 359.5,1010.5C 366.523,982.05 372.523,953.383 377.5,924.5C 390.898,879.329 395.564,833.329 391.5,786.5C 394.917,776.676 400.583,768.342 408.5,761.5C 409.689,760.571 411.022,760.238 412.5,760.5C 413.158,755.518 415.158,751.185 418.5,747.5C 416.792,745.457 414.792,743.79 412.5,742.5C 409.27,743.808 405.936,744.808 402.5,745.5C 401.5,746.5 400.5,747.5 399.5,748.5C 397.723,754.851 395.389,760.851 392.5,766.5C 387.972,767.937 383.306,768.604 378.5,768.5C 377.671,774.986 375.671,780.986 372.5,786.5C 364.749,785.248 361.083,788.582 361.5,796.5C 360.752,798.332 359.752,799.999 358.5,801.5C 355.167,802.167 351.833,802.833 348.5,803.5C 349.415,804.328 350.081,805.328 350.5,806.5C 349.116,815.604 345.782,823.937 340.5,831.5C 334.537,832.496 328.537,832.829 322.5,832.5C 322.579,834.666 323.246,836.666 324.5,838.5C 323.396,842.167 321.729,845.5 319.5,848.5C 319.778,860.274 315.445,869.94 306.5,877.5C 303.167,878.167 299.833,878.833 296.5,879.5C 294.343,881.412 292.009,883.079 289.5,884.5C 289.167,886.167 288.833,887.833 288.5,889.5C 291.366,897.306 291.032,904.973 287.5,912.5C 282.454,918.075 276.12,920.742 268.5,920.5C 268.339,930.133 266.673,939.466 263.5,948.5C 259.131,951.357 255.131,954.69 251.5,958.5C 249.658,964.172 247.325,969.505 244.5,974.5C 240.009,976.41 235.342,977.744 230.5,978.5C 233.654,991.479 232.654,1004.15 227.5,1016.5C 226.5,1017.5 225.5,1018.5 224.5,1019.5C 217.979,1021.45 211.646,1023.78 205.5,1026.5C 206.163,1042.47 206.163,1058.47 205.5,1074.5C 199.947,1080.94 195.947,1088.27 193.5,1096.5C 191.408,1099.68 189.075,1102.68 186.5,1105.5C 188.202,1111 190.202,1116.33 192.5,1121.5C 191.5,1126.5 190.5,1131.5 189.5,1136.5C 184.828,1145.85 179.162,1154.52 172.5,1162.5C 172.919,1163.67 173.585,1164.67 174.5,1165.5C 177.809,1166.72 181.142,1167.72 184.5,1168.5C 184.855,1170.89 185.522,1173.22 186.5,1175.5C 184.326,1182.85 181.326,1189.85 177.5,1196.5C 176.513,1199.77 176.18,1203.1 176.5,1206.5C 180.37,1207.8 184.37,1208.47 188.5,1208.5C 188.169,1217.19 188.502,1225.86 189.5,1234.5C 196.651,1245.1 204.984,1254.77 214.5,1263.5C 232.708,1274.41 252.041,1277.07 272.5,1271.5C 277.628,1268.71 282.961,1266.37 288.5,1264.5C 292.522,1257.44 296.189,1250.11 299.5,1242.5C 299.936,1236.65 300.936,1230.98 302.5,1225.5C 300.688,1222.1 300.021,1218.43 300.5,1214.5C 303.343,1214.92 306.01,1215.92 308.5,1217.5C 320.972,1230.57 326.972,1246.23 326.5,1264.5C 325.781,1272.53 324.781,1280.53 323.5,1288.5C 320.437,1300.77 316.77,1312.77 312.5,1324.5C 311.167,1324.5 309.833,1324.5 308.5,1324.5C 308.517,1328.12 307.517,1331.45 305.5,1334.5C 301.787,1339.9 296.787,1343.23 290.5,1344.5C 290.5,1345.83 290.5,1347.17 290.5,1348.5C 293.858,1349.28 297.191,1350.28 300.5,1351.5C 308.912,1352.02 317.245,1353.02 325.5,1354.5C 333.803,1352.73 342.136,1351.06 350.5,1349.5C 353.656,1347.31 356.989,1345.64 360.5,1344.5C 359.844,1355.51 355.178,1364.51 346.5,1371.5C 342.049,1372.62 338.049,1374.62 334.5,1377.5C 312.898,1380.68 292.565,1377.01 273.5,1366.5C 273.167,1367.17 272.833,1367.83 272.5,1368.5C 275.531,1374.56 278.531,1380.56 281.5,1386.5C 283.686,1390.2 286.353,1393.53 289.5,1396.5C 290.429,1397.69 290.762,1399.02 290.5,1400.5C 292.492,1400.33 294.158,1401 295.5,1402.5C 296.73,1405.73 298.73,1408.4 301.5,1410.5C 302.429,1411.69 302.762,1413.02 302.5,1414.5C 301.022,1414.76 299.689,1414.43 298.5,1413.5C 296.399,1410.73 293.732,1408.73 290.5,1407.5C 288.995,1406.16 288.328,1404.49 288.5,1402.5C 284.678,1402.35 282.345,1400.35 281.5,1396.5C 272.002,1388.34 264.002,1379.01 257.5,1368.5C 253.203,1365.55 250.536,1361.55 249.5,1356.5C 242.699,1350.23 237.365,1342.9 233.5,1334.5C 228.909,1327.91 223.576,1321.91 217.5,1316.5C 216.833,1314.5 216.167,1312.5 215.5,1310.5C 212.167,1306.5 208.833,1302.5 205.5,1298.5C 200.833,1290.5 196.167,1282.5 191.5,1274.5C 188.167,1270.5 184.833,1266.5 181.5,1262.5C 179.917,1260.01 178.917,1257.34 178.5,1254.5C 177.167,1254.5 175.833,1254.5 174.5,1254.5C 174.083,1251.66 173.083,1248.99 171.5,1246.5C 168.73,1244.4 166.73,1241.73 165.5,1238.5C 164.158,1237 162.492,1236.33 160.5,1236.5C 160.577,1233.99 159.577,1231.99 157.5,1230.5C 156.237,1221.79 156.571,1213.12 158.5,1204.5C 157.172,1196.85 154.839,1189.52 151.5,1182.5C 137.874,1171.09 137.207,1159.09 149.5,1146.5C 150.167,1141.17 150.833,1135.83 151.5,1130.5C 152.167,1129.83 152.833,1129.17 153.5,1128.5C 155.262,1117.88 154.262,1107.55 150.5,1097.5C 151.369,1092.87 153.369,1088.87 156.5,1085.5C 157.689,1084.57 159.022,1084.24 160.5,1084.5C 160.5,1083.17 160.5,1081.83 160.5,1080.5C 161.833,1080.5 163.167,1080.5 164.5,1080.5C 164.483,1076.88 165.483,1073.55 167.5,1070.5C 168.665,1059.47 168.332,1048.47 166.5,1037.5C 166.833,1034.5 167.167,1031.5 167.5,1028.5C 170.5,1025.5 173.5,1022.5 176.5,1019.5C 177.689,1018.57 179.022,1018.24 180.5,1018.5C 180.238,1017.02 180.571,1015.69 181.5,1014.5C 184.524,1012.99 187.191,1010.99 189.5,1008.5C 190.429,1007.31 190.762,1005.98 190.5,1004.5C 191.833,1004.5 193.167,1004.5 194.5,1004.5C 194.187,1001.75 194.52,999.086 195.5,996.5C 199.199,990.147 202.866,983.813 206.5,977.5C 205.441,974.382 204.108,971.382 202.5,968.5C 203.754,966.666 204.421,964.666 204.5,962.5C 209.005,961.669 212.005,959.002 213.5,954.5C 215.5,953.167 217.5,951.833 219.5,950.5C 220.399,946.462 222.066,942.795 224.5,939.5C 227.656,937.311 230.989,935.644 234.5,934.5C 234.5,933.167 234.5,931.833 234.5,930.5C 235.833,930.5 237.167,930.5 238.5,930.5C 238.17,923.8 238.503,917.134 239.5,910.5C 242.565,906.375 246.565,903.709 251.5,902.5C 254.591,891.965 257.258,881.298 259.5,870.5C 265.724,863.889 273.391,860.222 282.5,859.5C 283.5,858.5 284.5,857.5 285.5,856.5C 287.815,847.905 289.815,839.239 291.5,830.5C 297.5,828.5 303.5,826.5 309.5,824.5C 311.353,816.196 313.019,807.863 314.5,799.5C 315.701,796.29 317.701,793.623 320.5,791.5C 326.651,790.809 332.651,789.475 338.5,787.5C 342.736,783.216 347.736,780.216 353.5,778.5C 354.167,773.833 354.833,769.167 355.5,764.5C 358.167,759.167 362.167,755.167 367.5,752.5C 368.22,748.284 369.553,744.284 371.5,740.5C 376.905,734.424 382.905,729.091 389.5,724.5C 390.167,719.167 390.833,713.833 391.5,708.5C 393.5,705.167 395.5,701.833 397.5,698.5C 401.869,695.643 405.869,692.31 409.5,688.5C 410.851,673.501 418.518,663.501 432.5,658.5C 432.5,657.167 432.5,655.833 432.5,654.5C 425.449,654.808 419.783,652.142 415.5,646.5C 413.708,641.45 414.708,637.117 418.5,633.5C 429.026,633.331 438.026,629.664 445.5,622.5C 446.429,621.311 446.762,619.978 446.5,618.5C 430.652,612.829 423.319,601.496 424.5,584.5C 424.696,578.398 425.362,572.398 426.5,566.5C 429.167,566.5 431.833,566.5 434.5,566.5C 433.949,579.187 438.282,589.854 447.5,598.5C 454.712,584.743 461.379,570.743 467.5,556.5C 467.833,553.5 468.167,550.5 468.5,547.5C 467.364,535.808 466.031,524.141 464.5,512.5C 464.952,509.123 465.618,505.789 466.5,502.5C 462.992,474.867 464.658,447.533 471.5,420.5C 473.68,408.324 480.68,400.657 492.5,397.5C 504.5,396.833 516.5,396.167 528.5,395.5C 535.167,393.5 541.833,391.5 548.5,389.5C 549.921,386.991 551.588,384.657 553.5,382.5C 554.466,380.604 554.799,378.604 554.5,376.5C 555.978,376.762 557.311,376.429 558.5,375.5C 559.921,372.991 561.588,370.657 563.5,368.5C 564.636,356.151 567.303,344.151 571.5,332.5C 572.73,329.268 574.73,326.601 577.5,324.5C 577.808,317.304 579.808,310.637 583.5,304.5C 585.928,301.402 588.928,299.069 592.5,297.5C 593.921,294.991 595.588,292.657 597.5,290.5C 596.632,282.05 600.299,277.05 608.5,275.5C 609.544,274.377 610.21,273.044 610.5,271.5C 605.709,256 601.709,240.333 598.5,224.5C 595.068,224.243 591.734,223.576 588.5,222.5C 586.788,214.358 584.454,206.358 581.5,198.5C 580.167,189.167 580.167,179.833 581.5,170.5C 585.394,169.281 589.061,167.614 592.5,165.5C 587.262,136.354 591.595,108.688 605.5,82.5C 607.686,78.8017 610.353,75.4683 613.5,72.5C 614.429,71.3112 614.762,69.9778 614.5,68.5C 615.978,68.762 617.311,68.4287 618.5,67.5C 621.833,64.1667 625.167,60.8333 628.5,57.5C 634.797,55.3485 640.797,52.6818 646.5,49.5C 667.107,43.1108 687.774,43.1108 708.5,49.5C 714.5,53.1667 720.5,56.8333 726.5,60.5C 729.797,58.2046 732.797,55.538 735.5,52.5C 741.938,45.3964 747.605,37.7297 752.5,29.5C 755.833,28.1667 759.167,28.1667 762.5,29.5C 764.833,31.8333 767.167,34.1667 769.5,36.5C 770.429,37.6888 770.762,39.0222 770.5,40.5C 771.833,40.5 773.167,40.5 774.5,40.5C 774.201,42.604 774.534,44.604 775.5,46.5C 780.306,50.1101 783.639,54.7768 785.5,60.5C 792.651,68.806 799.318,77.4727 805.5,86.5C 809.5,90.5 813.5,94.5 817.5,98.5C 818.02,102.735 820.02,106.068 823.5,108.5C 833.34,124.843 842.674,141.51 851.5,158.5C 854.981,167.609 857.648,176.942 859.5,186.5C 862.326,202.006 858.659,215.673 848.5,227.5C 846.01,229.083 843.343,230.083 840.5,230.5C 844.411,222.212 847.411,213.545 849.5,204.5C 851.079,193.027 850.412,181.693 847.5,170.5C 846.5,169.5 845.5,168.5 844.5,167.5C 835.942,164.554 827.942,160.554 820.5,155.5C 813.332,153.626 806.332,151.293 799.5,148.5C 798.5,148.833 797.5,149.167 796.5,149.5C 803.124,163.379 810.124,177.046 817.5,190.5C 823.418,205.66 828.751,220.994 833.5,236.5C 835.989,257.121 836.656,277.787 835.5,298.5C 834.091,310.645 829.425,321.312 821.5,330.5C 820.571,331.689 820.238,333.022 820.5,334.5C 814.542,336.807 808.542,339.14 802.5,341.5C 795.833,342.833 789.167,342.833 782.5,341.5C 780.668,340.752 779.001,339.752 777.5,338.5C 776.003,334.835 774.003,331.502 771.5,328.5C 769.341,323.375 768.341,318.041 768.5,312.5C 769.833,312.5 771.167,312.5 772.5,312.5C 772.201,314.604 772.534,316.604 773.5,318.5C 775.174,322.201 776.841,325.868 778.5,329.5C 787.687,336.603 796.02,335.603 803.5,326.5C 809.889,313.875 811.889,300.541 809.5,286.5C 806.425,271.016 801.092,256.349 793.5,242.5C 782.708,227.032 772.708,211.032 763.5,194.5C 762.167,193.167 760.833,191.833 759.5,190.5C 758.115,191.551 757.115,192.884 756.5,194.5C 765.638,217.718 771.638,241.718 774.5,266.5C 773.689,282.31 765.356,290.31 749.5,290.5C 742.922,290.272 736.589,288.938 730.5,286.5C 728.545,287.453 726.878,288.787 725.5,290.5C 723.916,294.675 721.582,298.341 718.5,301.5C 722.695,312.888 727.695,323.888 733.5,334.5C 737.378,344.47 741.044,354.47 744.5,364.5C 753.971,369.778 763.971,374.111 774.5,377.5C 789.552,379.173 804.219,382.507 818.5,387.5C 829.833,388.167 841.167,388.833 852.5,389.5C 866.025,398.187 874.359,410.52 877.5,426.5C 879.703,445.866 878.036,464.866 872.5,483.5C 875.395,504.391 877.062,525.391 877.5,546.5C 890.826,586.478 904.159,626.478 917.5,666.5C 921.902,673.981 925.235,681.981 927.5,690.5C 928.833,693.833 928.833,697.167 927.5,700.5C 926.593,704.573 924.926,708.239 922.5,711.5C 923.5,714.5 924.5,717.5 925.5,720.5C 928.833,722.5 932.167,724.5 935.5,726.5C 939.5,731.833 943.5,737.167 947.5,742.5C 948.399,746.538 950.066,750.205 952.5,753.5C 955.167,754.833 957.833,756.167 960.5,757.5C 972.087,761.585 983.753,765.252 995.5,768.5C 1000.26,779.32 1002.6,790.653 1002.5,802.5C 1010.39,804.471 1018.39,805.804 1026.5,806.5C 1030.28,817.964 1032.95,829.63 1034.5,841.5C 1035.17,841.833 1035.83,842.167 1036.5,842.5C 1043.6,839.222 1050.93,837.556 1058.5,837.5C 1065.83,846.167 1071.49,855.834 1075.5,866.5C 1086.39,860.564 1096.39,861.897 1105.5,870.5C 1109.59,880.769 1113.25,891.102 1116.5,901.5C 1128.34,906.559 1140.34,911.226 1152.5,915.5C 1153.5,916.5 1154.5,917.5 1155.5,918.5C 1156.82,923.1 1157.82,927.766 1158.5,932.5C 1157.31,937.78 1156.64,943.113 1156.5,948.5C 1161.27,948.613 1165.94,947.947 1170.5,946.5C 1171.83,946.833 1173.17,947.167 1174.5,947.5C 1179.43,954.429 1185.09,960.762 1191.5,966.5C 1191.83,968.5 1192.17,970.5 1192.5,972.5C 1191.42,979.255 1190.08,985.922 1188.5,992.5C 1197.15,993.354 1205.82,994.021 1214.5,994.5C 1214.2,996.604 1214.53,998.604 1215.5,1000.5C 1217.59,1002.75 1218.92,1005.41 1219.5,1008.5C 1220.83,1013.83 1220.83,1019.17 1219.5,1024.5C 1216.52,1027.51 1212.85,1029.17 1208.5,1029.5C 1206.67,1030.06 1205.34,1031.06 1204.5,1032.5 Z M 504.5,800.5 C 502.824,801.183 502.157,802.517 502.5,804.5C 501.167,804.5 499.833,804.5 498.5,804.5C 498.083,807.343 497.083,810.01 495.5,812.5C 479.674,834.151 464.341,856.151 449.5,878.5C 439.942,896.51 431.942,915.177 425.5,934.5C 421.784,948.248 420.117,962.248 420.5,976.5C 419.193,994.303 422.86,1010.97 431.5,1026.5C 433.5,1027.83 435.5,1029.17 437.5,1030.5C 438.248,1032.33 439.248,1034 440.5,1035.5C 443.661,1036.91 446.661,1038.58 449.5,1040.5C 450.167,1039.83 450.833,1039.17 451.5,1038.5C 452.167,1035.83 452.833,1033.17 453.5,1030.5C 456.086,1005.73 459.419,981.068 463.5,956.5C 464.036,941.1 465.036,925.767 466.5,910.5C 469.535,910.479 471.868,909.146 473.5,906.5C 474.167,901.833 474.833,897.167 475.5,892.5C 478.379,875.637 483.712,859.637 491.5,844.5C 495.257,841.414 498.257,837.748 500.5,833.5C 501.689,832.571 503.022,832.238 504.5,832.5C 505.528,828.265 506.195,823.932 506.5,819.5C 505.698,813.166 505.032,806.833 504.5,800.5 Z M 504.5,800.5 C 505.586,800.38 506.253,799.713 506.5,798.5C 506.167,797.833 505.833,797.167 505.5,796.5C 504.571,797.689 504.238,799.022 504.5,800.5 Z M 936.5,776.5 C 936.631,775.624 936.298,774.957 935.5,774.5C 934.33,775.694 934.663,776.361 936.5,776.5 Z M 534.5,632.5 C 527.452,657.981 519.785,683.314 511.5,708.5C 504.946,723.61 498.946,738.943 493.5,754.5C 491.725,762.15 490.059,769.817 488.5,777.5C 490.379,781.388 493.045,784.721 496.5,787.5C 500.158,788.047 503.158,789.714 505.5,792.5C 509.5,784.5 513.5,776.5 517.5,768.5C 522.167,762.5 526.833,756.5 531.5,750.5C 533.617,744.264 536.284,738.264 539.5,732.5C 542.833,727.833 546.167,723.167 549.5,718.5C 551.058,707.483 552.725,696.483 554.5,685.5C 554.167,683.167 553.833,680.833 553.5,678.5C 548.846,665.186 544.18,651.853 539.5,638.5C 537.796,636.359 536.13,634.359 534.5,632.5 Z M 836.5,630.5 C 836.369,631.376 836.702,632.043 837.5,632.5C 838.67,631.306 838.337,630.639 836.5,630.5 Z M 836.5,630.5 C 830.07,611.636 823.07,592.97 815.5,574.5C 809.237,553.71 802.57,533.043 795.5,512.5C 794.158,510.995 792.492,510.328 790.5,510.5C 788.258,524.467 784.925,538.134 780.5,551.5C 783.167,552.833 785.833,554.167 788.5,555.5C 799.157,567.798 804.49,582.131 804.5,598.5C 806.604,598.201 808.604,598.534 810.5,599.5C 812.833,601.833 815.167,604.167 817.5,606.5C 819.486,612.448 821.153,618.448 822.5,624.5C 827.408,625.954 832.074,627.954 836.5,630.5 Z M 620.5,298.5 C 619.594,300.417 618.261,302.083 616.5,303.5C 613.298,304.047 610.298,305.047 607.5,306.5C 606.833,310.5 606.167,314.5 605.5,318.5C 603.314,322.198 600.647,325.532 597.5,328.5C 597.167,330.167 596.833,331.833 596.5,333.5C 597.426,338.279 598.759,342.946 600.5,347.5C 599.13,353.09 598.13,358.757 597.5,364.5C 595.271,367.5 593.604,370.833 592.5,374.5C 593.79,376.792 595.457,378.792 597.5,380.5C 600.524,378.987 603.191,376.987 605.5,374.5C 607.5,369.833 609.5,365.167 611.5,360.5C 614.524,358.987 617.191,356.987 619.5,354.5C 623.388,347.28 628.055,340.614 633.5,334.5C 634.167,332.5 634.833,330.5 635.5,328.5C 636.074,323.719 637.074,319.052 638.5,314.5C 635.447,311.113 632.78,307.447 630.5,303.5C 627.344,301.311 624.011,299.644 620.5,298.5 Z M 746.5,238.5 C 744.538,244.342 742.871,250.342 741.5,256.5C 737.626,265.133 733.96,273.8 730.5,282.5C 735.214,282.827 739.88,282.493 744.5,281.5C 748.167,277.833 751.833,274.167 755.5,270.5C 756.833,264.5 756.833,258.5 755.5,252.5C 752.452,247.704 749.452,243.037 746.5,238.5 Z"/></g>
<g><path style="opacity:0.561" fill="#0eb9fc" d="M 299.5,1411.5 C 301.337,1411.64 301.67,1412.31 300.5,1413.5C 299.702,1413.04 299.369,1412.38 299.5,1411.5 Z"/></g>
<g><path style="opacity:0.561" fill="#1cbcf8" d="M 297.5,1409.5 C 298.833,1409.5 299.5,1410.17 299.5,1411.5C 299.5,1410.17 298.833,1409.5 297.5,1409.5 Z"/></g>
<g><path style="opacity:0.561" fill="#16c2f8" d="M 295.5,1407.5 C 296.833,1407.5 297.5,1408.17 297.5,1409.5C 297.5,1408.17 296.833,1407.5 295.5,1407.5 Z"/></g>
<g><path style="opacity:0.978" fill="#0ec0fe" d="M 289.5,1401.5 C 293.5,1401.5 295.5,1403.5 295.5,1407.5C 295.5,1403.5 293.5,1401.5 289.5,1401.5 Z"/></g>
<g><path style="opacity:0.624" fill="#06c5ff" d="M 1199.5,1289.5 C 1199.36,1291.34 1198.69,1291.67 1197.5,1290.5C 1197.96,1289.7 1198.62,1289.37 1199.5,1289.5 Z"/></g>
<g><path style="opacity:0.241" fill="#fcfeff" d="M 533.5,627.5 C 535.789,630.7 538.122,634.034 540.5,637.5C 543.714,648.477 547.714,659.143 552.5,669.5C 555.15,677.357 555.816,685.357 554.5,693.5C 552.98,702.138 551.647,710.805 550.5,719.5C 547.167,724.167 543.833,728.833 540.5,733.5C 537.284,739.264 534.617,745.264 532.5,751.5C 527.833,757.5 523.167,763.5 518.5,769.5C 515.167,776.167 511.833,782.833 508.5,789.5C 507.715,794.876 506.715,800.209 505.5,805.5C 506.594,812.628 507.927,819.628 509.5,826.5C 506.854,828.132 505.521,830.465 505.5,833.5C 504.022,833.238 502.689,833.571 501.5,834.5C 499.257,838.748 496.257,842.414 492.5,845.5C 484.712,860.637 479.379,876.637 476.5,893.5C 475.833,898.167 475.167,902.833 474.5,907.5C 472.868,910.146 470.535,911.479 467.5,911.5C 466.036,926.767 465.036,942.1 464.5,957.5C 460.419,982.068 457.086,1006.73 454.5,1031.5C 453.78,1035.72 452.447,1039.72 450.5,1043.5C 447.341,1040.42 443.675,1038.08 439.5,1036.5C 438.248,1035 437.248,1033.33 436.5,1031.5C 434.5,1030.17 432.5,1028.83 430.5,1027.5C 421.729,1011.65 418.062,994.647 419.5,976.5C 419.09,961.915 420.757,947.582 424.5,933.5C 430.942,914.177 438.942,895.51 448.5,877.5C 463.341,855.151 478.674,833.151 494.5,811.5C 496.083,809.01 497.083,806.343 497.5,803.5C 498.833,803.5 500.167,803.5 501.5,803.5C 502.002,800.159 503.336,797.159 505.5,794.5C 502.138,790.989 498.138,788.489 493.5,787C 490.345,784.515 488.345,781.348 487.5,777.5C 488.952,769.455 490.619,761.455 492.5,753.5C 501.748,730.345 510.415,707.012 518.5,683.5C 524.128,664.958 529.128,646.291 533.5,627.5 Z M 504.5,800.5 C 502.824,801.183 502.157,802.517 502.5,804.5C 501.167,804.5 499.833,804.5 498.5,804.5C 498.083,807.343 497.083,810.01 495.5,812.5C 479.674,834.151 464.341,856.151 449.5,878.5C 439.942,896.51 431.942,915.177 425.5,934.5C 421.784,948.248 420.117,962.248 420.5,976.5C 419.193,994.303 422.86,1010.97 431.5,1026.5C 433.5,1027.83 435.5,1029.17 437.5,1030.5C 438.248,1032.33 439.248,1034 440.5,1035.5C 443.661,1036.91 446.661,1038.58 449.5,1040.5C 450.167,1039.83 450.833,1039.17 451.5,1038.5C 452.167,1035.83 452.833,1033.17 453.5,1030.5C 456.086,1005.73 459.419,981.068 463.5,956.5C 464.036,941.1 465.036,925.767 466.5,910.5C 469.535,910.479 471.868,909.146 473.5,906.5C 474.167,901.833 474.833,897.167 475.5,892.5C 478.379,875.637 483.712,859.637 491.5,844.5C 495.257,841.414 498.257,837.748 500.5,833.5C 501.689,832.571 503.022,832.238 504.5,832.5C 505.528,828.265 506.195,823.932 506.5,819.5C 505.698,813.166 505.032,806.833 504.5,800.5 Z M 504.5,800.5 C 505.586,800.38 506.253,799.713 506.5,798.5C 506.167,797.833 505.833,797.167 505.5,796.5C 504.571,797.689 504.238,799.022 504.5,800.5 Z M 534.5,632.5 C 527.452,657.981 519.785,683.314 511.5,708.5C 504.946,723.61 498.946,738.943 493.5,754.5C 491.725,762.15 490.059,769.817 488.5,777.5C 490.379,781.388 493.045,784.721 496.5,787.5C 500.158,788.047 503.158,789.714 505.5,792.5C 509.5,784.5 513.5,776.5 517.5,768.5C 522.167,762.5 526.833,756.5 531.5,750.5C 533.617,744.264 536.284,738.264 539.5,732.5C 542.833,727.833 546.167,723.167 549.5,718.5C 551.058,707.483 552.725,696.483 554.5,685.5C 554.167,683.167 553.833,680.833 553.5,678.5C 548.846,665.186 544.18,651.853 539.5,638.5C 537.796,636.359 536.13,634.359 534.5,632.5 Z"/></g>
<g><path style="opacity:0.418" fill="#fefffe" d="M 1065.5,871.5 C 1065.64,869.663 1066.31,869.33 1067.5,870.5C 1067.04,871.298 1066.38,871.631 1065.5,871.5 Z"/></g>
<g><path style="opacity:0.418" fill="#fefffe" d="M 839.5,633.5 C 841.337,633.639 841.67,634.306 840.5,635.5C 839.702,635.043 839.369,634.376 839.5,633.5 Z"/></g>
<g><path style="opacity:0.435" fill="#fdfffc" d="M 469.5,627.5 C 469.361,629.337 468.694,629.67 467.5,628.5C 467.957,627.702 468.624,627.369 469.5,627.5 Z"/></g>
<g><path style="opacity:0.418" fill="#fffefd" d="M 469.5,627.5 C 468.624,627.369 467.957,627.702 467.5,628.5C 468.694,629.67 469.361,629.337 469.5,627.5 Z"/></g>
<g><path style="opacity:0.184" fill="#fbfeff" d="M 839.5,633.5 C 833.797,630.318 827.797,627.652 821.5,625.5C 820.153,619.448 818.486,613.448 816.5,607.5C 813.833,605.5 811.5,603.167 809.5,600.5C 807.604,599.534 805.604,599.201 803.5,599.5C 803.49,583.131 798.157,568.798 787.5,556.5C 785.01,554.917 782.343,553.917 779.5,553.5C 783.472,538.276 787.139,522.943 790.5,507.5C 792.5,508.833 794.5,510.167 796.5,511.5C 803.57,532.043 810.237,552.71 816.5,573.5C 824.736,593.301 832.403,613.301 839.5,633.5 Z M 836.5,630.5 C 836.369,631.376 836.702,632.043 837.5,632.5C 838.67,631.306 838.337,630.639 836.5,630.5 Z M 836.5,630.5 C 830.07,611.636 823.07,592.97 815.5,574.5C 809.237,553.71 802.57,533.043 795.5,512.5C 794.158,510.995 792.492,510.328 790.5,510.5C 788.258,524.467 784.925,538.134 780.5,551.5C 783.167,552.833 785.833,554.167 788.5,555.5C 799.157,567.798 804.49,582.131 804.5,598.5C 806.604,598.201 808.604,598.534 810.5,599.5C 812.833,601.833 815.167,604.167 817.5,606.5C 819.486,612.448 821.153,618.448 822.5,624.5C 827.408,625.954 832.074,627.954 836.5,630.5 Z"/></g>
<g><path style="opacity:0.885" fill="#11bcfc" d="M 775.5,329.5 C 774.265,329.279 773.265,328.612 772.5,327.5C 771.833,325.5 771.167,323.5 770.5,321.5C 769.167,318.833 769.167,316.167 770.5,313.5C 772.771,318.693 774.438,324.026 775.5,329.5 Z"/></g>
<g><path style="opacity:0.223" fill="#f8feff" d="M 619.5,297.5 C 621.527,297.338 623.527,297.505 625.5,298C 631.638,302.223 636.305,307.723 639.5,314.5C 638.154,321.578 636.487,328.578 634.5,335.5C 629.055,341.614 624.388,348.28 620.5,355.5C 618.191,357.987 615.524,359.987 612.5,361.5C 610.5,366.167 608.5,370.833 606.5,375.5C 604.016,378.244 601.016,380.244 597.5,381.5C 594.408,380.077 592.408,377.743 591.5,374.5C 592.407,370.427 594.074,366.761 596.5,363.5C 597.039,358.052 598.039,352.718 599.5,347.5C 596.109,341.159 595.109,334.493 596.5,327.5C 599.647,324.532 602.314,321.198 604.5,317.5C 605.167,313.5 605.833,309.5 606.5,305.5C 609.298,304.047 612.298,303.047 615.5,302.5C 617.261,301.083 618.594,299.417 619.5,297.5 Z M 620.5,298.5 C 619.594,300.417 618.261,302.083 616.5,303.5C 613.298,304.047 610.298,305.047 607.5,306.5C 606.833,310.5 606.167,314.5 605.5,318.5C 603.314,322.198 600.647,325.532 597.5,328.5C 597.167,330.167 596.833,331.833 596.5,333.5C 597.426,338.279 598.759,342.946 600.5,347.5C 599.13,353.09 598.13,358.757 597.5,364.5C 595.271,367.5 593.604,370.833 592.5,374.5C 593.79,376.792 595.457,378.792 597.5,380.5C 600.524,378.987 603.191,376.987 605.5,374.5C 607.5,369.833 609.5,365.167 611.5,360.5C 614.524,358.987 617.191,356.987 619.5,354.5C 623.388,347.28 628.055,340.614 633.5,334.5C 634.167,332.5 634.833,330.5 635.5,328.5C 636.074,323.719 637.074,319.052 638.5,314.5C 635.447,311.113 632.78,307.447 630.5,303.5C 627.344,301.311 624.011,299.644 620.5,298.5 Z"/></g>
<g><path style="opacity:0.624" fill="#00c1ff" d="M 843.5,227.5 C 843.361,229.337 842.694,229.67 841.5,228.5C 841.957,227.702 842.624,227.369 843.5,227.5 Z"/></g>
<g><path style="opacity:0.418" fill="#fefffe" d="M 795.5,147.5 C 793.663,147.361 793.33,146.694 794.5,145.5C 795.298,145.957 795.631,146.624 795.5,147.5 Z"/></g>
<g><path style="opacity:0.561" fill="#00beff" d="M 545.5,1841.5 C 547.337,1841.64 547.67,1842.31 546.5,1843.5C 545.702,1843.04 545.369,1842.38 545.5,1841.5 Z"/></g>
</svg>
